<?xml version="1.0" encoding="UTF-8" standalone="no"?>
<svg
   version="1.1"
   viewBox="0 0 374.79999 267.79968"
   id="svg2229"
   sodipodi:docname="human-height-distribution.svg"
   width="374.79999"
   height="267.79968"
   inkscape:version="1.1.1 (c3084ef, 2021-09-22)"
   xmlns:inkscape="http://www.inkscape.org/namespaces/inkscape"
   xmlns:sodipodi="http://sodipodi.sourceforge.net/DTD/sodipodi-0.dtd"
   xmlns:xlink="http://www.w3.org/1999/xlink"
   xmlns="http://www.w3.org/2000/svg"
   xmlns:svg="http://www.w3.org/2000/svg"
   xmlns:rdf="http://www.w3.org/1999/02/22-rdf-syntax-ns#"
   xmlns:cc="http://creativecommons.org/ns#"
   xmlns:dc="http://purl.org/dc/elements/1.1/">
  <sodipodi:namedview
     id="namedview2231"
     pagecolor="#ffffff"
     bordercolor="#666666"
     borderopacity="1.0"
     inkscape:pageshadow="2"
     inkscape:pageopacity="0.0"
     inkscape:pagecheckerboard="0"
     showgrid="false"
     fit-margin-top="10"
     fit-margin-left="20"
     fit-margin-right="20"
     fit-margin-bottom="10"
     inkscape:zoom="1.1356887"
     inkscape:cx="241.2633"
     inkscape:cy="78.366545"
     inkscape:window-width="1920"
     inkscape:window-height="948"
     inkscape:window-x="0"
     inkscape:window-y="25"
     inkscape:window-maximized="0"
     inkscape:current-layer="svg2229" />
  <metadata
     id="metadata2009">
    <rdf:RDF>
      <cc:Work>
        <dc:type
           rdf:resource="http://purl.org/dc/dcmitype/StillImage" />
        <dc:date>2021-11-25T13:31:08.979091</dc:date>
        <dc:format>image/svg+xml</dc:format>
        <dc:creator>
          <cc:Agent>
            <dc:title>Matplotlib v3.4.3, https://matplotlib.org/</dc:title>
          </cc:Agent>
        </dc:creator>
      </cc:Work>
    </rdf:RDF>
  </metadata>
  <defs
     id="defs2013">
    <style
       type="text/css"
       id="style2011">*{stroke-linecap:butt;stroke-linejoin:round;}</style>
    <defs
       id="defs2087">
      <path
         id="DejaVuSans-32"
         transform="scale(0.015625)"
         d="M 1228,531 H 3431 V 0 H 469 v 531 q 359,372 979,998 621,627 780,809 303,340 423,576 121,236 121,464 0,372 -261,606 -261,235 -680,235 -297,0 -627,-103 -329,-103 -704,-313 v 638 q 381,153 712,231 332,78 607,78 725,0 1156,-363 431,-362 431,-968 0,-288 -108,-546 -107,-257 -392,-607 -78,-91 -497,-524 Q 1991,1309 1228,531 Z" />
    </defs>
    <defs
       id="defs2074">
      <path
         id="DejaVuSans-38"
         transform="scale(0.015625)"
         d="m 2034,2216 q -450,0 -708,-241 -257,-241 -257,-662 0,-422 257,-663 258,-241 708,-241 450,0 709,242 260,243 260,662 0,421 -258,662 -257,241 -711,241 z m -631,268 q -406,100 -633,378 -226,279 -226,679 0,559 398,884 399,325 1092,325 697,0 1094,-325 397,-325 397,-884 0,-400 -227,-679 -226,-278 -629,-378 456,-106 710,-416 255,-309 255,-755 Q 3634,634 3220,271 2806,-91 2034,-91 1263,-91 848,271 434,634 434,1313 q 0,446 256,755 257,310 713,416 z m -231,997 q 0,-362 226,-565 227,-203 636,-203 407,0 636,203 230,203 230,565 0,363 -230,566 -229,203 -636,203 -409,0 -636,-203 -226,-203 -226,-566 z" />
    </defs>
    <defs
       id="defs2127">
      <path
         id="DejaVuSans-48"
         transform="scale(0.015625)"
         d="m 628,4666 h 631 V 2753 h 2294 v 1913 h 631 V 0 H 3553 V 2222 H 1259 V 0 H 628 Z" />
      <path
         id="DejaVuSans-65"
         transform="scale(0.015625)"
         d="M 3597,1894 V 1613 H 953 q 38,-594 358,-905 320,-311 892,-311 331,0 642,81 311,81 618,244 V 178 Q 3153,47 2828,-22 2503,-91 2169,-91 1331,-91 842,396 353,884 353,1716 q 0,859 464,1363 464,505 1252,505 706,0 1117,-455 411,-454 411,-1235 z m -575,169 q -6,471 -264,752 -258,282 -683,282 -481,0 -770,-272 -289,-272 -333,-766 z" />
      <path
         id="DejaVuSans-69"
         transform="scale(0.015625)"
         d="m 603,3500 h 575 V 0 H 603 Z m 0,1363 h 575 V 4134 H 603 Z" />
      <path
         id="DejaVuSans-67"
         transform="scale(0.015625)"
         d="m 2906,1791 q 0,625 -258,968 -257,344 -723,344 -462,0 -720,-344 -258,-343 -258,-968 0,-622 258,-966 258,-344 720,-344 466,0 723,344 258,344 258,966 z M 3481,434 q 0,-893 -397,-1329 -396,-436 -1215,-436 -303,0 -572,45 -269,45 -522,139 v 559 q 253,-137 500,-202 247,-66 503,-66 566,0 847,295 281,295 281,892 V 616 Q 2728,306 2450,153 2172,0 1784,0 1141,0 747,490 353,981 353,1791 q 0,812 394,1302 394,491 1037,491 388,0 666,-153 278,-153 456,-462 v 531 h 575 z" />
      <path
         id="DejaVuSans-68"
         transform="scale(0.015625)"
         d="M 3513,2113 V 0 h -575 v 2094 q 0,497 -194,743 -194,247 -581,247 -466,0 -735,-297 -269,-296 -269,-809 V 0 H 581 v 4863 h 578 V 2956 q 207,316 486,472 280,156 646,156 603,0 912,-373 310,-373 310,-1098 z" />
      <path
         id="DejaVuSans-74"
         transform="scale(0.015625)"
         d="M 1172,4494 V 3500 H 2356 V 3053 H 1172 V 1153 q 0,-428 117,-550 117,-122 477,-122 h 590 V 0 H 1766 Q 1100,0 847,248 594,497 594,1153 V 3053 H 172 v 447 h 422 v 994 z" />
      <path
         id="DejaVuSans-28"
         transform="scale(0.015625)"
         d="m 1984,4856 q -418,-718 -622,-1422 -203,-703 -203,-1425 0,-721 205,-1429 205,-708 620,-1424 h -500 q -468,735 -701,1444 -233,709 -233,1409 0,697 231,1403 232,707 703,1444 z" />
      <path
         id="DejaVuSans-63"
         transform="scale(0.015625)"
         d="m 3122,3366 v -538 q -244,135 -489,202 -245,67 -495,67 -560,0 -870,-355 -309,-354 -309,-995 0,-641 309,-996 310,-354 870,-354 250,0 495,67 245,67 489,202 V 134 Q 2881,22 2623,-34 2366,-91 2075,-91 1284,-91 818,406 353,903 353,1747 q 0,856 470,1346 471,491 1290,491 265,0 518,-55 253,-54 491,-163 z" />
      <path
         id="DejaVuSans-6d"
         transform="scale(0.015625)"
         d="m 3328,2828 q 216,388 516,572 300,184 706,184 547,0 844,-383 297,-382 297,-1088 V 0 h -578 v 2094 q 0,503 -179,746 -178,244 -543,244 -447,0 -707,-297 -259,-296 -259,-809 V 0 h -578 v 2094 q 0,506 -178,748 -178,242 -550,242 -441,0 -701,-298 -259,-298 -259,-808 V 0 H 581 v 3500 h 578 v -544 q 197,322 472,475 275,153 653,153 382,0 649,-194 267,-193 395,-562 z" />
      <path
         id="DejaVuSans-29"
         transform="scale(0.015625)"
         d="m 513,4856 h 500 q 468,-737 701,-1444 233,-706 233,-1403 0,-700 -233,-1409 -233,-709 -701,-1444 H 513 q 415,716 620,1424 205,708 205,1429 0,722 -205,1425 -205,704 -620,1422 z" />
    </defs>
    <defs
       id="defs2048">
      <path
         id="DejaVuSans-31"
         transform="scale(0.015625)"
         d="M 794,531 H 1825 V 4091 L 703,3866 v 575 l 1116,225 h 631 V 531 H 3481 V 0 H 794 Z" />
      <path
         id="DejaVuSans-34"
         transform="scale(0.015625)"
         d="M 2419,4116 825,1625 h 1594 z m -166,550 h 794 V 1625 h 666 V 1100 H 3047 V 0 H 2419 V 1100 H 313 v 609 z" />
      <path
         id="DejaVuSans-30"
         transform="scale(0.015625)"
         d="m 2034,4250 q -487,0 -733,-480 -245,-479 -245,-1442 0,-959 245,-1439 246,-480 733,-480 491,0 736,480 246,480 246,1439 0,963 -246,1442 -245,480 -736,480 z m 0,500 q 785,0 1199,-621 414,-620 414,-1801 0,-1178 -414,-1799 -414,-620 -1199,-620 -784,0 -1198,620 -414,621 -414,1799 0,1181 414,1801 414,621 1198,621 z" />
    </defs>
    <defs
       id="defs2160">
      <path
         id="DejaVuSans-57"
         transform="scale(0.015625)"
         d="m 213,4666 h 637 l 981,-3944 978,3944 h 710 l 981,-3944 978,3944 h 641 L 4947,0 H 4153 L 3169,4050 2175,0 h -794 z" />
      <path
         id="DejaVuSans-6f"
         transform="scale(0.015625)"
         d="m 1959,3097 q -462,0 -731,-361 -269,-361 -269,-989 0,-628 267,-989 268,-361 733,-361 460,0 728,362 269,363 269,988 0,622 -269,986 -268,364 -728,364 z m 0,487 q 750,0 1178,-488 429,-487 429,-1349 Q 3566,888 3137,398 2709,-91 1959,-91 1206,-91 779,398 353,888 353,1747 q 0,862 426,1349 427,488 1180,488 z" />
      <path
         id="DejaVuSans-6e"
         transform="scale(0.015625)"
         d="M 3513,2113 V 0 h -575 v 2094 q 0,497 -194,743 -194,247 -581,247 -466,0 -735,-297 -269,-296 -269,-809 V 0 H 581 v 3500 h 578 v -544 q 207,316 486,472 280,156 646,156 603,0 912,-373 310,-373 310,-1098 z" />
    </defs>
    <defs
       id="defs2177">
      <path
         id="DejaVuSans-4d"
         transform="scale(0.015625)"
         d="m 628,4666 h 941 L 2759,1491 3956,4666 h 941 V 0 H 4281 V 4097 L 3078,897 H 2444 L 1241,4097 V 0 H 628 Z" />
    </defs>
    <defs
       id="defs2198">
      <path
         id="DejaVuSans-4e"
         transform="scale(0.015625)"
         d="m 628,4666 h 850 L 3547,763 v 3903 h 612 V 0 H 3309 L 1241,3903 V 0 H 628 Z" />
      <path
         id="DejaVuSans-42"
         transform="scale(0.015625)"
         d="M 1259,2228 V 519 h 1013 q 509,0 754,211 246,211 246,645 0,438 -246,645 -245,208 -754,208 z m 0,1919 V 2741 h 935 q 462,0 688,173 227,174 227,530 0,353 -227,528 -226,175 -688,175 z m -631,519 h 1613 q 722,0 1112,-300 391,-300 391,-853 0,-429 -200,-682 -200,-253 -588,-315 466,-100 724,-418 258,-317 258,-792 0,-625 -425,-966 Q 3088,0 2303,0 H 628 Z" />
      <path
         id="DejaVuSans-41"
         transform="scale(0.015625)"
         d="M 2188,4044 1331,1722 h 1716 z m -357,622 h 716 L 4325,0 H 3669 L 3244,1197 H 1141 L 716,0 H 50 Z" />
      <path
         id="DejaVuSans-70"
         transform="scale(0.015625)"
         d="M 1159,525 V -1331 H 581 v 4831 h 578 v -531 q 182,312 458,463 277,152 661,152 638,0 1036,-506 399,-506 399,-1331 0,-825 -399,-1332 -398,-506 -1036,-506 -384,0 -661,152 -276,152 -458,464 z m 1957,1222 q 0,634 -261,995 -261,361 -717,361 -457,0 -718,-361 -261,-361 -261,-995 0,-634 261,-995 261,-361 718,-361 456,0 717,361 261,361 261,995 z" />
      <path
         id="DejaVuSans-6c"
         transform="scale(0.015625)"
         d="m 603,4863 h 575 V 0 H 603 Z" />
      <path
         id="DejaVuSans-61"
         transform="scale(0.015625)"
         d="m 2194,1759 q -697,0 -966,-159 -269,-159 -269,-544 0,-306 202,-486 202,-179 548,-179 479,0 768,339 289,339 289,901 v 128 z m 1147,238 V 0 H 2766 V 531 Q 2569,213 2275,61 1981,-91 1556,-91 q -537,0 -855,302 -317,302 -317,808 0,590 395,890 396,300 1180,300 h 807 v 57 q 0,397 -261,614 -261,217 -733,217 -300,0 -585,-72 -284,-72 -546,-216 v 532 q 315,122 612,182 297,61 578,61 760,0 1135,-394 375,-393 375,-1193 z" />
      <path
         id="DejaVuSans-79"
         transform="scale(0.015625)"
         d="m 2059,-325 q -243,-625 -475,-815 -231,-191 -618,-191 H 506 v 481 h 338 q 237,0 368,113 132,112 291,531 L 1606,56 191,3500 H 800 L 1894,763 2988,3500 h 609 z" />
      <path
         id="DejaVuSans-72"
         transform="scale(0.015625)"
         d="m 2631,2963 q -97,56 -211,82 -114,27 -251,27 -488,0 -749,-317 -261,-317 -261,-911 V 0 H 581 v 3500 h 578 v -544 q 182,319 472,473 291,155 707,155 59,0 131,-8 72,-7 159,-23 z" />
      <path
         id="DejaVuSans-73"
         transform="scale(0.015625)"
         d="m 2834,3397 v -544 q -243,125 -506,187 -262,63 -544,63 -428,0 -642,-131 -214,-131 -214,-394 0,-200 153,-314 153,-114 616,-217 l 197,-44 q 612,-131 870,-370 258,-239 258,-667 0,-488 -386,-773 Q 2250,-91 1575,-91 1294,-91 989,-36 684,19 347,128 v 594 q 319,-166 628,-249 309,-82 613,-82 406,0 624,139 219,139 219,392 0,234 -158,359 -157,125 -692,241 l -200,47 q -534,112 -772,345 -237,233 -237,639 0,494 350,762 350,269 994,269 318,0 599,-47 282,-46 519,-140 z" />
    </defs>
    <defs
       id="defs2061">
      <path
         id="DejaVuSans-36"
         transform="scale(0.015625)"
         d="m 2113,2584 q -425,0 -674,-291 -248,-290 -248,-796 0,-503 248,-796 249,-292 674,-292 425,0 673,292 248,293 248,796 0,506 -248,796 -248,291 -673,291 z m 1253,1979 v -575 q -238,112 -480,171 -242,60 -480,60 -625,0 -955,-422 -329,-422 -376,-1275 184,272 462,417 279,145 613,145 703,0 1111,-427 408,-426 408,-1160 0,-719 -425,-1154 -425,-434 -1131,-434 -810,0 -1238,620 -428,621 -428,1799 0,1106 525,1764 525,658 1409,658 238,0 480,-47 242,-47 505,-140 z" />
    </defs>
  </defs>
  <path
     d="m -34,263.44 h 432 v -288 H -34 Z"
     fill="none"
     id="path2015" />
  <path
     d="M 20,227.44 H 354.8 V 10 H 20 Z"
     fill="#ffffff"
     id="path2017" />
  <defs
     id="defs2020">
    <path
       id="m4dbc7bb070"
       d="m 69.218,-36 v 3.7e-5 h 0.79354 0.79354 0.79354 0.79354 0.79354 0.79354 0.79354 0.79354 0.79354 0.79354 0.79354 0.79354 0.79354 0.79354 0.79354 0.79354 0.79354 0.79354 0.79354 0.79354 0.79354 0.79354 0.79354 0.79354 0.79354 0.79354 0.79354 0.79354 0.79354 0.79354 0.79354 0.79354 0.79354 0.79354 0.79354 0.79354 0.79354 0.79354 0.79354 0.79354 0.79354 0.79354 0.79354 0.79354 0.79354 0.79354 0.79354 0.79354 0.79354 0.79354 0.79354 0.79354 0.79354 0.79354 0.79354 0.79354 0.79354 0.79354 0.79354 0.79354 0.79354 0.79354 0.79354 0.79354 0.79354 0.79354 0.79354 0.79354 0.79354 0.79354 0.79354 0.79354 0.79354 0.79354 0.79354 0.79354 0.79354 0.79354 0.79354 0.79354 0.79354 0.79354 0.79354 0.79354 0.79354 0.79354 0.79354 0.79354 0.79354 0.79354 0.79354 0.79354 0.79354 0.79354 0.79354 0.79354 0.79354 0.79354 0.79354 0.79354 0.79354 0.79354 0.79354 0.79354 0.79354 0.79354 0.79354 0.79354 0.79354 0.79354 0.79354 0.79354 0.79354 0.79354 0.79354 0.79354 0.79354 0.79354 0.79354 0.79354 0.79354 0.79354 0.79354 0.79354 0.79354 0.79354 0.79354 0.79354 0.79354 0.79354 0.79354 0.79354 0.79354 0.79354 0.79354 0.79354 0.79354 0.79354 0.79354 0.79354 0.79354 0.79354 0.79354 0.79354 0.79354 0.79354 0.79354 0.79354 0.79354 0.79354 0.79354 0.79354 0.79354 0.79354 0.79354 0.79354 0.79354 0.79354 0.79354 0.79354 0.79354 0.79354 0.79354 0.79354 0.79354 0.79354 0.79354 0.79354 0.79354 0.79354 0.79354 0.79354 0.79354 0.79354 0.79354 0.79354 0.79354 0.79354 0.79354 0.79354 0.79354 0.79354 0.79354 0.79354 0.79354 0.79354 0.79354 0.79354 0.79354 0.79354 0.79354 0.79354 0.79354 0.79354 0.79354 0.79354 0.79354 0.79354 0.79354 v -5.3e-5 l -0.79354,-3.93e-4 -0.79354,-0.0016 -0.79354,-0.0034 -0.79354,-0.0034 -0.79354,-0.0018 -0.79354,-8.82e-4 -0.79354,-0.0015 -0.79354,-0.0048 -0.79354,-0.0099 -0.79354,-0.01013 -0.79354,-0.0028 -0.79354,0.0016 -0.79354,-0.0057 -0.79354,-0.01596 -0.79354,-0.01276 -0.79354,-0.0013 -0.79354,-0.0016 -0.79354,-0.0146 -0.79354,-0.02342 -0.79354,-0.0298 -0.79354,-0.04247 -0.79354,-0.05462 -0.79354,-0.06345 -0.79354,-0.08216 -0.79354,-0.11617 -0.79354,-0.12446 -0.79354,-0.09094 -0.79354,-0.0688 -0.79354,-0.08805 -0.79354,-0.12671 -0.79354,-0.15771 -0.79354,-0.17318 -0.79354,-0.20007 -0.79354,-0.25719 -0.79354,-0.31239 -0.79354,-0.36156 -0.79354,-0.41282 -0.79354,-0.47156 -0.79354,-0.55042 -0.79354,-0.60251 -0.79354,-0.62718 -0.79354,-0.7014 -0.79354,-0.79915 -0.79354,-0.9188 -0.79354,-1.1417 -0.79354,-1.3513 -0.79354,-1.3563 -0.79354,-1.3314 -0.79354,-1.5356 -0.79354,-1.7924 -0.79354,-1.8941 -0.79354,-1.9893 -0.79354,-2.1849 -0.79354,-2.4028 -0.79354,-2.6332 -0.79354,-2.8315 -0.79354,-3.0102 -0.79354,-3.3183 -0.79354,-3.7584 -0.79354,-4.0238 -0.79354,-3.9463 -0.79354,-3.8886 -0.79354,-4.1516 -0.79354,-4.5556 -0.79354,-4.867499 -0.79354,-5.0408 -0.79354,-5.1284 -0.79354,-5.2931 -0.79354,-5.6466 -0.79354,-5.9412 -0.79354,-5.902 -0.79354,-5.6975 -0.79354,-5.6603 -0.79354,-5.9817 -0.79354,-6.3845 -0.79354,-6.5641 -0.79354,-6.5896 -0.79354,-6.5116 -0.79354,-6.4177 -0.79354,-6.3082 -0.79354,-5.8294 -0.79354,-5.2321 -0.79354,-5.1935 -0.79354,-5.389 -0.79354,-5.194 -0.79354,-4.6068 -0.79354,-4.0278 -0.79354,-3.7845 -0.79354,-3.5561 -0.79354,-2.8649 -0.79354,-2.1688 -0.79354,-1.945 -0.79354,-1.6561 -0.79354,-0.8851 -0.79354,-0.17233 -0.79354,0.014 -0.79354,0.0701 -0.79354,0.526 -0.79354,1.4732 -0.79354,2.4831 -0.79354,2.9466 -0.79354,2.9334 -0.79354,2.9272 -0.79354,3.1914 -0.79354,3.8681 -0.79354,4.6222 -0.79354,5.0214 -0.79354,5.1893 -0.79354,5.6279 -0.79354,6.0687 -0.79354,5.9812 -0.79354,5.7669 -0.79354,5.8545 -0.79354,6.0443 -0.79354,6.1198 -0.79354,6.0566 -0.79354,6.0021 -0.79354,6.2187 -0.79354,6.4651 -0.79354,6.2906 -0.79354,5.9158 -0.79354,5.7001 -0.79354,5.5994 -0.79354,5.3998 -0.79354,5.0284 -0.79354,4.6898 -0.79354,4.669099 -0.79354,4.8182 -0.79354,4.7711 -0.79354,4.3966 -0.79354,3.888 -0.79354,3.6595 -0.79354,3.6726 -0.79354,3.5762 -0.79354,3.3281 -0.79354,3.0494 -0.79354,2.7262 -0.79354,2.2783 -0.79354,1.8759 -0.79354,1.7902 -0.79354,1.8915 -0.79354,1.9273 -0.79354,1.8329 -0.79354,1.5979 -0.79354,1.3069 -0.79354,1.0943 -0.79354,0.98644 -0.79354,0.9264 -0.79354,0.8651 -0.79354,0.76945 -0.79354,0.65528 -0.79354,0.54522 -0.79354,0.4437 -0.79354,0.41371 -0.79354,0.47363 -0.79354,0.48637 -0.79354,0.36743 -0.79354,0.22542 -0.79354,0.15925 -0.79354,0.16384 -0.79354,0.18698 -0.79354,0.1879 -0.79354,0.18282 -0.79354,0.17147 -0.79354,0.1283 -0.79354,0.08027 -0.79354,0.0662 -0.79354,0.06888 -0.79354,0.05509 -0.79354,0.03528 -0.79354,0.02872 -0.79354,0.02864 -0.79354,0.02139 -0.79354,0.01112 -0.79354,0.0084 -0.79354,0.01162 -0.79354,0.01382 -0.79354,0.01635 -0.79354,0.01819 -0.79354,0.01161 -0.79354,-4.02e-4 -0.79354,-0.0064 -0.79354,-0.001 -0.79354,0.0082 -0.79354,0.01028 -0.79354,0.0065 -0.79354,0.0028 -0.79354,7.81e-4 -0.79354,4.05e-4 -0.79354,1.03e-4 -0.79354,3.59e-4 -0.79354,0.0013 -0.79354,7.81e-4 -0.79354,-8.14e-4 -0.79354,-10e-4 -0.79354,5.69e-4 -0.79354,0.0015 -0.79354,9.14e-4 -0.79354,2.5e-4 z"
       stroke="#008000" />
  </defs>
  <use
     y="288"
     fill="#008000"
     fill-opacity="0.25"
     stroke="#008000"
     xlink:href="#m4dbc7bb070"
     id="use2022"
     x="0"
     width="100%"
     height="100%"
     transform="translate(-34,-24.56)" />
  <defs
     id="defs2027">
    <path
       id="m261f8ef3a6"
       d="m 93.575,-36 v 3.1e-5 h 0.90163 0.90163 0.90163 0.90163 0.90163 0.90163 0.90163 0.90163 0.90163 0.90163 0.90163 0.90163 0.90163 0.90163 0.90163 0.90163 0.90163 0.90163 0.90163 0.90163 0.90163 0.90163 0.90163 0.90163 0.90163 0.90163 0.90163 0.90163 0.90163 0.90163 0.90163 0.90163 0.90163 0.90163 0.90163 0.90163 0.90163 0.90163 0.90163 0.90163 0.90163 0.90163 0.90163 0.90163 0.90163 0.90163 0.90163 0.90163 0.90163 0.90163 0.90163 0.90163 0.90163 0.90163 0.90163 0.90163 0.90163 0.90163 0.90163 0.90163 0.90163 0.90163 0.90163 0.90163 0.90163 0.90163 0.90163 0.90163 0.90163 0.90163 0.90163 0.90163 0.90163 0.90163 0.90163 0.90163 0.90163 0.90163 0.90163 0.90163 0.90163 0.90163 0.90163 0.90163 0.90163 0.90163 0.90163 0.90163 0.90163 0.90163 0.90163 0.90163 0.90163 0.90163 0.90163 0.90163 0.90163 0.90163 0.90163 0.90163 0.90163 0.90163 0.90163 0.90163 0.90163 0.90163 0.90163 0.90163 0.90163 0.90163 0.90163 0.90163 0.90163 0.90163 0.90163 0.90163 0.90163 0.90163 0.90163 0.90163 0.90163 0.90163 0.90163 0.90163 0.90163 0.90163 0.90163 0.90163 0.90163 0.90163 0.90163 0.90163 0.90163 0.90163 0.90163 0.90163 0.90163 0.90163 0.90163 0.90163 0.90163 0.90163 0.90163 0.90163 0.90163 0.90163 0.90163 0.90163 0.90163 0.90163 0.90163 0.90163 0.90163 0.90163 0.90163 0.90163 0.90163 0.90163 0.90163 0.90163 0.90163 0.90163 0.90163 0.90163 0.90163 0.90163 0.90163 0.90163 0.90163 0.90163 0.90163 0.90163 0.90163 0.90163 0.90163 0.90163 0.90163 0.90163 0.90163 0.90163 0.90163 0.90163 0.90163 0.90163 0.90163 0.90163 0.90163 0.90163 0.90163 0.90163 0.90163 0.90163 0.90163 0.90163 0.90163 0.90163 0.90163 0.90163 0.90163 v -3.8e-5 l -0.90163,-2.87e-4 -0.90163,-0.0013 -0.90163,-0.0034 -0.90163,-0.0047 -0.90163,-0.0026 -0.90163,0.0014 -0.90163,0.0027 -0.90163,0.0014 -0.90163,8.55e-4 -0.90163,4.05e-4 -0.90163,-0.0026 -0.90163,-0.0058 -0.90163,-0.0075 -0.90163,-0.01196 -0.90163,-0.01684 -0.90163,-0.01426 -0.90163,-0.0074 -0.90163,-0.0015 -0.90163,-0.0017 -0.90163,-0.01425 -0.90163,-0.02779 -0.90163,-0.03498 -0.90163,-0.04217 -0.90163,-0.04388 -0.90163,-0.03996 -0.90163,-0.03928 -0.90163,-0.04126 -0.90163,-0.04191 -0.90163,-0.04087 -0.90163,-0.05689 -0.90163,-0.10588 -0.90163,-0.15965 -0.90163,-0.18542 -0.90163,-0.19524 -0.90163,-0.20517 -0.90163,-0.21741 -0.90163,-0.2343 -0.90163,-0.25952 -0.90163,-0.27751 -0.90163,-0.2956 -0.90163,-0.37461 -0.90163,-0.50094 -0.90163,-0.59831 -0.90163,-0.6245 -0.90163,-0.60344 -0.90163,-0.62618 -0.90163,-0.7255 -0.90163,-0.87011 -0.90163,-1.0532 -0.90163,-1.2245 -0.90163,-1.3131 -0.90163,-1.3483 -0.90163,-1.4039 -0.90163,-1.5342 -0.90163,-1.7322 -0.90163,-1.9495 -0.90163,-2.1318 -0.90163,-2.2254 -0.90163,-2.3136 -0.90163,-2.4622 -0.90163,-2.6075 -0.90163,-2.8314 -0.90163,-3.2271 -0.90163,-3.4892 -0.90163,-3.4277 -0.90163,-3.4196 -0.90163,-3.6841 -0.90163,-4.0162 -0.90163,-4.2194 -0.90163,-4.3563 -0.90163,-4.609396 -0.90163,-4.7574 -0.90163,-4.6647 -0.90163,-4.775 -0.90163,-5.0639 -0.90163,-5.1329 -0.90163,-5.1065 -0.90163,-5.0188 -0.90163,-4.8985 -0.90163,-4.9546 -0.90163,-5.1252 -0.90163,-5.4049 -0.90163,-5.6421 -0.90163,-5.4626 -0.90163,-4.9997 -0.90163,-4.5632 -0.90163,-4.1104 -0.90163,-3.7223 -0.90163,-3.7073 -0.90163,-3.9535 -0.90163,-3.8539 -0.90163,-3.4103 -0.90163,-2.9774 -0.90163,-2.4274 -0.90163,-1.8537 -0.90163,-1.4464 -0.90163,-1.0937 -0.90163,-0.83636 -0.90163,-0.67579 -0.90163,-0.25354 -0.90163,0.37716 -0.90163,0.53375 -0.90163,0.57956 -0.90163,1.4635 -0.90163,2.5641 -0.90163,2.8709 -0.90163,2.5869 -0.90163,2.5831 -0.90163,3.2149 -0.90163,3.7599 -0.90163,3.906 -0.90163,4.0728 -0.90163,4.445 -0.90163,4.7914 -0.90163,4.9038 -0.90163,4.9753 -0.90163,5.2039 -0.90163,5.3904 -0.90163,5.2803 -0.90163,4.9563 -0.90163,4.8013 -0.90163,5.028 -0.90163,5.3458 -0.90163,5.4377 -0.90163,5.3295 -0.90163,5.0834 -0.90163,4.6869 -0.90163,4.3249 -0.90163,4.2547 -0.90163,4.414096 -0.90163,4.4764 -0.90163,4.2004 -0.90163,3.8392 -0.90163,3.7434 -0.90163,3.6647 -0.90163,3.3644 -0.90163,3.0753 -0.90163,2.9187 -0.90163,2.8013 -0.90163,2.6284 -0.90163,2.381 -0.90163,2.162 -0.90163,2.0359 -0.90163,1.8921 -0.90163,1.6262 -0.90163,1.3878 -0.90163,1.395 -0.90163,1.5288 -0.90163,1.4507 -0.90163,1.1889 -0.90163,1.0038 -0.90163,0.91027 -0.90163,0.83795 -0.90163,0.80502 -0.90163,0.76454 -0.90163,0.63576 -0.90163,0.49162 -0.90163,0.41156 -0.90163,0.38269 -0.90163,0.35881 -0.90163,0.30604 -0.90163,0.27195 -0.90163,0.27691 -0.90163,0.2558 -0.90163,0.19766 -0.90163,0.16174 -0.90163,0.15445 -0.90163,0.13597 -0.90163,0.10918 -0.90163,0.09266 -0.90163,0.08888 -0.90163,0.08321 -0.90163,0.07197 -0.90163,0.0605 -0.90163,0.04128 -0.90163,0.01895 -0.90163,0.0093 -0.90163,0.01419 -0.90163,0.0252 -0.90163,0.0289 -0.90163,0.01635 -0.90163,0.0021 -0.90163,0.0034 -0.90163,0.01203 -0.90163,0.01517 -0.90163,0.01408 -0.90163,0.01086 -0.90163,0.0051 -0.90163,0.0011 -0.90163,0.0023 -0.90163,0.005 -0.90163,0.0049 -0.90163,0.0022 -0.90163,-3.02e-4 -0.90163,-6.76e-4 -0.90163,6.11e-4 -0.90163,0.0013 -0.90163,7.39e-4 -0.90163,2.04e-4 z"
       stroke="#ff0000" />
  </defs>
  <use
     y="288"
     fill="#ff0000"
     fill-opacity="0.25"
     stroke="#ff0000"
     xlink:href="#m261f8ef3a6"
     id="use2029"
     x="0"
     width="100%"
     height="100%"
     transform="translate(-34,-24.56)" />
  <defs
     id="defs2034">
    <path
       id="m001240224a"
       d="m 123.22,-36.002 v 0.0016 h 1.2581 1.2581 1.2581 1.2581 1.2581 1.2581 1.2581 1.2581 1.2581 1.2581 1.2581 1.2581 1.2581 1.2581 1.2581 1.2581 1.2581 1.2581 1.2581 1.2581 1.2581 1.2581 1.2581 1.2581 1.2581 1.2581 1.2581 1.2581 1.2581 1.2581 1.2581 1.2581 1.2581 1.2581 1.2581 1.2581 1.2581 1.2581 1.2581 1.2581 1.2581 1.2581 1.2581 1.2581 1.2581 1.2581 1.2581 1.2581 1.2581 1.2581 1.2581 1.2581 1.2581 1.2581 1.2581 1.2581 1.2581 1.2581 1.2581 1.2581 1.2581 1.2581 1.2581 1.2581 1.2581 1.2581 1.2581 1.2581 1.2581 1.2581 1.2581 1.2581 1.2581 1.2581 1.2581 1.2581 1.2581 1.2581 1.2581 1.2581 1.2581 1.2581 1.2581 1.2581 1.2581 1.2581 1.2581 1.2581 1.2581 1.2581 1.2581 1.2581 1.2581 1.2581 1.2581 1.2581 1.2581 1.2581 1.2581 1.2581 1.2581 1.2581 1.2581 1.2581 1.2581 1.2581 1.2581 1.2581 1.2581 1.2581 1.2581 1.2581 1.2581 1.2581 1.2581 1.2581 1.2581 1.2581 1.2581 1.2581 1.2581 1.2581 1.2581 1.2581 1.2581 1.2581 1.2581 1.2581 1.2581 1.2581 1.2581 1.2581 1.2581 1.2581 1.2581 1.2581 1.2581 1.2581 1.2581 1.2581 1.2581 1.2581 1.2581 1.2581 1.2581 1.2581 1.2581 1.2581 1.2581 1.2581 1.2581 1.2581 1.2581 1.2581 1.2581 1.2581 1.2581 1.2581 1.2581 1.2581 1.2581 1.2581 1.2581 1.2581 1.2581 1.2581 1.2581 1.2581 1.2581 1.2581 1.2581 1.2581 1.2581 1.2581 1.2581 1.2581 1.2581 1.2581 1.2581 1.2581 1.2581 1.2581 1.2581 1.2581 1.2581 1.2581 1.2581 1.2581 1.2581 1.2581 1.2581 1.2581 1.2581 1.2581 1.2581 1.2581 1.2581 1.2581 1.2581 v -0.0019 l -1.2581,-8.72e-4 -1.2581,-0.0012 -1.2581,-0.0017 -1.2581,-0.0023 -1.2581,-0.0031 -1.2581,-0.0041 -1.2581,-0.0053 -1.2581,-0.0068 -1.2581,-0.0087 -1.2581,-0.01093 -1.2581,-0.01355 -1.2581,-0.01659 -1.2581,-0.02005 -1.2581,-0.02396 -1.2581,-0.02829 -1.2581,-0.03304 -1.2581,-0.03816 -1.2581,-0.04361 -1.2581,-0.04935 -1.2581,-0.05534 -1.2581,-0.06152 -1.2581,-0.06788 -1.2581,-0.07442 -1.2581,-0.08117 -1.2581,-0.08822 -1.2581,-0.09571 -1.2581,-0.10386 -1.2581,-0.11296 -1.2581,-0.12338 -1.2581,-0.13557 -1.2581,-0.15008 -1.2581,-0.16753 -1.2581,-0.18863 -1.2581,-0.21416 -1.2581,-0.24499 -1.2581,-0.28204 -1.2581,-0.32633 -1.2581,-0.37895 -1.2581,-0.44109 -1.2581,-0.51402 -1.2581,-0.59906 -1.2581,-0.69759 -1.2581,-0.81101 -1.2581,-0.94062 -1.2581,-1.0876 -1.2581,-1.2528 -1.2581,-1.4366 -1.2581,-1.6391 -1.2581,-1.8595 -1.2581,-2.0963 -1.2581,-2.347 -1.2581,-2.6083 -1.2581,-2.8762 -1.2581,-3.1458 -1.2581,-3.4115 -1.2581,-3.6677 -1.2581,-3.9084 -1.2581,-4.1277 -1.2581,-4.3203 -1.2581,-4.4815 -1.2581,-4.6073 -1.2581,-4.6947 -1.2581,-4.741598 -1.2581,-4.7468 -1.2581,-4.7101 -1.2581,-4.632 -1.2581,-4.5137 -1.2581,-4.357 -1.2581,-4.164 -1.2581,-3.9376 -1.2581,-3.681 -1.2581,-3.398 -1.2581,-3.0927 -1.2581,-2.77 -1.2581,-2.4351 -1.2581,-2.0936 -1.2581,-1.7513 -1.2581,-1.4143 -1.2581,-1.0882 -1.2581,-0.77826 -1.2581,-0.48905 -1.2581,-0.22411 -1.2581,0.0142 -1.2581,0.2247 -1.2581,0.40768 -1.2581,0.56458 -1.2581,0.69794 -1.2581,0.81121 -1.2581,0.90844 -1.2581,0.99399 -1.2581,1.0722 -1.2581,1.1473 -1.2581,1.2227 -1.2581,1.3013 -1.2581,1.3852 -1.2581,1.4755 -1.2581,1.5726 -1.2581,1.6759 -1.2581,1.7842 -1.2581,1.896 -1.2581,2.0092 -1.2581,2.1218 -1.2581,2.2318 -1.2581,2.3372 -1.2581,2.4364 -1.2581,2.5282 -1.2581,2.6117 -1.2581,2.6862 -1.2581,2.7515 -1.2581,2.8075 -1.2581,2.8543 -1.2581,2.892 -1.2581,2.9208 -1.2581,2.9409 -1.2581,2.9523 -1.2581,2.9552 -1.2581,2.9493 -1.2581,2.9347 -1.2581,2.9112 -1.2581,2.8785 -1.2581,2.8365 -1.2581,2.7851 -1.2581,2.7242 -1.2581,2.6541 -1.2581,2.575 -1.2581,2.4875 -1.2581,2.3923 -1.2581,2.2904 -1.2581,2.183 -1.2581,2.0713 -1.2581,1.9569 -1.2581,1.841 -1.2581,1.7251 -1.2581,1.6105 -1.2581,1.4982 -1.2581,1.3891 -1.2581,1.2839 -1.2581,1.183 -1.2581,1.0867 -1.2581,0.9949 -1.2581,0.90761 -1.2581,0.82465 -1.2581,0.74584 -1.2581,0.671 -1.2581,0.60002 -1.2581,0.53285 -1.2581,0.46951 -1.2581,0.41007 -1.2581,0.35469 -1.2581,0.30351 -1.2581,0.25671 -1.2581,0.2144 -1.2581,0.17667 -1.2581,0.14353 -1.2581,0.11489 -1.2581,0.0906 -1.2581,0.0704 -1.2581,0.05399 -1.2581,0.04098 -1.2581,0.03095 -1.2581,0.02348 -1.2581,0.01813 -1.2581,0.01449 -1.2581,0.01218 -1.2581,0.01087 -1.2581,0.01027 -1.2581,0.01018 -1.2581,0.01041 -1.2581,0.01084 -1.2581,0.01139 -1.2581,0.012 -1.2581,0.01262 -1.2581,0.01324 -1.2581,0.01383 -1.2581,0.01437 -1.2581,0.01483 -1.2581,0.01518 -2.5162,0.03083 -1.2581,0.01531 -1.2581,0.01499 -1.2581,0.01447 -1.2581,0.01376 -1.2581,0.0129 -1.2581,0.01189 -1.2581,0.0108 -1.2581,0.0096 -1.2581,0.0085 -1.2581,0.0073 -1.2581,0.0062 -1.2581,0.0052 -1.2581,0.0043 -1.2581,0.0034 -1.2581,0.0027 -1.2581,0.0021 -1.2581,0.0016 -1.2581,0.0012 -1.2581,9.25e-4 -1.2581,6.77e-4 z"
       stroke="#0000ff" />
  </defs>
  <use
     y="288"
     fill="#0000ff"
     fill-opacity="0.25"
     stroke="#0000ff"
     xlink:href="#m001240224a"
     id="use2036"
     x="0"
     width="100%"
     height="100%"
     transform="translate(-34,-24.56)" />
  <defs
     id="defs2041">
    <path
       id="m5f09563982"
       d="M 0,0 V 3.5"
       stroke="#000000"
       stroke-width="0.8" />
  </defs>
  <use
     x="100.85335"
     y="252"
     stroke="#000000"
     stroke-width="0.8"
     xlink:href="#m5f09563982"
     id="use2043"
     width="100%"
     height="100%"
     transform="translate(-34,-24.56)" />
  <!-- 140 -->
  <use
     xlink:href="#DejaVuSans-31"
     id="use2050"
     transform="matrix(0.1,0,0,-0.1,57.31,242.04)"
     x="0"
     y="0"
     width="100%"
     height="100%" />
  <use
     x="63.623047"
     xlink:href="#DejaVuSans-34"
     id="use2052"
     transform="matrix(0.1,0,0,-0.1,57.31,242.04)"
     y="0"
     width="100%"
     height="100%" />
  <use
     x="127.24609"
     xlink:href="#DejaVuSans-30"
     id="use2054"
     transform="matrix(0.1,0,0,-0.1,57.31,242.04)"
     y="0"
     width="100%"
     height="100%" />
  <use
     x="153.94643"
     y="252"
     stroke="#000000"
     stroke-width="0.8"
     xlink:href="#m5f09563982"
     id="use2058"
     width="100%"
     height="100%"
     transform="translate(-34,-24.56)" />
  <!-- 160 -->
  <use
     xlink:href="#DejaVuSans-31"
     id="use2063"
     transform="matrix(0.1,0,0,-0.1,110.4,242.04)"
     x="0"
     y="0"
     width="100%"
     height="100%" />
  <use
     x="63.623047"
     xlink:href="#DejaVuSans-36"
     id="use2065"
     transform="matrix(0.1,0,0,-0.1,110.4,242.04)"
     y="0"
     width="100%"
     height="100%" />
  <use
     x="127.24609"
     xlink:href="#DejaVuSans-30"
     id="use2067"
     transform="matrix(0.1,0,0,-0.1,110.4,242.04)"
     y="0"
     width="100%"
     height="100%" />
  <use
     x="207.03951"
     y="252"
     stroke="#000000"
     stroke-width="0.8"
     xlink:href="#m5f09563982"
     id="use2071"
     width="100%"
     height="100%"
     transform="translate(-34,-24.56)" />
  <!-- 180 -->
  <use
     xlink:href="#DejaVuSans-31"
     id="use2076"
     transform="matrix(0.1,0,0,-0.1,163.5,242.04)"
     x="0"
     y="0"
     width="100%"
     height="100%" />
  <use
     x="63.623047"
     xlink:href="#DejaVuSans-38"
     id="use2078"
     transform="matrix(0.1,0,0,-0.1,163.5,242.04)"
     y="0"
     width="100%"
     height="100%" />
  <use
     x="127.24609"
     xlink:href="#DejaVuSans-30"
     id="use2080"
     transform="matrix(0.1,0,0,-0.1,163.5,242.04)"
     y="0"
     width="100%"
     height="100%" />
  <use
     x="260.13257"
     y="252"
     stroke="#000000"
     stroke-width="0.8"
     xlink:href="#m5f09563982"
     id="use2084"
     width="100%"
     height="100%"
     transform="translate(-34,-24.56)" />
  <!-- 200 -->
  <use
     xlink:href="#DejaVuSans-32"
     id="use2089"
     transform="matrix(0.1,0,0,-0.1,216.59,242.04)"
     x="0"
     y="0"
     width="100%"
     height="100%" />
  <use
     x="63.623047"
     xlink:href="#DejaVuSans-30"
     id="use2091"
     transform="matrix(0.1,0,0,-0.1,216.59,242.04)"
     y="0"
     width="100%"
     height="100%" />
  <use
     x="127.24609"
     xlink:href="#DejaVuSans-30"
     id="use2093"
     transform="matrix(0.1,0,0,-0.1,216.59,242.04)"
     y="0"
     width="100%"
     height="100%" />
  <use
     x="313.22565"
     y="252"
     stroke="#000000"
     stroke-width="0.8"
     xlink:href="#m5f09563982"
     id="use2097"
     width="100%"
     height="100%"
     transform="translate(-34,-24.56)" />
  <!-- 220 -->
  <use
     xlink:href="#DejaVuSans-32"
     id="use2099"
     transform="matrix(0.1,0,0,-0.1,269.68,242.04)"
     x="0"
     y="0"
     width="100%"
     height="100%" />
  <use
     x="63.623047"
     xlink:href="#DejaVuSans-32"
     id="use2101"
     transform="matrix(0.1,0,0,-0.1,269.68,242.04)"
     y="0"
     width="100%"
     height="100%" />
  <use
     x="127.24609"
     xlink:href="#DejaVuSans-30"
     id="use2103"
     transform="matrix(0.1,0,0,-0.1,269.68,242.04)"
     y="0"
     width="100%"
     height="100%" />
  <use
     x="366.31873"
     y="252"
     stroke="#000000"
     stroke-width="0.8"
     xlink:href="#m5f09563982"
     id="use2107"
     width="100%"
     height="100%"
     transform="translate(-34,-24.56)" />
  <!-- 240 -->
  <use
     xlink:href="#DejaVuSans-32"
     id="use2109"
     transform="matrix(0.1,0,0,-0.1,322.77,242.04)"
     x="0"
     y="0"
     width="100%"
     height="100%" />
  <use
     x="63.623047"
     xlink:href="#DejaVuSans-34"
     id="use2111"
     transform="matrix(0.1,0,0,-0.1,322.77,242.04)"
     y="0"
     width="100%"
     height="100%" />
  <use
     x="127.24609"
     xlink:href="#DejaVuSans-30"
     id="use2113"
     transform="matrix(0.1,0,0,-0.1,322.77,242.04)"
     y="0"
     width="100%"
     height="100%" />
  <!-- Height (cm) -->
  <use
     xlink:href="#DejaVuSans-48"
     id="use2129"
     transform="matrix(0.1,0,0,-0.1,157.76,255.72)"
     x="0"
     y="0"
     width="100%"
     height="100%" />
  <use
     x="75.195312"
     xlink:href="#DejaVuSans-65"
     id="use2131"
     transform="matrix(0.1,0,0,-0.1,157.76,255.72)"
     y="0"
     width="100%"
     height="100%" />
  <use
     x="136.71875"
     xlink:href="#DejaVuSans-69"
     id="use2133"
     transform="matrix(0.1,0,0,-0.1,157.76,255.72)"
     y="0"
     width="100%"
     height="100%" />
  <use
     x="164.50195"
     xlink:href="#DejaVuSans-67"
     id="use2135"
     transform="matrix(0.1,0,0,-0.1,157.76,255.72)"
     y="0"
     width="100%"
     height="100%" />
  <use
     x="227.97852"
     xlink:href="#DejaVuSans-68"
     id="use2137"
     transform="matrix(0.1,0,0,-0.1,157.76,255.72)"
     y="0"
     width="100%"
     height="100%" />
  <use
     x="291.35742"
     xlink:href="#DejaVuSans-74"
     id="use2139"
     transform="matrix(0.1,0,0,-0.1,157.76,255.72)"
     y="0"
     width="100%"
     height="100%" />
  <use
     x="330.56641"
     xlink:href="#DejaVuSans-20"
     id="use2141"
     transform="matrix(0.1,0,0,-0.1,157.76,255.72)"
     y="0"
     width="100%"
     height="100%" />
  <use
     x="362.35352"
     xlink:href="#DejaVuSans-28"
     id="use2143"
     transform="matrix(0.1,0,0,-0.1,157.76,255.72)"
     y="0"
     width="100%"
     height="100%" />
  <use
     x="401.36719"
     xlink:href="#DejaVuSans-63"
     id="use2145"
     transform="matrix(0.1,0,0,-0.1,157.76,255.72)"
     y="0"
     width="100%"
     height="100%" />
  <use
     x="456.34766"
     xlink:href="#DejaVuSans-6d"
     id="use2147"
     transform="matrix(0.1,0,0,-0.1,157.76,255.72)"
     y="0"
     width="100%"
     height="100%" />
  <use
     x="553.75977"
     xlink:href="#DejaVuSans-29"
     id="use2149"
     transform="matrix(0.1,0,0,-0.1,157.76,255.72)"
     y="0"
     width="100%"
     height="100%" />
  <path
     d="M 20,227.44 H 354.8"
     fill="none"
     stroke="#000000"
     stroke-linecap="square"
     stroke-width="0.8"
     id="path2153" />
  <path
     d="m 256.79,26.598 h 20 v -7 h -20 z"
     fill="#008000"
     fill-opacity="0.25"
     stroke="#008000"
     id="path2155" />
  <!-- Women -->
  <use
     xlink:href="#DejaVuSans-57"
     id="use2162"
     transform="matrix(0.1,0,0,-0.1,284.79,26.598)"
     x="0"
     y="0"
     width="100%"
     height="100%" />
  <use
     x="93.001953"
     xlink:href="#DejaVuSans-6f"
     id="use2164"
     transform="matrix(0.1,0,0,-0.1,284.79,26.598)"
     y="0"
     width="100%"
     height="100%" />
  <use
     x="154.18359"
     xlink:href="#DejaVuSans-6d"
     id="use2166"
     transform="matrix(0.1,0,0,-0.1,284.79,26.598)"
     y="0"
     width="100%"
     height="100%" />
  <use
     x="251.5957"
     xlink:href="#DejaVuSans-65"
     id="use2168"
     transform="matrix(0.1,0,0,-0.1,284.79,26.598)"
     y="0"
     width="100%"
     height="100%" />
  <use
     x="313.11914"
     xlink:href="#DejaVuSans-6e"
     id="use2170"
     transform="matrix(0.1,0,0,-0.1,284.79,26.598)"
     y="0"
     width="100%"
     height="100%" />
  <path
     d="m 256.79,41.277 h 20 v -7 h -20 z"
     fill="#ff0000"
     fill-opacity="0.25"
     stroke="#ff0000"
     id="path2174" />
  <!-- Men -->
  <use
     xlink:href="#DejaVuSans-4d"
     id="use2179"
     transform="matrix(0.1,0,0,-0.1,284.79,41.277)"
     x="0"
     y="0"
     width="100%"
     height="100%" />
  <use
     x="86.279297"
     xlink:href="#DejaVuSans-65"
     id="use2181"
     transform="matrix(0.1,0,0,-0.1,284.79,41.277)"
     y="0"
     width="100%"
     height="100%" />
  <use
     x="147.80273"
     xlink:href="#DejaVuSans-6e"
     id="use2183"
     transform="matrix(0.1,0,0,-0.1,284.79,41.277)"
     y="0"
     width="100%"
     height="100%" />
  <path
     d="m 256.79,55.955 h 20 v -7 h -20 z"
     fill="#0000ff"
     fill-opacity="0.25"
     stroke="#0000ff"
     id="path2187" />
  <!-- NBA players -->
  <use
     xlink:href="#DejaVuSans-4e"
     id="use2200"
     transform="matrix(0.1,0,0,-0.1,284.79,55.955)"
     x="0"
     y="0"
     width="100%"
     height="100%" />
  <use
     x="74.804688"
     xlink:href="#DejaVuSans-42"
     id="use2202"
     transform="matrix(0.1,0,0,-0.1,284.79,55.955)"
     y="0"
     width="100%"
     height="100%" />
  <use
     x="143.4082"
     xlink:href="#DejaVuSans-41"
     id="use2204"
     transform="matrix(0.1,0,0,-0.1,284.79,55.955)"
     y="0"
     width="100%"
     height="100%" />
  <use
     x="211.81641"
     xlink:href="#DejaVuSans-20"
     id="use2206"
     transform="matrix(0.1,0,0,-0.1,284.79,55.955)"
     y="0"
     width="100%"
     height="100%" />
  <use
     x="243.60352"
     xlink:href="#DejaVuSans-70"
     id="use2208"
     transform="matrix(0.1,0,0,-0.1,284.79,55.955)"
     y="0"
     width="100%"
     height="100%" />
  <use
     x="307.08008"
     xlink:href="#DejaVuSans-6c"
     id="use2210"
     transform="matrix(0.1,0,0,-0.1,284.79,55.955)"
     y="0"
     width="100%"
     height="100%" />
  <use
     x="334.86328"
     xlink:href="#DejaVuSans-61"
     id="use2212"
     transform="matrix(0.1,0,0,-0.1,284.79,55.955)"
     y="0"
     width="100%"
     height="100%" />
  <use
     x="396.14258"
     xlink:href="#DejaVuSans-79"
     id="use2214"
     transform="matrix(0.1,0,0,-0.1,284.79,55.955)"
     y="0"
     width="100%"
     height="100%" />
  <use
     x="455.32227"
     xlink:href="#DejaVuSans-65"
     id="use2216"
     transform="matrix(0.1,0,0,-0.1,284.79,55.955)"
     y="0"
     width="100%"
     height="100%" />
  <use
     x="516.8457"
     xlink:href="#DejaVuSans-72"
     id="use2218"
     transform="matrix(0.1,0,0,-0.1,284.79,55.955)"
     y="0"
     width="100%"
     height="100%" />
  <use
     x="557.95898"
     xlink:href="#DejaVuSans-73"
     id="use2220"
     transform="matrix(0.1,0,0,-0.1,284.79,55.955)"
     y="0"
     width="100%"
     height="100%" />
  <defs
     id="defs2227">
    <clipPath
       id="pc72ef1fa13">
      <rect
         x="54"
         y="34.560001"
         width="334.79999"
         height="217.44"
         id="rect2224" />
    </clipPath>
  </defs>
</svg>
