<?xml version="1.0" encoding="UTF-8" standalone="no"?>
<svg
   version="1.1"
   viewBox="0 0 407.29071 267.79974"
   id="svg420"
   sodipodi:docname="imdb_movie_ratings_distribution.svg"
   width="407.29071"
   height="267.79974"
   inkscape:version="1.1.1 (c3084ef, 2021-09-22)"
   xmlns:inkscape="http://www.inkscape.org/namespaces/inkscape"
   xmlns:sodipodi="http://sodipodi.sourceforge.net/DTD/sodipodi-0.dtd"
   xmlns:xlink="http://www.w3.org/1999/xlink"
   xmlns="http://www.w3.org/2000/svg"
   xmlns:svg="http://www.w3.org/2000/svg">
  <sodipodi:namedview
     id="namedview422"
     pagecolor="#ffffff"
     bordercolor="#666666"
     borderopacity="1.0"
     inkscape:pageshadow="2"
     inkscape:pageopacity="1"
     inkscape:pagecheckerboard="true"
     showgrid="false"
     fit-margin-top="10"
     fit-margin-left="10"
     fit-margin-right="10"
     fit-margin-bottom="10"
     inkscape:zoom="1.2639443"
     inkscape:cx="190.67297"
     inkscape:cy="185.92592"
     inkscape:window-width="1920"
     inkscape:window-height="1080"
     inkscape:window-x="0"
     inkscape:window-y="0"
     inkscape:window-maximized="0"
     inkscape:current-layer="svg420" />
  <defs
     id="defs11">
    <style
       type="text/css"
       id="style9">*{stroke-linecap:butt;stroke-linejoin:round;}</style>
  </defs>
  <g
     stroke-width="0.2"
     id="g75"
     transform="translate(8.4907,-24.56)">
    <path
       d="m 69.218,252 h 6.7636 v -1.7269 H 69.218 Z"
       clip-path="url(#p33ef7e93d8)"
       fill="#1f77b4"
       fill-opacity="0.75"
       stroke="#000000"
       stroke-width="0.2"
       id="path17" />
    <path
       d="m 75.982,252 h 6.7636 v -1.416 H 75.982 Z"
       clip-path="url(#p33ef7e93d8)"
       fill="#1f77b4"
       fill-opacity="0.75"
       stroke="#000000"
       stroke-width="0.2"
       id="path19" />
    <path
       d="m 82.745,252 h 6.7636 v -1.865 H 82.745 Z"
       clip-path="url(#p33ef7e93d8)"
       fill="#1f77b4"
       fill-opacity="0.75"
       stroke="#000000"
       stroke-width="0.2"
       id="path21" />
    <path
       d="m 89.509,252 h 6.7636 v -2.5097 H 89.509 Z"
       clip-path="url(#p33ef7e93d8)"
       fill="#1f77b4"
       fill-opacity="0.75"
       stroke="#000000"
       stroke-width="0.2"
       id="path23" />
    <path
       d="m 96.273,252 h 6.7636 v -3.0278 H 96.273 Z"
       clip-path="url(#p33ef7e93d8)"
       fill="#1f77b4"
       fill-opacity="0.75"
       stroke="#000000"
       stroke-width="0.2"
       id="path25" />
    <path
       d="m 103.04,252 h 6.7636 v -4.7892 H 103.04 Z"
       clip-path="url(#p33ef7e93d8)"
       fill="#1f77b4"
       fill-opacity="0.75"
       stroke="#000000"
       stroke-width="0.2"
       id="path27" />
    <path
       d="m 109.8,252 h 6.7636 v -6.8269 H 109.8 Z"
       clip-path="url(#p33ef7e93d8)"
       fill="#1f77b4"
       fill-opacity="0.75"
       stroke="#000000"
       stroke-width="0.2"
       id="path29" />
    <path
       d="m 116.56,252 h 6.7636 v -8.6919 H 116.56 Z"
       clip-path="url(#p33ef7e93d8)"
       fill="#1f77b4"
       fill-opacity="0.75"
       stroke="#000000"
       stroke-width="0.2"
       id="path31" />
    <path
       d="m 123.33,252 h 6.7636 V 240.476 H 123.33 Z"
       clip-path="url(#p33ef7e93d8)"
       fill="#1f77b4"
       fill-opacity="0.75"
       stroke="#000000"
       stroke-width="0.2"
       id="path33" />
    <path
       d="m 130.09,252 h 6.7636 V 237.368 H 130.09 Z"
       clip-path="url(#p33ef7e93d8)"
       fill="#1f77b4"
       fill-opacity="0.75"
       stroke="#000000"
       stroke-width="0.2"
       id="path35" />
    <path
       d="m 136.85,252 h 6.7636 V 233.58 H 136.85 Z"
       clip-path="url(#p33ef7e93d8)"
       fill="#1f77b4"
       fill-opacity="0.75"
       stroke="#000000"
       stroke-width="0.2"
       id="path37" />
    <path
       d="m 143.62,252 h 6.7636 V 228.572 H 143.62 Z"
       clip-path="url(#p33ef7e93d8)"
       fill="#1f77b4"
       fill-opacity="0.75"
       stroke="#000000"
       stroke-width="0.2"
       id="path39" />
    <path
       d="m 150.38,252 h 6.7636 V 223.127 H 150.38 Z"
       clip-path="url(#p33ef7e93d8)"
       fill="#1f77b4"
       fill-opacity="0.75"
       stroke="#000000"
       stroke-width="0.2"
       id="path41" />
    <path
       d="m 157.15,252 h 6.7636 V 217.808 H 157.15 Z"
       clip-path="url(#p33ef7e93d8)"
       fill="#1f77b4"
       fill-opacity="0.75"
       stroke="#000000"
       stroke-width="0.2"
       id="path43" />
    <path
       d="m 163.91,252 h 6.7636 V 211.499 H 163.91 Z"
       clip-path="url(#p33ef7e93d8)"
       fill="#1f77b4"
       fill-opacity="0.75"
       stroke="#000000"
       stroke-width="0.2"
       id="path45" />
    <path
       d="m 170.67,252 h 6.7636 V 204.35 H 170.67 Z"
       clip-path="url(#p33ef7e93d8)"
       fill="#1f77b4"
       fill-opacity="0.75"
       stroke="#000000"
       stroke-width="0.2"
       id="path47" />
    <path
       d="m 177.44,252 h 6.7636 V 192.872 H 177.44 Z"
       clip-path="url(#p33ef7e93d8)"
       fill="#1f77b4"
       fill-opacity="0.75"
       stroke="#000000"
       stroke-width="0.2"
       id="path49" />
    <path
       d="m 184.2,252 h 6.7636 V 184.733 H 184.2 Z"
       clip-path="url(#p33ef7e93d8)"
       fill="#1f77b4"
       fill-opacity="0.75"
       stroke="#000000"
       stroke-width="0.2"
       id="path51" />
    <path
       d="m 190.96,252 h 6.7636 V 173.278 H 190.96 Z"
       clip-path="url(#p33ef7e93d8)"
       fill="#1f77b4"
       fill-opacity="0.75"
       stroke="#000000"
       stroke-width="0.2"
       id="path53" />
    <path
       d="m 197.73,252 h 6.7636 V 161.201 H 197.73 Z"
       clip-path="url(#p33ef7e93d8)"
       fill="#1f77b4"
       fill-opacity="0.75"
       stroke="#000000"
       stroke-width="0.2"
       id="path55" />
    <path
       d="m 204.49,252 h 6.7636 V 148.17 H 204.49 Z"
       clip-path="url(#p33ef7e93d8)"
       fill="#1f77b4"
       fill-opacity="0.75"
       stroke="#000000"
       stroke-width="0.2"
       id="path57" />
    <path
       d="m 211.25,252 h 6.7636 V 126.87 H 211.25 Z"
       clip-path="url(#p33ef7e93d8)"
       fill="#1f77b4"
       fill-opacity="0.75"
       stroke="#000000"
       stroke-width="0.2"
       id="path59" />
    <path
       d="m 218.02,252 h 6.7636 V 113.16 H 218.02 Z"
       clip-path="url(#p33ef7e93d8)"
       fill="#1f77b4"
       fill-opacity="0.75"
       stroke="#000000"
       stroke-width="0.2"
       id="path61" />
    <path
       d="m 224.78,252 h 6.7636 V 94.95 H 224.78 Z"
       clip-path="url(#p33ef7e93d8)"
       fill="#1f77b4"
       fill-opacity="0.75"
       stroke="#000000"
       stroke-width="0.2"
       id="path63" />
    <path
       d="m 231.55,252 h 6.7636 V 79.69 H 231.55 Z"
       clip-path="url(#p33ef7e93d8)"
       fill="#1f77b4"
       fill-opacity="0.75"
       stroke="#000000"
       stroke-width="0.2"
       id="path65" />
    <path
       d="m 238.31,252 h 6.7636 V 62.41 H 238.31 Z"
       clip-path="url(#p33ef7e93d8)"
       fill="#1f77b4"
       fill-opacity="0.75"
       stroke="#000000"
       stroke-width="0.2"
       id="path67" />
    <path
       d="m 245.07,252 h 6.7636 V 44.91 H 245.07 Z"
       clip-path="url(#p33ef7e93d8)"
       fill="#1f77b4"
       fill-opacity="0.75"
       stroke="#000000"
       stroke-width="0.2"
       id="path69" />
    <path
       d="m 251.84,252 h 6.7636 V 46.19 H 251.84 Z"
       clip-path="url(#p33ef7e93d8)"
       fill="#1f77b4"
       fill-opacity="0.75"
       stroke="#000000"
       stroke-width="0.2"
       id="path71" />
    <path
       d="m 258.6,252 h 6.7636 V 50.47 H 258.6 Z"
       clip-path="url(#p33ef7e93d8)"
       fill="#1f77b4"
       fill-opacity="0.75"
       stroke="#000000"
       stroke-width="0.2"
       id="path73" />
  </g>
  <path
     d="m 265.36,252 h 6.7636 V 54.75 H 265.36 Z"
     clip-path="url(#p33ef7e93d8)"
     fill="#1f77b4"
     fill-opacity="0.75"
     stroke="#000000"
     stroke-width="0.2"
     id="path77"
     transform="translate(8.4907,-24.56)" />
  <g
     stroke-width="0.2"
     id="g109"
     transform="translate(8.4907,-24.56)">
    <path
       d="m 272.13,252 h 6.7636 V 68.31 H 272.13 Z"
       clip-path="url(#p33ef7e93d8)"
       fill="#1f77b4"
       fill-opacity="0.75"
       stroke="#000000"
       stroke-width="0.2"
       id="path79" />
    <path
       d="m 278.89,252 h 6.7636 V 93.19 H 278.89 Z"
       clip-path="url(#p33ef7e93d8)"
       fill="#1f77b4"
       fill-opacity="0.75"
       stroke="#000000"
       stroke-width="0.2"
       id="path81" />
    <path
       d="m 285.65,252 h 6.7636 V 127.94 H 285.65 Z"
       clip-path="url(#p33ef7e93d8)"
       fill="#1f77b4"
       fill-opacity="0.75"
       stroke="#000000"
       stroke-width="0.2"
       id="path83" />
    <path
       d="m 292.42,252 h 6.7636 V 149.02 H 292.42 Z"
       clip-path="url(#p33ef7e93d8)"
       fill="#1f77b4"
       fill-opacity="0.75"
       stroke="#000000"
       stroke-width="0.2"
       id="path85" />
    <path
       d="m 299.18,252 h 6.7636 V 169.939 H 299.18 Z"
       clip-path="url(#p33ef7e93d8)"
       fill="#1f77b4"
       fill-opacity="0.75"
       stroke="#000000"
       stroke-width="0.2"
       id="path87" />
    <path
       d="m 305.95,252 h 6.7636 V 186.483 H 305.95 Z"
       clip-path="url(#p33ef7e93d8)"
       fill="#1f77b4"
       fill-opacity="0.75"
       stroke="#000000"
       stroke-width="0.2"
       id="path89" />
    <path
       d="m 312.71,252 h 6.7636 V 199.883 H 312.71 Z"
       clip-path="url(#p33ef7e93d8)"
       fill="#1f77b4"
       fill-opacity="0.75"
       stroke="#000000"
       stroke-width="0.2"
       id="path91" />
    <path
       d="m 319.47,252 h 6.7636 V 214.596 H 319.47 Z"
       clip-path="url(#p33ef7e93d8)"
       fill="#1f77b4"
       fill-opacity="0.75"
       stroke="#000000"
       stroke-width="0.2"
       id="path93" />
    <path
       d="m 326.24,252 h 6.7636 V 223.633 H 326.24 Z"
       clip-path="url(#p33ef7e93d8)"
       fill="#1f77b4"
       fill-opacity="0.75"
       stroke="#000000"
       stroke-width="0.2"
       id="path95" />
    <path
       d="m 333,252 h 6.7636 V 231.496 H 333 Z"
       clip-path="url(#p33ef7e93d8)"
       fill="#1f77b4"
       fill-opacity="0.75"
       stroke="#000000"
       stroke-width="0.2"
       id="path97" />
    <path
       d="m 339.76,252 h 6.7636 V 238.68 H 339.76 Z"
       clip-path="url(#p33ef7e93d8)"
       fill="#1f77b4"
       fill-opacity="0.75"
       stroke="#000000"
       stroke-width="0.2"
       id="path99" />
    <path
       d="m 346.53,252 h 6.7636 v -8.4847 H 346.53 Z"
       clip-path="url(#p33ef7e93d8)"
       fill="#1f77b4"
       fill-opacity="0.75"
       stroke="#000000"
       stroke-width="0.2"
       id="path101" />
    <path
       d="m 353.29,252 h 6.7636 v -4.179 H 353.29 Z"
       clip-path="url(#p33ef7e93d8)"
       fill="#1f77b4"
       fill-opacity="0.75"
       stroke="#000000"
       stroke-width="0.2"
       id="path103" />
    <path
       d="m 360.05,252 h 6.7636 v -1.6233 H 360.05 Z"
       clip-path="url(#p33ef7e93d8)"
       fill="#1f77b4"
       fill-opacity="0.75"
       stroke="#000000"
       stroke-width="0.2"
       id="path105" />
    <path
       d="m 366.82,252 h 6.7636 v -0.65621 H 366.82 Z"
       clip-path="url(#p33ef7e93d8)"
       fill="#1f77b4"
       fill-opacity="0.75"
       stroke="#000000"
       stroke-width="0.2"
       id="path107" />
  </g>
  <defs
     id="defs112">
    <path
       id="madb1b621b9"
       d="M 0,0 V 3.5"
       stroke="#000000"
       stroke-width="0.8" />
  </defs>
  <use
     x="69.218185"
     y="252"
     stroke="#000000"
     stroke-width="0.8"
     xlink:href="#madb1b621b9"
     id="use114"
     width="100%"
     height="100%"
     transform="translate(8.4907,-24.56)" />
  <!-- 1 -->
  <defs
     id="defs117">
    <path
       id="DejaVuSans-49"
       d="m 12.406,8.2969 h 16.109 v 55.625 L 10.984,60.4063 v 8.9844 l 17.438,3.5156 h 9.8594 V 8.2973 h 16.109 V 4e-4 h -41.984 z" />
  </defs>
  <g
     transform="matrix(0.1,0,0,-0.1,74.5277,242.04)"
     id="g121">
    <use
       xlink:href="#DejaVuSans-49"
       id="use119"
       x="0"
       y="0"
       width="100%"
       height="100%" />
  </g>
  <use
     x="103.03636"
     y="252"
     stroke="#000000"
     stroke-width="0.8"
     xlink:href="#madb1b621b9"
     id="use123"
     width="100%"
     height="100%"
     transform="translate(8.4907,-24.56)" />
  <!-- 2 -->
  <defs
     id="defs126">
    <path
       id="DejaVuSans-50"
       d="M 19.188,8.2969 H 53.61 V 0 H 7.329 v 8.2969 q 5.6094,5.8125 15.297,15.594 9.7031,9.7969 12.188,12.641 4.7344,5.3125 6.6094,9 1.8906,3.6875 1.8906,7.25 0,5.8125 -4.0781,9.4688 -4.0781,3.6719 -10.625,3.6719 -4.6406,0 -9.7969,-1.6094 -5.1406,-1.6094 -11,-4.8906 v 9.9688 q 5.9531,2.3906 11.125,3.6094 5.1875,1.2188 9.4844,1.2188 11.328,0 18.062,-5.6719 6.7344,-5.6562 6.7344,-15.125 0,-4.5 -1.6875,-8.5312 -1.6719,-4.0156 -6.125,-9.4844 -1.2188,-1.4219 -7.7656,-8.1875 -6.5312,-6.7656 -18.453,-18.922 z" />
  </defs>
  <g
     transform="matrix(0.1,0,0,-0.1,108.3457,242.04)"
     id="g130">
    <use
       xlink:href="#DejaVuSans-50"
       id="use128"
       x="0"
       y="0"
       width="100%"
       height="100%" />
  </g>
  <use
     x="136.85454"
     y="252"
     stroke="#000000"
     stroke-width="0.8"
     xlink:href="#madb1b621b9"
     id="use132"
     width="100%"
     height="100%"
     transform="translate(8.4907,-24.56)" />
  <!-- 3 -->
  <defs
     id="defs135">
    <path
       id="DejaVuSans-51"
       d="m 40.578,39.312 q 7.0781,-1.5156 11.047,-6.3125 3.9844,-4.7812 3.9844,-11.812 0,-10.781 -7.4219,-16.703 -7.4219,-5.9062 -21.094,-5.9062 -4.5781,0 -9.4375,0.90625 -4.8594,0.90625 -10.031,2.7188 v 9.5156 q 4.0938,-2.3906 8.9688,-3.6094 4.8906,-1.2188 10.219,-1.2188 9.2656,0 14.125,3.6562 4.8594,3.6562 4.8594,10.641 0,6.4531 -4.5156,10.078 -4.5156,3.6406 -12.562,3.6406 h -8.5 v 8.1094 h 8.8906 q 7.2656,0 11.125,2.9062 3.8594,2.9062 3.8594,8.375 0,5.6094 -3.9844,8.6094 -3.9688,3.0156 -11.391,3.0156 -4.0625,0 -8.7031,-0.89062 -4.6406,-0.875 -10.203,-2.7188 v 8.7812 q 5.625,1.5625 10.531,2.3438 4.906,0.7813 9.25,0.78125 11.234,0 17.766,-5.1094 6.5469,-5.0938 6.5469,-13.781 0,-6.0625 -3.4688,-10.234 -3.4688,-4.1715 -9.8594,-5.7812 z" />
  </defs>
  <g
     transform="matrix(0.1,0,0,-0.1,142.1607,242.04)"
     id="g139">
    <use
       xlink:href="#DejaVuSans-51"
       id="use137"
       x="0"
       y="0"
       width="100%"
       height="100%" />
  </g>
  <use
     x="170.67273"
     y="252"
     stroke="#000000"
     stroke-width="0.8"
     xlink:href="#madb1b621b9"
     id="use141"
     width="100%"
     height="100%"
     transform="translate(8.4907,-24.56)" />
  <!-- 4 -->
  <defs
     id="defs144">
    <path
       id="DejaVuSans-52"
       d="M 37.797,64.312 12.891,25.39 h 24.906 z m -2.5938,8.5938 h 12.406 v -47.516 h 10.406 v -8.2031 h -10.406 v -17.188 h -9.8125 v 17.188 H 4.8907 v 9.5156 z" />
  </defs>
  <g
     transform="matrix(0.1,0,0,-0.1,175.9807,242.04)"
     id="g148">
    <use
       xlink:href="#DejaVuSans-52"
       id="use146"
       x="0"
       y="0"
       width="100%"
       height="100%" />
  </g>
  <use
     x="204.49091"
     y="252"
     stroke="#000000"
     stroke-width="0.8"
     xlink:href="#madb1b621b9"
     id="use150"
     width="100%"
     height="100%"
     transform="translate(8.4907,-24.56)" />
  <!-- 5 -->
  <defs
     id="defs153">
    <path
       id="DejaVuSans-53"
       d="M 10.797,72.906 H 49.516 V 64.5935 H 19.828 v -17.859 q 2.1406,0.73438 4.2812,1.0938 2.1562,0.35938 4.3125,0.35938 12.203,0 19.328,-6.6875 7.1406,-6.6875 7.1406,-18.109 0,-11.766 -7.3281,-18.297 -7.3281,-6.5156 -20.656,-6.5156 -4.5938,0 -9.3594,0.78125 -4.75,0.78125 -9.8281,2.3438 v 9.9219 q 4.3906,-2.3906 9.0781,-3.5625 4.6875,-1.1719 9.9062,-1.1719 8.4531,0 13.375,4.4375 4.9375,4.4375 4.9375,12.062 0,7.6094 -4.9375,12.047 -4.9219,4.4531 -13.375,4.4531 -3.9531,0 -7.8906,-0.875 -3.9219,-0.875 -8.0156,-2.7344 z" />
  </defs>
  <g
     transform="matrix(0.1,0,0,-0.1,209.8007,242.04)"
     id="g157">
    <use
       xlink:href="#DejaVuSans-53"
       id="use155"
       x="0"
       y="0"
       width="100%"
       height="100%" />
  </g>
  <use
     x="238.3091"
     y="252"
     stroke="#000000"
     stroke-width="0.8"
     xlink:href="#madb1b621b9"
     id="use159"
     width="100%"
     height="100%"
     transform="translate(8.4907,-24.56)" />
  <!-- 6 -->
  <defs
     id="defs162">
    <path
       id="DejaVuSans-54"
       d="m 33.016,40.375 q -6.6406,0 -10.531,-4.5469 -3.875,-4.5312 -3.875,-12.438 0,-7.8594 3.875,-12.438 3.8906,-4.5625 10.531,-4.5625 6.6404,0 10.516,4.5625 3.875,4.5781 3.875,12.438 0,7.9062 -3.875,12.438 -3.875,4.5469 -10.516,4.5469 z m 19.578,30.922 v -8.9844 q -3.7188,1.75 -7.5,2.6719 -3.7812,0.9375 -7.5,0.9375 -9.7656,0 -14.922,-6.5938 -5.1406,-6.5938 -5.875,-19.922 2.875,4.25 7.2188,6.5156 4.3594,2.2656 9.5781,2.2656 10.984,0 17.359,-6.6719 6.375,-6.6562 6.375,-18.125 0,-11.234 -6.6406,-18.031 -6.6406,-6.7812 -17.672,-6.7812 -12.656,0 -19.344,9.6875 -6.6875,9.7031 -6.6875,28.109 0,17.281 8.2031,27.562 8.2031,10.281 22.016,10.281 3.7188,0 7.5,-0.73438 3.7812,-0.73438 7.8906,-2.1875 z" />
  </defs>
  <g
     transform="matrix(0.1,0,0,-0.1,243.6207,242.04)"
     id="g166">
    <use
       xlink:href="#DejaVuSans-54"
       id="use164"
       x="0"
       y="0"
       width="100%"
       height="100%" />
  </g>
  <use
     x="272.12726"
     y="252"
     stroke="#000000"
     stroke-width="0.8"
     xlink:href="#madb1b621b9"
     id="use168"
     width="100%"
     height="100%"
     transform="translate(8.4907,-24.56)" />
  <!-- 7 -->
  <defs
     id="defs171">
    <path
       id="DejaVuSans-55"
       d="m 8.2031,72.906 h 46.875 V 68.7029 L 28.6091,-1e-4 h -10.297 l 24.906,64.594 H 8.2021 Z" />
  </defs>
  <g
     transform="matrix(0.1,0,0,-0.1,277.4407,242.04)"
     id="g175">
    <use
       xlink:href="#DejaVuSans-55"
       id="use173"
       x="0"
       y="0"
       width="100%"
       height="100%" />
  </g>
  <use
     x="305.94547"
     y="252"
     stroke="#000000"
     stroke-width="0.8"
     xlink:href="#madb1b621b9"
     id="use177"
     width="100%"
     height="100%"
     transform="translate(8.4907,-24.56)" />
  <!-- 8 -->
  <defs
     id="defs180">
    <path
       id="DejaVuSans-56"
       d="m 31.781,34.625 q -7.0312,0 -11.062,-3.7656 -4.0156,-3.7656 -4.0156,-10.344 0,-6.5938 4.0156,-10.359 4.0312,-3.7656 11.062,-3.7656 7.0308,0 11.078,3.7812 4.0625,3.7969 4.0625,10.344 0,6.5781 -4.0312,10.344 -4.0156,3.7656 -11.109,3.7656 z m -9.8594,4.1875 q -6.3438,1.5625 -9.8906,5.9062 -3.5312,4.3594 -3.5312,10.609 0,8.7344 6.2188,13.812 6.2344,5.0781 17.062,5.0781 10.891,0 17.094,-5.0781 6.203,-5.0781 6.2031,-13.812 0,-6.25 -3.5469,-10.609 -3.5312,-4.3438 -9.8281,-5.9062 7.125,-1.6562 11.094,-6.5 3.9844,-4.8281 3.9844,-11.797 0,-10.609 -6.4688,-16.281 -6.4688,-5.6562 -18.531,-5.6562 -12.047,0 -18.531,5.6562 -6.4688,5.6719 -6.4688,16.281 0,6.9688 4,11.797 4.0156,4.8438 11.141,6.5 z m -3.6094,15.578 q 0,-5.6562 3.5312,-8.8281 3.5469,-3.1719 9.9375,-3.1719 6.3594,0 9.9375,3.1719 3.5938,3.1719 3.5938,8.8281 0,5.6719 -3.5938,8.8438 -3.5781,3.1719 -9.9375,3.1719 -6.3906,0 -9.9375,-3.1719 -3.5312,-3.1719 -3.5312,-8.8438 z" />
  </defs>
  <g
     transform="matrix(0.1,0,0,-0.1,311.2507,242.04)"
     id="g184">
    <use
       xlink:href="#DejaVuSans-56"
       id="use182"
       x="0"
       y="0"
       width="100%"
       height="100%" />
  </g>
  <use
     x="339.76364"
     y="252"
     stroke="#000000"
     stroke-width="0.8"
     xlink:href="#madb1b621b9"
     id="use186"
     width="100%"
     height="100%"
     transform="translate(8.4907,-24.56)" />
  <!-- 9 -->
  <defs
     id="defs189">
    <path
       id="DejaVuSans-57"
       d="M 10.984,1.5156 V 10.5 q 3.7188,-1.7656 7.5156,-2.6875 3.8125,-0.92188 7.4844,-0.92188 9.7656,0 14.906,6.5625 5.1562,6.5625 5.8906,19.953 -2.8281,-4.2031 -7.1875,-6.4531 -4.3438,-2.25 -9.6094,-2.25 -10.938,0 -17.312,6.6094 -6.375,6.625 -6.375,18.109 0,11.219 6.6406,18 6.6406,6.7969 17.672,6.7969 12.656,0 19.312,-9.7031 6.6719,-9.6875 6.6719,-28.141 0,-17.234 -8.1875,-27.516 -8.1719,-10.281 -21.984,-10.281 -3.7188,0 -7.5312,0.73438 -3.7969,0.73438 -7.9062,2.2031 z m 19.625,30.906 q 6.6406,0 10.516,4.5312 3.8906,4.5469 3.8906,12.469 0,7.8594 -3.8906,12.422 -3.875,4.5625 -10.516,4.5625 -6.641,0 -10.516,-4.5625 -3.875,-4.5625 -3.875,-12.422 0,-7.9219 3.875,-12.469 3.875,-4.5312 10.516,-4.5312 z" />
  </defs>
  <g
     transform="matrix(0.1,0,0,-0.1,345.0707,242.04)"
     id="g193">
    <use
       xlink:href="#DejaVuSans-57"
       id="use191"
       x="0"
       y="0"
       width="100%"
       height="100%" />
  </g>
  <use
     x="373.58182"
     y="252"
     stroke="#000000"
     stroke-width="0.8"
     xlink:href="#madb1b621b9"
     id="use195"
     width="100%"
     height="100%"
     transform="translate(8.4907,-24.56)" />
  <!-- 10 -->
  <defs
     id="defs198">
    <path
       id="DejaVuSans-48"
       d="m 31.781,66.406 q -7.6094,0 -11.453,-7.5 -3.8281,-7.4844 -3.8281,-22.531 0,-14.984 3.8281,-22.484 3.8438,-7.5 11.453,-7.5 7.6719,0 11.5,7.5 3.8438,7.5 3.8438,22.484 0,15.047 -3.8438,22.531 -3.8281,7.5 -11.5,7.5 z m 0,7.8125 q 12.266,0 18.734,-9.7031 6.4688,-9.6875 6.4688,-28.141 0,-18.406 -6.4688,-28.109 -6.4688,-9.6875 -18.734,-9.6875 -12.25,0 -18.719,9.6875 -6.4688,9.7031 -6.4688,28.109 0,18.453 6.4688,28.141 6.4688,9.7031 18.719,9.7031 z" />
  </defs>
  <g
     transform="matrix(0.1,0,0,-0.1,375.7107,242.04)"
     id="g204">
    <use
       xlink:href="#DejaVuSans-49"
       id="use200"
       x="0"
       y="0"
       width="100%"
       height="100%" />
    <use
       x="63.623047"
       xlink:href="#DejaVuSans-48"
       id="use202"
       y="0"
       width="100%"
       height="100%" />
  </g>
  <!-- Weighted average rating -->
  <defs
     id="defs217">
    <path
       id="DejaVuSans-87"
       d="m 3.3281,72.906 h 9.9531 l 15.328,-61.625 15.281,61.625 h 11.094 l 15.328,-61.625 15.281,61.625 h 10.016 L 77.2972,0 H 64.8912 L 49.5162,63.281 33.9852,0 h -12.406 z" />
    <path
       id="DejaVuSans-101"
       d="M 56.203,29.594 V 25.2034 H 14.891 q 0.59375,-9.2812 5.5938,-14.141 5.00005,-4.8598 13.938,-4.8594 5.1719,0 10.031,1.2656 4.8591,1.2656 9.6562,3.8125 v -8.5 Q 49.2662,0.7342 44.1881,-0.3439 39.11,-1.422 33.8911,-1.422 q -13.094,0 -20.734,7.6094 -7.6406,7.625 -7.6406,20.625 0,13.422 7.25,21.297 7.25,7.8906 19.562,7.8906 11.031,0 17.453,-7.1094 6.4219,-7.0938 6.4219,-19.297 z m -8.9844,2.6406 q -0.09375,7.3594 -4.125,11.75 -4.0312,4.4062 -10.672,4.4062 -7.5156,0 -12.031,-4.25 -4.5154,-4.25 -5.2031,-11.969 z" />
    <path
       id="DejaVuSans-105"
       d="m 9.4219,54.688 h 8.9844 V 0 H 9.4219 Z m 0,21.297 h 8.9844 V 64.594 H 9.4219 Z" />
    <path
       id="DejaVuSans-103"
       d="m 45.406,27.984 q 0,9.7656 -4.0312,15.125 -4.0156,5.375 -11.297,5.375 -7.2188,0 -11.25,-5.375 -4.0312,-5.3594 -4.0312,-15.125 0,-9.7188 4.0312,-15.094 4.0312,-5.3752 11.25,-5.375 7.2812,0 11.297,5.375 4.0312,5.375 4.0312,15.094 z M 54.3904,6.781 q 0,-13.953 -6.2031,-20.766 -6.1875,-6.8125 -18.984,-6.8125 -4.7344,0 -8.9375,0.70312 -4.2031,0.70312 -8.1562,2.1719 v 8.7344 q 3.9531,-2.1406 7.8125,-3.1562 3.8594,-1.0312 7.8594,-1.0312 8.8438,0 13.234,4.6094 4.3902,4.6094 4.3906,13.938 v 4.4531 Q 42.6249,4.78122 38.2811,2.39062 33.9373,2e-5 27.8751,2e-5 q -10.047,0 -16.203,7.6562 -6.1562,7.6719 -6.1562,20.328 0,12.688 6.1562,20.344 6.1562,7.6719 16.203,7.6719 6.0625,0 10.406,-2.3906 4.3435,-2.3906 7.125,-7.2188 v 8.2969 h 8.9844 z" />
    <path
       id="DejaVuSans-104"
       d="M 54.891,33.016 V 0 h -8.9844 v 32.719 q 0,7.7656 -3.0312,11.609 -3.0312,3.8594 -9.0781,3.8594 -7.2812,0 -11.484,-4.6406 -4.2031,-4.625 -4.2031,-12.641 V -2e-4 H 9.079 v 75.984 h 9.0312 v -29.797 q 3.2344,4.9375 7.5938,7.375 4.375,2.4375 10.094,2.4375 9.4219,0 14.25,-5.8281 4.8438,-5.8281 4.8438,-17.156 z" />
    <path
       id="DejaVuSans-116"
       d="M 18.312,70.219 V 54.688 h 18.5 v -6.9844 h -18.5 v -29.688 q 0,-6.6875 1.8281,-8.5938 1.8281,-1.9063 7.4531,-1.9062 H 36.812 V 0 H 27.5932 Q 17.1872,0 13.2342,3.875 9.2811,7.7656 9.2811,18.016 V 47.704 H 2.6873 v 6.9844 h 6.5938 v 15.531 z" />
    <path
       id="DejaVuSans-100"
       d="m 45.406,46.391 v 29.594 h 8.9844 V 0.001 H 45.406 v 8.2031 q -2.8281,-4.875 -7.1562,-7.25 -4.3125,-2.375 -10.375,-2.375 -9.9062,0 -16.141,7.9062 -6.2188,7.9219 -6.2188,20.812 0,12.8901 6.2188,20.797 6.2344,7.9062 16.141,7.9062 6.0625,0 10.375,-2.375 4.3281,-2.3594 7.1562,-7.2344 z M 14.797,27.297 q 0,-9.9062 4.0781,-15.547 4.0781,-5.6408 11.203,-5.6406 7.1249,2e-4 11.219,5.6406 4.1094,5.6406 4.1094,15.547 0,9.9064 -4.1094,15.547 -4.0938,5.6406 -11.219,5.6406 -7.1252,0 -11.203,-5.6406 -4.0778,-5.6406 -4.0781,-15.547 z" />
    <path
       id="DejaVuSans-97"
       d="m 34.281,27.484 q -10.891,0 -15.094,-2.4844 -4.203,-2.4844 -4.2031,-8.5 0,-4.7812 3.1562,-7.5938 3.1562,-2.7969 8.5625,-2.7969 7.4844,0 12,5.2969 4.5156,5.2969 4.5156,14.078 v 2 z m 17.922,3.7188 V -2e-4 h -8.9844 v 8.2969 q -3.0781,-4.9688 -7.6719,-7.3438 -4.5938,-2.375 -11.234,-2.375 -8.3906,0 -13.359,4.7188 -4.9531,4.7188 -4.9531,12.625 0,9.2188 6.1719,13.906 6.1875,4.6875 18.438,4.6875 h 12.609 v 0.89062 q 0,6.2031 -4.0781,9.5938 -4.0781,3.3907 -11.453,3.3906 -4.6875,0 -9.1406,-1.125 -4.4375,-1.125 -8.5312,-3.375 v 8.3125 q 4.9219,1.9062 9.5625,2.8438 4.6406,0.95312 9.0312,0.95312 11.875,0 17.734,-6.1562 5.8594,-6.1406 5.8594,-18.641 z" />
    <path
       id="DejaVuSans-118"
       d="M 2.9844,54.688 H 12.5 L 29.594,8.797 46.688,54.688 h 9.5156 L 35.6876,0 h -12.203 z" />
    <path
       id="DejaVuSans-114"
       d="m 41.109,46.297 q -1.5156,0.875 -3.2969,1.2812 -1.7812,0.42188 -3.9219,0.42188 -7.625,0 -11.703,-4.9531 -4.078,-4.9531 -4.0781,-14.234 V 9.8e-4 H 9.0779 v 54.688 h 9.0312 v -8.5 q 2.8438,4.9844 7.375,7.3906 4.5469,2.4219 11.047,2.4219 0.92188,0 2.0469,-0.125 1.125,-0.10938 2.4844,-0.35938 z" />
    <path
       id="DejaVuSans-110"
       d="M 54.891,33.016 V 0 h -8.9844 v 32.719 q 0,7.7656 -3.0312,11.609 -3.0312,3.8594 -9.0781,3.8594 -7.2812,0 -11.484,-4.6406 -4.2031,-4.625 -4.2031,-12.641 V -2e-4 H 9.079 v 54.688 h 9.0312 v -8.5 q 3.2344,4.9375 7.5938,7.375 4.375,2.4375 10.094,2.4375 9.4219,0 14.25,-5.8281 4.8438,-5.8281 4.8438,-17.156 z" />
  </defs>
  <g
     transform="matrix(0.1,0,0,-0.1,167.7607,255.72)"
     id="g265">
    <use
       xlink:href="#DejaVuSans-87"
       id="use219"
       x="0"
       y="0"
       width="100%"
       height="100%" />
    <use
       x="93.001953"
       xlink:href="#DejaVuSans-101"
       id="use221"
       y="0"
       width="100%"
       height="100%" />
    <use
       x="154.52539"
       xlink:href="#DejaVuSans-105"
       id="use223"
       y="0"
       width="100%"
       height="100%" />
    <use
       x="182.30859"
       xlink:href="#DejaVuSans-103"
       id="use225"
       y="0"
       width="100%"
       height="100%" />
    <use
       x="245.78516"
       xlink:href="#DejaVuSans-104"
       id="use227"
       y="0"
       width="100%"
       height="100%" />
    <use
       x="309.16406"
       xlink:href="#DejaVuSans-116"
       id="use229"
       y="0"
       width="100%"
       height="100%" />
    <use
       x="348.37305"
       xlink:href="#DejaVuSans-101"
       id="use231"
       y="0"
       width="100%"
       height="100%" />
    <use
       x="409.89648"
       xlink:href="#DejaVuSans-100"
       id="use233"
       y="0"
       width="100%"
       height="100%" />
    <use
       x="473.37305"
       xlink:href="#DejaVuSans-32"
       id="use235"
       y="0"
       width="100%"
       height="100%" />
    <use
       x="505.16016"
       xlink:href="#DejaVuSans-97"
       id="use237"
       y="0"
       width="100%"
       height="100%" />
    <use
       x="566.43945"
       xlink:href="#DejaVuSans-118"
       id="use239"
       y="0"
       width="100%"
       height="100%" />
    <use
       x="625.61914"
       xlink:href="#DejaVuSans-101"
       id="use241"
       y="0"
       width="100%"
       height="100%" />
    <use
       x="687.14258"
       xlink:href="#DejaVuSans-114"
       id="use243"
       y="0"
       width="100%"
       height="100%" />
    <use
       x="728.25586"
       xlink:href="#DejaVuSans-97"
       id="use245"
       y="0"
       width="100%"
       height="100%" />
    <use
       x="789.53516"
       xlink:href="#DejaVuSans-103"
       id="use247"
       y="0"
       width="100%"
       height="100%" />
    <use
       x="853.01172"
       xlink:href="#DejaVuSans-101"
       id="use249"
       y="0"
       width="100%"
       height="100%" />
    <use
       x="914.53516"
       xlink:href="#DejaVuSans-32"
       id="use251"
       y="0"
       width="100%"
       height="100%" />
    <use
       x="946.32227"
       xlink:href="#DejaVuSans-114"
       id="use253"
       y="0"
       width="100%"
       height="100%" />
    <use
       x="987.43555"
       xlink:href="#DejaVuSans-97"
       id="use255"
       y="0"
       width="100%"
       height="100%" />
    <use
       x="1048.7148"
       xlink:href="#DejaVuSans-116"
       id="use257"
       y="0"
       width="100%"
       height="100%" />
    <use
       x="1087.9238"
       xlink:href="#DejaVuSans-105"
       id="use259"
       y="0"
       width="100%"
       height="100%" />
    <use
       x="1115.707"
       xlink:href="#DejaVuSans-110"
       id="use261"
       y="0"
       width="100%"
       height="100%" />
    <use
       x="1179.0859"
       xlink:href="#DejaVuSans-103"
       id="use263"
       y="0"
       width="100%"
       height="100%" />
  </g>
  <defs
     id="defs268">
    <path
       id="m2d70ff4717"
       d="M 0,0 H -3.5"
       stroke="#000000"
       stroke-width="0.8" />
  </defs>
  <use
     x="54"
     y="252"
     stroke="#000000"
     stroke-width="0.8"
     xlink:href="#m2d70ff4717"
     id="use270"
     width="100%"
     height="100%"
     transform="translate(8.4907,-24.56)" />
  <!-- 0 -->
  <g
     transform="matrix(0.1,0,0,-0.1,49.1287,231.24)"
     id="g274">
    <use
       xlink:href="#DejaVuSans-48"
       id="use272"
       x="0"
       y="0"
       width="100%"
       height="100%" />
  </g>
  <use
     x="54"
     y="223.2189"
     stroke="#000000"
     stroke-width="0.8"
     xlink:href="#m2d70ff4717"
     id="use276"
     width="100%"
     height="100%"
     transform="translate(8.4907,-24.56)" />
  <!-- 2500 -->
  <g
     transform="matrix(0.1,0,0,-0.1,30.0407,202.46)"
     id="g286">
    <use
       xlink:href="#DejaVuSans-50"
       id="use278"
       x="0"
       y="0"
       width="100%"
       height="100%" />
    <use
       x="63.623047"
       xlink:href="#DejaVuSans-53"
       id="use280"
       y="0"
       width="100%"
       height="100%" />
    <use
       x="127.24609"
       xlink:href="#DejaVuSans-48"
       id="use282"
       y="0"
       width="100%"
       height="100%" />
    <use
       x="190.86914"
       xlink:href="#DejaVuSans-48"
       id="use284"
       y="0"
       width="100%"
       height="100%" />
  </g>
  <use
     x="54"
     y="194.43782"
     stroke="#000000"
     stroke-width="0.8"
     xlink:href="#m2d70ff4717"
     id="use288"
     width="100%"
     height="100%"
     transform="translate(8.4907,-24.56)" />
  <!-- 5000 -->
  <g
     transform="matrix(0.1,0,0,-0.1,30.0407,173.68)"
     id="g298">
    <use
       xlink:href="#DejaVuSans-53"
       id="use290"
       x="0"
       y="0"
       width="100%"
       height="100%" />
    <use
       x="63.623047"
       xlink:href="#DejaVuSans-48"
       id="use292"
       y="0"
       width="100%"
       height="100%" />
    <use
       x="127.24609"
       xlink:href="#DejaVuSans-48"
       id="use294"
       y="0"
       width="100%"
       height="100%" />
    <use
       x="190.86914"
       xlink:href="#DejaVuSans-48"
       id="use296"
       y="0"
       width="100%"
       height="100%" />
  </g>
  <use
     x="54"
     y="165.65672"
     stroke="#000000"
     stroke-width="0.8"
     xlink:href="#m2d70ff4717"
     id="use300"
     width="100%"
     height="100%"
     transform="translate(8.4907,-24.56)" />
  <!-- 7500 -->
  <g
     transform="matrix(0.1,0,0,-0.1,30.0407,144.9)"
     id="g310">
    <use
       xlink:href="#DejaVuSans-55"
       id="use302"
       x="0"
       y="0"
       width="100%"
       height="100%" />
    <use
       x="63.623047"
       xlink:href="#DejaVuSans-53"
       id="use304"
       y="0"
       width="100%"
       height="100%" />
    <use
       x="127.24609"
       xlink:href="#DejaVuSans-48"
       id="use306"
       y="0"
       width="100%"
       height="100%" />
    <use
       x="190.86914"
       xlink:href="#DejaVuSans-48"
       id="use308"
       y="0"
       width="100%"
       height="100%" />
  </g>
  <use
     x="54"
     y="136.87563"
     stroke="#000000"
     stroke-width="0.8"
     xlink:href="#m2d70ff4717"
     id="use312"
     width="100%"
     height="100%"
     transform="translate(8.4907,-24.56)" />
  <!-- 10000 -->
  <g
     transform="matrix(0.1,0,0,-0.1,23.6787,116.11)"
     id="g324">
    <use
       xlink:href="#DejaVuSans-49"
       id="use314"
       x="0"
       y="0"
       width="100%"
       height="100%" />
    <use
       x="63.623047"
       xlink:href="#DejaVuSans-48"
       id="use316"
       y="0"
       width="100%"
       height="100%" />
    <use
       x="127.24609"
       xlink:href="#DejaVuSans-48"
       id="use318"
       y="0"
       width="100%"
       height="100%" />
    <use
       x="190.86914"
       xlink:href="#DejaVuSans-48"
       id="use320"
       y="0"
       width="100%"
       height="100%" />
    <use
       x="254.49219"
       xlink:href="#DejaVuSans-48"
       id="use322"
       y="0"
       width="100%"
       height="100%" />
  </g>
  <use
     x="54"
     y="108.09454"
     stroke="#000000"
     stroke-width="0.8"
     xlink:href="#m2d70ff4717"
     id="use326"
     width="100%"
     height="100%"
     transform="translate(8.4907,-24.56)" />
  <!-- 12500 -->
  <g
     transform="matrix(0.1,0,0,-0.1,23.6787,87.33)"
     id="g338">
    <use
       xlink:href="#DejaVuSans-49"
       id="use328"
       x="0"
       y="0"
       width="100%"
       height="100%" />
    <use
       x="63.623047"
       xlink:href="#DejaVuSans-50"
       id="use330"
       y="0"
       width="100%"
       height="100%" />
    <use
       x="127.24609"
       xlink:href="#DejaVuSans-53"
       id="use332"
       y="0"
       width="100%"
       height="100%" />
    <use
       x="190.86914"
       xlink:href="#DejaVuSans-48"
       id="use334"
       y="0"
       width="100%"
       height="100%" />
    <use
       x="254.49219"
       xlink:href="#DejaVuSans-48"
       id="use336"
       y="0"
       width="100%"
       height="100%" />
  </g>
  <use
     x="54"
     y="79.313446"
     stroke="#000000"
     stroke-width="0.8"
     xlink:href="#m2d70ff4717"
     id="use340"
     width="100%"
     height="100%"
     transform="translate(8.4907,-24.56)" />
  <!-- 15000 -->
  <g
     transform="matrix(0.1,0,0,-0.1,23.6787,58.553)"
     id="g352">
    <use
       xlink:href="#DejaVuSans-49"
       id="use342"
       x="0"
       y="0"
       width="100%"
       height="100%" />
    <use
       x="63.623047"
       xlink:href="#DejaVuSans-53"
       id="use344"
       y="0"
       width="100%"
       height="100%" />
    <use
       x="127.24609"
       xlink:href="#DejaVuSans-48"
       id="use346"
       y="0"
       width="100%"
       height="100%" />
    <use
       x="190.86914"
       xlink:href="#DejaVuSans-48"
       id="use348"
       y="0"
       width="100%"
       height="100%" />
    <use
       x="254.49219"
       xlink:href="#DejaVuSans-48"
       id="use350"
       y="0"
       width="100%"
       height="100%" />
  </g>
  <use
     x="54"
     y="50.532356"
     stroke="#000000"
     stroke-width="0.8"
     xlink:href="#m2d70ff4717"
     id="use354"
     width="100%"
     height="100%"
     transform="translate(8.4907,-24.56)" />
  <!-- 17500 -->
  <g
     transform="matrix(0.1,0,0,-0.1,23.6787,29.772)"
     id="g366">
    <use
       xlink:href="#DejaVuSans-49"
       id="use356"
       x="0"
       y="0"
       width="100%"
       height="100%" />
    <use
       x="63.623047"
       xlink:href="#DejaVuSans-55"
       id="use358"
       y="0"
       width="100%"
       height="100%" />
    <use
       x="127.24609"
       xlink:href="#DejaVuSans-53"
       id="use360"
       y="0"
       width="100%"
       height="100%" />
    <use
       x="190.86914"
       xlink:href="#DejaVuSans-48"
       id="use362"
       y="0"
       width="100%"
       height="100%" />
    <use
       x="254.49219"
       xlink:href="#DejaVuSans-48"
       id="use364"
       y="0"
       width="100%"
       height="100%" />
  </g>
  <!-- Number of movies -->
  <defs
     id="defs375">
    <path
       id="DejaVuSans-78"
       d="m 9.8125,72.906 h 13.281 L 55.4215,11.922 V 72.906 H 64.984 V 0 H 51.703 L 19.391,60.984 V 0 H 9.8129 Z" />
    <path
       id="DejaVuSans-117"
       d="m 8.5,21.578 v 33.109 h 8.9844 V 21.921 q 0,-7.7656 3.0156,-11.656 3.0312,-3.875 9.0938,-3.875 7.2656,0 11.484,4.6406 4.2344,4.6406 4.2344,12.656 v 31 h 8.9844 v -54.688 h -8.9844 v 8.4062 q -3.2656,-4.9844 -7.5938,-7.4062 -4.3125,-2.4219 -10.031,-2.4219 -9.4219,0 -14.312,5.8594 -4.875,5.8594 -4.875,17.141 z" />
    <path
       id="DejaVuSans-109"
       d="m 52,44.188 q 3.375,6.0625 8.0625,8.9375 4.6875,2.875 11.031,2.875 8.5469,0 13.188,-5.9844 4.6406,-5.9688 4.6406,-17 V 1e-4 h -9.0312 v 32.719 q 0,7.8594 -2.7969,11.656 -2.7812,3.8125 -8.4844,3.8125 -6.9844,0 -11.047,-4.6406 -4.0469,-4.625 -4.0469,-12.641 V 0 h -9.0312 v 32.719 q 0,7.9062 -2.7812,11.688 -2.7812,3.7818 -8.5938,3.7812 -6.8906,0 -10.953,-4.6562 -4.0469,-4.6562 -4.0469,-12.625 V 0.001 H 9.0784 v 54.688 h 9.0312 v -8.5 q 3.0781,5.0312 7.375,7.4219 4.2969,2.3907 10.203,2.3906 5.9688,0 10.141,-3.0312 4.1719,-3.0156 6.1719,-8.7812 z" />
    <path
       id="DejaVuSans-98"
       d="m 48.688,27.297 q 0,9.9062 -4.0781,15.547 -4.0781,5.6408 -11.203,5.6406 -7.1406,0 -11.219,-5.6406 -4.0784,-5.6406 -4.0781,-15.547 3e-4,-9.9064 4.0781,-15.547 4.0778,-5.6406 11.219,-5.6406 7.125,0 11.203,5.6406 4.078,5.6406 4.0781,15.547 z M 18.11,46.391 q 2.8438,4.875 7.1562,7.2344 4.3281,2.375 10.328,2.375 9.9688,0 16.188,-7.9062 6.2344,-7.9062 6.2344,-20.797 0,-12.8908 -6.2344,-20.812 -6.2188,-7.9062 -16.188,-7.9062 -6,0 -10.328,2.375 -4.3125,2.375 -7.1562,7.25 V 9e-4 H 9.0788 v 75.984 H 18.11 Z" />
    <path
       id="DejaVuSans-111"
       d="m 30.609,48.391 q -7.2188,0 -11.422,-5.6406 -4.2032,-5.6406 -4.2031,-15.453 10e-5,-9.8124 4.1719,-15.453 4.1875,-5.6406 11.453,-5.6406 7.1875,0 11.375,5.6562 4.2031,5.6719 4.2031,15.438 0,9.7188 -4.2031,15.406 -4.1875,5.6875 -11.375,5.6875 z m 0,7.6094 q 11.719,0 18.406,-7.625 6.7031,-7.6094 6.7031,-21.078 0,-13.422 -6.7031,-21.078 -6.6875,-7.6406 -18.406,-7.6406 -11.766,0 -18.438,7.6406 -6.6562,7.6562 -6.6562,21.078 0,13.469 6.6562,21.078 6.6719,7.625 18.438,7.625 z" />
    <path
       id="DejaVuSans-102"
       d="m 37.109,75.984 v -7.4844 h -8.5938 q -4.8281,0 -6.7188,-1.9531 -1.875,-1.9531 -1.875,-7.0312 v -4.8281 h 14.797 V 47.7028 H 19.9214 V -2e-4 h -9.0312 v 47.703 H 2.2964 v 6.9844 h 8.5938 v 3.8125 q 0,9.125 4.25,13.297 4.25,4.1875 13.469,4.1875 z" />
    <path
       id="DejaVuSans-115"
       d="m 44.281,53.078 v -8.5 q -3.7969,1.9531 -7.9062,2.9219 -4.0938,0.98438 -8.5,0.98438 -6.6875,0 -10.031,-2.0469 -3.3435,-2.0469 -3.3438,-6.1562 0,-3.125 2.3906,-4.9062 2.3906,-1.7812 9.625,-3.3906 l 3.0781,-0.6875 q 9.5625,-2.0469 13.594,-5.7812 4.0315,-3.7343 4.0312,-10.422 0,-7.625 -6.0312,-12.078 -6.0312,-4.4375 -16.578,-4.4375 -4.3906,0 -9.1562,0.85938 -4.7656,0.85938 -10.031,2.5625 v 9.2812 q 4.9844,-2.5938 9.8125,-3.8906 4.8281,-1.2812 9.5781,-1.2812 6.3438,0 9.75,2.1719 3.4219,2.1719 3.4219,6.125 0,3.6562 -2.4688,5.6094 -2.4531,1.9531 -10.812,3.7656 l -3.125,0.73438 q -8.3438,1.75 -12.062,5.3906 -3.7031,3.6406 -3.7031,9.9844 0,7.7188 5.4688,11.906 5.4688,4.2031 15.531,4.2031 4.9688,0 9.3594,-0.73438 4.4062,-0.71875 8.1094,-2.1875 z" />
  </defs>
  <g
     transform="matrix(0,-0.1,-0.1,0,17.5985,164.76)"
     id="g409">
    <use
       xlink:href="#DejaVuSans-78"
       id="use377"
       x="0"
       y="0"
       width="100%"
       height="100%" />
    <use
       x="74.804688"
       xlink:href="#DejaVuSans-117"
       id="use379"
       y="0"
       width="100%"
       height="100%" />
    <use
       x="138.18359"
       xlink:href="#DejaVuSans-109"
       id="use381"
       y="0"
       width="100%"
       height="100%" />
    <use
       x="235.5957"
       xlink:href="#DejaVuSans-98"
       id="use383"
       y="0"
       width="100%"
       height="100%" />
    <use
       x="299.07227"
       xlink:href="#DejaVuSans-101"
       id="use385"
       y="0"
       width="100%"
       height="100%" />
    <use
       x="360.5957"
       xlink:href="#DejaVuSans-114"
       id="use387"
       y="0"
       width="100%"
       height="100%" />
    <use
       x="401.70898"
       xlink:href="#DejaVuSans-32"
       id="use389"
       y="0"
       width="100%"
       height="100%" />
    <use
       x="433.49609"
       xlink:href="#DejaVuSans-111"
       id="use391"
       y="0"
       width="100%"
       height="100%" />
    <use
       x="494.67773"
       xlink:href="#DejaVuSans-102"
       id="use393"
       y="0"
       width="100%"
       height="100%" />
    <use
       x="529.88281"
       xlink:href="#DejaVuSans-32"
       id="use395"
       y="0"
       width="100%"
       height="100%" />
    <use
       x="561.66992"
       xlink:href="#DejaVuSans-109"
       id="use397"
       y="0"
       width="100%"
       height="100%" />
    <use
       x="659.08203"
       xlink:href="#DejaVuSans-111"
       id="use399"
       y="0"
       width="100%"
       height="100%" />
    <use
       x="720.26367"
       xlink:href="#DejaVuSans-118"
       id="use401"
       y="0"
       width="100%"
       height="100%" />
    <use
       x="779.44336"
       xlink:href="#DejaVuSans-105"
       id="use403"
       y="0"
       width="100%"
       height="100%" />
    <use
       x="807.22656"
       xlink:href="#DejaVuSans-101"
       id="use405"
       y="0"
       width="100%"
       height="100%" />
    <use
       x="868.75"
       xlink:href="#DejaVuSans-115"
       id="use407"
       y="0"
       width="100%"
       height="100%" />
  </g>
  <path
     d="M 62.4907,227.44 V 10"
     fill="none"
     stroke="#000000"
     stroke-linecap="square"
     stroke-width="0.8"
     id="path411" />
  <path
     d="m 62.4907,227.44 h 334.8"
     fill="none"
     stroke="#000000"
     stroke-linecap="square"
     stroke-width="0.8"
     id="path413" />
  <defs
     id="defs418">
    <clipPath
       id="p33ef7e93d8">
      <rect
         x="54"
         y="34.560001"
         width="334.79999"
         height="217.44"
         id="rect415" />
    </clipPath>
  </defs>
</svg>
