<?xml version="1.0" encoding="UTF-8"?>
<svg width="763.86" height="496.08" version="1.1" viewBox="0 0 381.93 248.04" xmlns="http://www.w3.org/2000/svg" xmlns:cc="http://creativecommons.org/ns#" xmlns:dc="http://purl.org/dc/elements/1.1/" xmlns:rdf="http://www.w3.org/1999/02/22-rdf-syntax-ns#" xmlns:xlink="http://www.w3.org/1999/xlink">
 <metadata>
  <rdf:RDF>
   <cc:Work>
    <dc:type rdf:resource="http://purl.org/dc/dcmitype/StillImage"/>
    <dc:date>2021-11-30T08:58:35.631420</dc:date>
    <dc:format>image/svg+xml</dc:format>
    <dc:creator>
     <cc:Agent>
      <dc:title>Matplotlib v3.4.3, https://matplotlib.org/</dc:title>
     </cc:Agent>
    </dc:creator>
   </cc:Work>
  </rdf:RDF>
 </metadata>
 <defs>
  <style type="text/css">*{stroke-linecap:butt;stroke-linejoin:round;}</style>
 </defs>
 <g transform="translate(-7.3716 -34.06)">
  <g stroke-width=".1">
   <path d="m0 288h432v-288h-432z" fill="none" stroke-width=".1"/>
  </g>
  <g stroke-width=".1">
   <path d="m54 252h334.8v-217.44h-334.8z" fill="#fff" stroke-width=".1"/>
   <g fill="#1f77b4" stroke="#000" stroke-width=".1">
    <path d="m69.218 252h4.6116z" clip-path="url(#p4186842cb1)"/>
    <path d="m73.83 252h4.6116v-1.0438h-4.6116z" clip-path="url(#p4186842cb1)"/>
    <path d="m78.441 252h4.6116v-0.62627h-4.6116z" clip-path="url(#p4186842cb1)"/>
    <path d="m83.053 252h4.6116v-1.2525h-4.6116z" clip-path="url(#p4186842cb1)"/>
    <path d="m87.664 252h4.6116v-1.67h-4.6116z" clip-path="url(#p4186842cb1)"/>
    <path d="m92.276 252h4.6116v-6.3671h-4.6116z" clip-path="url(#p4186842cb1)"/>
    <path d="m96.888 252h4.6116v-9.6028h-4.6116z" clip-path="url(#p4186842cb1)"/>
    <path d="m101.5 252h4.6116v-18.892h-4.6116z" clip-path="url(#p4186842cb1)"/>
    <path d="m106.11 252h4.6116v-28.182h-4.6116z" clip-path="url(#p4186842cb1)"/>
    <path d="m110.72 252h4.6116v-45.822h-4.6116z" clip-path="url(#p4186842cb1)"/>
    <path d="m115.33 252h4.6116v-61.792h-4.6116z" clip-path="url(#p4186842cb1)"/>
    <path d="m119.95 252h4.6116v-100.2h-4.6116z" clip-path="url(#p4186842cb1)"/>
    <path d="m124.56 252h4.6116v-82.563h-4.6116z" clip-path="url(#p4186842cb1)"/>
    <path d="m129.17 252h4.6116v-96.863h-4.6116z" clip-path="url(#p4186842cb1)"/>
    <path d="m133.78 252h4.6116v-107.72h-4.6116z" clip-path="url(#p4186842cb1)"/>
    <path d="m138.39 252h4.6116v-121.5h-4.6116z" clip-path="url(#p4186842cb1)"/>
    <path d="m143 252h4.6116v-129.53h-4.6116z" clip-path="url(#p4186842cb1)"/>
    <path d="m147.61 252h4.6116v-150.93h-4.6116z" clip-path="url(#p4186842cb1)"/>
    <path d="m152.23 252h4.6116v-135.06h-4.6116z" clip-path="url(#p4186842cb1)"/>
    <path d="m156.84 252h4.6116v-140.6h-4.6116z" clip-path="url(#p4186842cb1)"/>
    <path d="m161.45 252h4.6116v-134.33h-4.6116z" clip-path="url(#p4186842cb1)"/>
    <path d="m166.06 252h4.6116v-140.6h-4.6116z" clip-path="url(#p4186842cb1)"/>
    <path d="m170.67 252h4.6116v-125.88h-4.6116z" clip-path="url(#p4186842cb1)"/>
    <path d="m175.28 252h4.6116v-117.43h-4.6116z" clip-path="url(#p4186842cb1)"/>
    <path d="m179.9 252h4.6116v-89.661h-4.6116z" clip-path="url(#p4186842cb1)"/>
    <path d="m184.51 252h4.6116v-86.007h-4.6116z" clip-path="url(#p4186842cb1)"/>
    <path d="m189.12 252h4.6116v-86.634h-4.6116z" clip-path="url(#p4186842cb1)"/>
    <path d="m193.73 252h4.6116v-80.371h-4.6116z" clip-path="url(#p4186842cb1)"/>
    <path d="m198.34 252h4.6116v-72.751h-4.6116z" clip-path="url(#p4186842cb1)"/>
    <path d="m202.95 252h4.6116v-66.176h-4.6116z" clip-path="url(#p4186842cb1)"/>
    <path d="m207.57 252h4.6116v-54.59h-4.6116z" clip-path="url(#p4186842cb1)"/>
    <path d="m212.18 252h4.6116v-58.869h-4.6116z" clip-path="url(#p4186842cb1)"/>
    <path d="m216.79 252h4.6116v-47.701h-4.6116z" clip-path="url(#p4186842cb1)"/>
    <path d="m221.4 252h4.6116v-43.943h-4.6116z" clip-path="url(#p4186842cb1)"/>
    <path d="m226.01 252h4.6116v-41.96h-4.6116z" clip-path="url(#p4186842cb1)"/>
    <path d="m230.62 252h4.6116v-36.115h-4.6116z" clip-path="url(#p4186842cb1)"/>
    <path d="m235.23 252h4.6116v-30.061h-4.6116z" clip-path="url(#p4186842cb1)"/>
    <path d="m239.85 252h4.6116v-27.556h-4.6116z" clip-path="url(#p4186842cb1)"/>
    <path d="m244.46 252h4.6116v-27.451h-4.6116z" clip-path="url(#p4186842cb1)"/>
    <path d="m249.07 252h4.6116v-24.111h-4.6116z" clip-path="url(#p4186842cb1)"/>
    <path d="m253.68 252h4.6116v-21.502h-4.6116z" clip-path="url(#p4186842cb1)"/>
    <path d="m258.29 252h4.6116v-18.892h-4.6116z" clip-path="url(#p4186842cb1)"/>
    <path d="m262.9 252h4.6116v-19.206h-4.6116z" clip-path="url(#p4186842cb1)"/>
    <path d="m267.52 252h4.6116v-16.596h-4.6116z" clip-path="url(#p4186842cb1)"/>
    <path d="m272.13 252h4.6116v-15.448h-4.6116z" clip-path="url(#p4186842cb1)"/>
    <path d="m276.74 252h4.6116v-15.761h-4.6116z" clip-path="url(#p4186842cb1)"/>
    <path d="m281.35 252h4.6116v-13.465h-4.6116z" clip-path="url(#p4186842cb1)"/>
    <path d="m285.96 252h4.6116v-10.125h-4.6116z" clip-path="url(#p4186842cb1)"/>
    <path d="m290.57 252h4.6116v-8.0371h-4.6116z" clip-path="url(#p4186842cb1)"/>
    <path d="m295.19 252h4.6116v-4.2795h-4.6116z" clip-path="url(#p4186842cb1)"/>
    <path d="m299.8 252h4.6116v-3.1313h-4.6116z" clip-path="url(#p4186842cb1)"/>
    <path d="m304.41 252h4.6116v-1.4613h-4.6116z" clip-path="url(#p4186842cb1)"/>
    <path d="m309.02 252h4.6116v-0.52189h-4.6116z" clip-path="url(#p4186842cb1)"/>
    <path d="m313.63 252h4.6116v-0.20876h-4.6116z" clip-path="url(#p4186842cb1)"/>
    <path d="m318.24 252h4.6116v-0.20876h-4.6116z" clip-path="url(#p4186842cb1)"/>
    <path d="m322.85 252h4.6116v-0.10438h-4.6116z" clip-path="url(#p4186842cb1)"/>
    <path d="m327.47 252h4.6116z" clip-path="url(#p4186842cb1)"/>
    <path d="m332.08 252h4.6116v-0.10438h-4.6116z" clip-path="url(#p4186842cb1)"/>
    <path d="m336.69 252h4.6116v-0.10438h-4.6116z" clip-path="url(#p4186842cb1)"/>
    <path d="m341.3 252h4.6116v-0.20876h-4.6116z" clip-path="url(#p4186842cb1)"/>
    <path d="m345.91 252h4.6116z" clip-path="url(#p4186842cb1)"/>
    <path d="m350.52 252h4.6116z" clip-path="url(#p4186842cb1)"/>
    <path d="m355.14 252h4.6116z" clip-path="url(#p4186842cb1)"/>
    <path d="m359.75 252h4.6116z" clip-path="url(#p4186842cb1)"/>
    <path d="m364.36 252h4.6116z" clip-path="url(#p4186842cb1)"/>
    <path d="m368.97 252h4.6116z" clip-path="url(#p4186842cb1)"/>
   </g>
   <g fill="#bfbf00" fill-opacity=".6" stroke="#000" stroke-width=".1">
    <path d="m69.218 252h4.6116v-0.31313h-4.6116z" clip-path="url(#p4186842cb1)"/>
    <path d="m73.83 252h4.6116v-0.73064h-4.6116z" clip-path="url(#p4186842cb1)"/>
    <path d="m78.441 252h4.6116v-3.027h-4.6116z" clip-path="url(#p4186842cb1)"/>
    <path d="m83.053 252h4.6116v-3.1313h-4.6116z" clip-path="url(#p4186842cb1)"/>
    <path d="m87.664 252h4.6116v-3.7576h-4.6116z" clip-path="url(#p4186842cb1)"/>
    <path d="m92.276 252h4.6116v-8.9765h-4.6116z" clip-path="url(#p4186842cb1)"/>
    <path d="m96.888 252h4.6116v-11.899h-4.6116z" clip-path="url(#p4186842cb1)"/>
    <path d="m101.5 252h4.6116v-19.31h-4.6116z" clip-path="url(#p4186842cb1)"/>
    <path d="m106.11 252h4.6116v-26.408h-4.6116z" clip-path="url(#p4186842cb1)"/>
    <path d="m110.72 252h4.6116v-37.263h-4.6116z" clip-path="url(#p4186842cb1)"/>
    <path d="m115.33 252h4.6116v-43.839h-4.6116z" clip-path="url(#p4186842cb1)"/>
    <path d="m119.95 252h4.6116v-84.755h-4.6116z" clip-path="url(#p4186842cb1)"/>
    <path d="m124.56 252h4.6116v-62.105h-4.6116z" clip-path="url(#p4186842cb1)"/>
    <path d="m129.17 252h4.6116v-72.96h-4.6116z" clip-path="url(#p4186842cb1)"/>
    <path d="m133.78 252h4.6116v-89.661h-4.6116z" clip-path="url(#p4186842cb1)"/>
    <path d="m138.39 252h4.6116v-99.576h-4.6116z" clip-path="url(#p4186842cb1)"/>
    <path d="m143 252h4.6116v-113.98h-4.6116z" clip-path="url(#p4186842cb1)"/>
    <path d="m147.61 252h4.6116v-152.39h-4.6116z" clip-path="url(#p4186842cb1)"/>
    <path d="m152.23 252h4.6116v-114.92h-4.6116z" clip-path="url(#p4186842cb1)"/>
    <path d="m156.84 252h4.6116v-135.27h-4.6116z" clip-path="url(#p4186842cb1)"/>
    <path d="m161.45 252h4.6116v-147.69h-4.6116z" clip-path="url(#p4186842cb1)"/>
    <path d="m166.06 252h4.6116v-149.78h-4.6116z" clip-path="url(#p4186842cb1)"/>
    <path d="m170.67 252h4.6116v-160.22h-4.6116z" clip-path="url(#p4186842cb1)"/>
    <path d="m175.28 252h4.6116v-207.09h-4.6116z" clip-path="url(#p4186842cb1)"/>
    <path d="m179.9 252h4.6116v-117.11h-4.6116z" clip-path="url(#p4186842cb1)"/>
    <path d="m184.51 252h4.6116v-114.92h-4.6116z" clip-path="url(#p4186842cb1)"/>
    <path d="m189.12 252h4.6116v-118.78h-4.6116z" clip-path="url(#p4186842cb1)"/>
    <path d="m193.73 252h4.6116v-108.03h-4.6116z" clip-path="url(#p4186842cb1)"/>
    <path d="m198.34 252h4.6116v-101.87h-4.6116z" clip-path="url(#p4186842cb1)"/>
    <path d="m202.95 252h4.6116v-102.19h-4.6116z" clip-path="url(#p4186842cb1)"/>
    <path d="m207.57 252h4.6116v-82.563h-4.6116z" clip-path="url(#p4186842cb1)"/>
    <path d="m212.18 252h4.6116v-76.926h-4.6116z" clip-path="url(#p4186842cb1)"/>
    <path d="m216.79 252h4.6116v-68.263h-4.6116z" clip-path="url(#p4186842cb1)"/>
    <path d="m221.4 252h4.6116v-68.159h-4.6116z" clip-path="url(#p4186842cb1)"/>
    <path d="m226.01 252h4.6116v-65.236h-4.6116z" clip-path="url(#p4186842cb1)"/>
    <path d="m230.62 252h4.6116v-64.401h-4.6116z" clip-path="url(#p4186842cb1)"/>
    <path d="m235.23 252h4.6116v-40.603h-4.6116z" clip-path="url(#p4186842cb1)"/>
    <path d="m239.85 252h4.6116v-35.906h-4.6116z" clip-path="url(#p4186842cb1)"/>
    <path d="m244.46 252h4.6116v-35.697h-4.6116z" clip-path="url(#p4186842cb1)"/>
    <path d="m249.07 252h4.6116v-33.61h-4.6116z" clip-path="url(#p4186842cb1)"/>
    <path d="m253.68 252h4.6116v-32.462h-4.6116z" clip-path="url(#p4186842cb1)"/>
    <path d="m258.29 252h4.6116v-25.99h-4.6116z" clip-path="url(#p4186842cb1)"/>
    <path d="m262.9 252h4.6116v-21.397h-4.6116z" clip-path="url(#p4186842cb1)"/>
    <path d="m267.52 252h4.6116v-22.337h-4.6116z" clip-path="url(#p4186842cb1)"/>
    <path d="m272.13 252h4.6116v-22.754h-4.6116z" clip-path="url(#p4186842cb1)"/>
    <path d="m276.74 252h4.6116v-17.118h-4.6116z" clip-path="url(#p4186842cb1)"/>
    <path d="m281.35 252h4.6116v-17.222h-4.6116z" clip-path="url(#p4186842cb1)"/>
    <path d="m285.96 252h4.6116v-12.838h-4.6116z" clip-path="url(#p4186842cb1)"/>
    <path d="m290.57 252h4.6116v-12.943h-4.6116z" clip-path="url(#p4186842cb1)"/>
    <path d="m295.19 252h4.6116v-9.0809h-4.6116z" clip-path="url(#p4186842cb1)"/>
    <path d="m299.8 252h4.6116v-8.0371h-4.6116z" clip-path="url(#p4186842cb1)"/>
    <path d="m304.41 252h4.6116v-6.8889h-4.6116z" clip-path="url(#p4186842cb1)"/>
    <path d="m309.02 252h4.6116v-6.5758h-4.6116z" clip-path="url(#p4186842cb1)"/>
    <path d="m313.63 252h4.6116v-5.8452h-4.6116z" clip-path="url(#p4186842cb1)"/>
    <path d="m318.24 252h4.6116v-3.6532h-4.6116z" clip-path="url(#p4186842cb1)"/>
    <path d="m322.85 252h4.6116v-1.5657h-4.6116z" clip-path="url(#p4186842cb1)"/>
    <path d="m327.47 252h4.6116v-0.73064h-4.6116z" clip-path="url(#p4186842cb1)"/>
    <path d="m332.08 252h4.6116v-0.73064h-4.6116z" clip-path="url(#p4186842cb1)"/>
    <path d="m336.69 252h4.6116v-1.2525h-4.6116z" clip-path="url(#p4186842cb1)"/>
    <path d="m341.3 252h4.6116v-0.73064h-4.6116z" clip-path="url(#p4186842cb1)"/>
    <path d="m345.91 252h4.6116v-0.10438h-4.6116z" clip-path="url(#p4186842cb1)"/>
    <path d="m350.52 252h4.6116v-0.20876h-4.6116z" clip-path="url(#p4186842cb1)"/>
    <path d="m355.14 252h4.6116v-0.31313h-4.6116z" clip-path="url(#p4186842cb1)"/>
    <path d="m359.75 252h4.6116v-0.20876h-4.6116z" clip-path="url(#p4186842cb1)"/>
    <path d="m364.36 252h4.6116z" clip-path="url(#p4186842cb1)"/>
    <path d="m368.97 252h4.6116v-0.10438h-4.6116z" clip-path="url(#p4186842cb1)"/>
   </g>
   <g fill="#f00" fill-opacity=".4" stroke="#000" stroke-width=".1">
    <path d="m69.218 252h4.6116z" clip-path="url(#p4186842cb1)"/>
    <path d="m73.83 252h4.6116v-0.73064h-4.6116z" clip-path="url(#p4186842cb1)"/>
    <path d="m78.441 252h4.6116v-5.4276h-4.6116z" clip-path="url(#p4186842cb1)"/>
    <path d="m83.053 252h4.6116v-10.542h-4.6116z" clip-path="url(#p4186842cb1)"/>
    <path d="m87.664 252h4.6116v-7.724h-4.6116z" clip-path="url(#p4186842cb1)"/>
    <path d="m92.276 252h4.6116v-8.4546h-4.6116z" clip-path="url(#p4186842cb1)"/>
    <path d="m96.888 252h4.6116v-8.8721h-4.6116z" clip-path="url(#p4186842cb1)"/>
    <path d="m101.5 252h4.6116v-8.4546h-4.6116z" clip-path="url(#p4186842cb1)"/>
    <path d="m106.11 252h4.6116v-4.5926h-4.6116z" clip-path="url(#p4186842cb1)"/>
    <path d="m110.72 252h4.6116v-4.4882h-4.6116z" clip-path="url(#p4186842cb1)"/>
    <path d="m115.33 252h4.6116v-1.67h-4.6116z" clip-path="url(#p4186842cb1)"/>
    <path d="m119.95 252h4.6116v-0.9394h-4.6116z" clip-path="url(#p4186842cb1)"/>
    <path d="m124.56 252h4.6116v-0.9394h-4.6116z" clip-path="url(#p4186842cb1)"/>
    <path d="m129.17 252h4.6116v-0.41751h-4.6116z" clip-path="url(#p4186842cb1)"/>
    <path d="m133.78 252h4.6116v-0.20876h-4.6116z" clip-path="url(#p4186842cb1)"/>
    <path d="m138.39 252h4.6116v-0.20876h-4.6116z" clip-path="url(#p4186842cb1)"/>
    <path d="m143 252h4.6116v-0.20876h-4.6116z" clip-path="url(#p4186842cb1)"/>
    <path d="m147.61 252h4.6116z" clip-path="url(#p4186842cb1)"/>
    <path d="m152.23 252h4.6116z" clip-path="url(#p4186842cb1)"/>
    <path d="m156.84 252h4.6116z" clip-path="url(#p4186842cb1)"/>
    <path d="m161.45 252h4.6116z" clip-path="url(#p4186842cb1)"/>
    <path d="m166.06 252h4.6116z" clip-path="url(#p4186842cb1)"/>
    <path d="m170.67 252h4.6116z" clip-path="url(#p4186842cb1)"/>
    <path d="m175.28 252h4.6116z" clip-path="url(#p4186842cb1)"/>
    <path d="m179.9 252h4.6116z" clip-path="url(#p4186842cb1)"/>
    <path d="m184.51 252h4.6116z" clip-path="url(#p4186842cb1)"/>
    <path d="m189.12 252h4.6116z" clip-path="url(#p4186842cb1)"/>
    <path d="m193.73 252h4.6116z" clip-path="url(#p4186842cb1)"/>
    <path d="m198.34 252h4.6116z" clip-path="url(#p4186842cb1)"/>
    <path d="m202.95 252h4.6116z" clip-path="url(#p4186842cb1)"/>
    <path d="m207.57 252h4.6116z" clip-path="url(#p4186842cb1)"/>
    <path d="m212.18 252h4.6116z" clip-path="url(#p4186842cb1)"/>
    <path d="m216.79 252h4.6116z" clip-path="url(#p4186842cb1)"/>
    <path d="m221.4 252h4.6116z" clip-path="url(#p4186842cb1)"/>
    <path d="m226.01 252h4.6116z" clip-path="url(#p4186842cb1)"/>
    <path d="m230.62 252h4.6116z" clip-path="url(#p4186842cb1)"/>
    <path d="m235.23 252h4.6116z" clip-path="url(#p4186842cb1)"/>
    <path d="m239.85 252h4.6116z" clip-path="url(#p4186842cb1)"/>
    <path d="m244.46 252h4.6116z" clip-path="url(#p4186842cb1)"/>
    <path d="m249.07 252h4.6116z" clip-path="url(#p4186842cb1)"/>
    <path d="m253.68 252h4.6116z" clip-path="url(#p4186842cb1)"/>
    <path d="m258.29 252h4.6116z" clip-path="url(#p4186842cb1)"/>
    <path d="m262.9 252h4.6116z" clip-path="url(#p4186842cb1)"/>
    <path d="m267.52 252h4.6116z" clip-path="url(#p4186842cb1)"/>
    <path d="m272.13 252h4.6116z" clip-path="url(#p4186842cb1)"/>
    <path d="m276.74 252h4.6116z" clip-path="url(#p4186842cb1)"/>
    <path d="m281.35 252h4.6116z" clip-path="url(#p4186842cb1)"/>
    <path d="m285.96 252h4.6116z" clip-path="url(#p4186842cb1)"/>
    <path d="m290.57 252h4.6116z" clip-path="url(#p4186842cb1)"/>
    <path d="m295.19 252h4.6116z" clip-path="url(#p4186842cb1)"/>
    <path d="m299.8 252h4.6116z" clip-path="url(#p4186842cb1)"/>
    <path d="m304.41 252h4.6116z" clip-path="url(#p4186842cb1)"/>
    <path d="m309.02 252h4.6116z" clip-path="url(#p4186842cb1)"/>
    <path d="m313.63 252h4.6116z" clip-path="url(#p4186842cb1)"/>
    <path d="m318.24 252h4.6116z" clip-path="url(#p4186842cb1)"/>
    <path d="m322.85 252h4.6116z" clip-path="url(#p4186842cb1)"/>
    <path d="m327.47 252h4.6116z" clip-path="url(#p4186842cb1)"/>
    <path d="m332.08 252h4.6116z" clip-path="url(#p4186842cb1)"/>
    <path d="m336.69 252h4.6116z" clip-path="url(#p4186842cb1)"/>
    <path d="m341.3 252h4.6116z" clip-path="url(#p4186842cb1)"/>
    <path d="m345.91 252h4.6116z" clip-path="url(#p4186842cb1)"/>
    <path d="m350.52 252h4.6116z" clip-path="url(#p4186842cb1)"/>
    <path d="m355.14 252h4.6116z" clip-path="url(#p4186842cb1)"/>
    <path d="m359.75 252h4.6116z" clip-path="url(#p4186842cb1)"/>
    <path d="m364.36 252h4.6116z" clip-path="url(#p4186842cb1)"/>
    <path d="m368.97 252h4.6116z" clip-path="url(#p4186842cb1)"/>
   </g>
   <defs>
    <path id="m2291b10755" d="m0 0v3.5" stroke="#000" stroke-width=".8"/>
   </defs>
   <g stroke-width=".1">
    <use x="69.218185" y="252" width="100%" height="100%" stroke="#000000" stroke-width=".1" xlink:href="#m2291b10755"/>
   </g>
   <!-- 2 -->
   <g transform="matrix(.1 0 0 -.1 66.037 266.6)" stroke-width="1">
    <defs>
     <path id="DejaVuSans-32" transform="scale(.015625)" d="m1228 531h2203v-531h-2962v531q359 372 979 998 621 627 780 809 303 340 423 576 121 236 121 464 0 372-261 606-261 235-680 235-297 0-627-103-329-103-704-313v638q381 153 712 231 332 78 607 78 725 0 1156-363 431-362 431-968 0-288-108-546-107-257-392-607-78-91-497-524-418-433-1181-1211z"/>
    </defs>
    <use width="100%" height="100%" stroke-width="1" xlink:href="#DejaVuSans-32"/>
   </g>
   <g stroke-width=".1">
    <use x="124.55702" y="252" width="100%" height="100%" stroke="#000000" stroke-width=".1" xlink:href="#m2291b10755"/>
   </g>
   <!-- 3 -->
   <g transform="matrix(.1 0 0 -.1 121.38 266.6)" stroke-width="1">
    <defs>
     <path id="DejaVuSans-33" transform="scale(.015625)" d="m2597 2516q453-97 707-404 255-306 255-756 0-690-475-1069-475-378-1350-378-293 0-604 58t-642 174v609q262-153 574-231 313-78 654-78 593 0 904 234t311 681q0 413-289 645-289 233-804 233h-544v519h569q465 0 712 186t247 536q0 359-255 551-254 193-729 193-260 0-557-57-297-56-653-174v562q360 100 674 150t592 50q719 0 1137-327 419-326 419-882 0-388-222-655t-631-370z"/>
    </defs>
    <use width="100%" height="100%" stroke-width="1" xlink:href="#DejaVuSans-33"/>
   </g>
   <g stroke-width=".1">
    <use x="179.89587" y="252" width="100%" height="100%" stroke="#000000" stroke-width=".1" xlink:href="#m2291b10755"/>
   </g>
   <!-- 4 -->
   <g transform="matrix(.1 0 0 -.1 176.71 266.6)" stroke-width="1">
    <defs>
     <path id="DejaVuSans-34" transform="scale(.015625)" d="m2419 4116-1594-2491h1594zm-166 550h794v-3041h666v-525h-666v-1100h-628v1100h-2106v609z"/>
    </defs>
    <use width="100%" height="100%" stroke-width="1" xlink:href="#DejaVuSans-34"/>
   </g>
   <g stroke-width=".1">
    <use x="235.23471" y="252" width="100%" height="100%" stroke="#000000" stroke-width=".1" xlink:href="#m2291b10755"/>
   </g>
   <!-- 5 -->
   <g transform="matrix(.1 0 0 -.1 232.05 266.6)" stroke-width="1">
    <defs>
     <path id="DejaVuSans-35" transform="scale(.015625)" d="m691 4666h2478v-532h-1900v-1143q137 47 274 70 138 23 276 23 781 0 1237-428 457-428 457-1159 0-753-469-1171-469-417-1322-417-294 0-599 50-304 50-629 150v635q281-153 581-228t634-75q541 0 856 284 316 284 316 772 0 487-316 771-315 285-856 285-253 0-505-56-251-56-513-175z"/>
    </defs>
    <use width="100%" height="100%" stroke-width="1" xlink:href="#DejaVuSans-35"/>
   </g>
   <g stroke-width=".1">
    <use x="290.57355" y="252" width="100%" height="100%" stroke="#000000" stroke-width=".1" xlink:href="#m2291b10755"/>
   </g>
   <!-- 6 -->
   <g transform="matrix(.1 0 0 -.1 287.39 266.6)" stroke-width="1">
    <defs>
     <path id="DejaVuSans-36" transform="scale(.015625)" d="m2113 2584q-425 0-674-291-248-290-248-796 0-503 248-796 249-292 674-292t673 292q248 293 248 796 0 506-248 796-248 291-673 291zm1253 1979v-575q-238 112-480 171-242 60-480 60-625 0-955-422-329-422-376-1275 184 272 462 417 279 145 613 145 703 0 1111-427 408-426 408-1160 0-719-425-1154-425-434-1131-434-810 0-1238 620-428 621-428 1799 0 1106 525 1764t1409 658q238 0 480-47t505-140z"/>
    </defs>
    <use width="100%" height="100%" stroke-width="1" xlink:href="#DejaVuSans-36"/>
   </g>
   <g stroke-width=".1">
    <use x="345.91238" y="252" width="100%" height="100%" stroke="#000000" stroke-width=".1" xlink:href="#m2291b10755"/>
   </g>
   <!-- 7 -->
   <g transform="matrix(.1 0 0 -.1 342.73 266.6)" stroke-width="1">
    <defs>
     <path id="DejaVuSans-37" transform="scale(.015625)" d="m525 4666h3e3v-269l-1694-4397h-659l1594 4134h-2241z"/>
    </defs>
    <use width="100%" height="100%" stroke-width="1" xlink:href="#DejaVuSans-37"/>
   </g>
   <!-- Finish time (hours) -->
   <g transform="matrix(.1 0 0 -.1 174.73 280.28)" stroke-width="1">
    <defs>
     <path id="DejaVuSans-46" transform="scale(.015625)" d="m628 4666h2681v-532h-2050v-1375h1850v-531h-1850v-2228h-631z"/>
     <path id="DejaVuSans-69" transform="scale(.015625)" d="m603 3500h575v-3500h-575zm0 1363h575v-729h-575z"/>
     <path id="DejaVuSans-6e" transform="scale(.015625)" d="m3513 2113v-2113h-575v2094q0 497-194 743-194 247-581 247-466 0-735-297-269-296-269-809v-1978h-578v3500h578v-544q207 316 486 472 280 156 646 156 603 0 912-373 310-373 310-1098z"/>
     <path id="DejaVuSans-73" transform="scale(.015625)" d="m2834 3397v-544q-243 125-506 187-262 63-544 63-428 0-642-131t-214-394q0-200 153-314t616-217l197-44q612-131 870-370t258-667q0-488-386-773-386-284-1061-284-281 0-586 55t-642 164v594q319-166 628-249 309-82 613-82 406 0 624 139 219 139 219 392 0 234-158 359-157 125-692 241l-200 47q-534 112-772 345-237 233-237 639 0 494 350 762 350 269 994 269 318 0 599-47 282-46 519-140z"/>
     <path id="DejaVuSans-68" transform="scale(.015625)" d="m3513 2113v-2113h-575v2094q0 497-194 743-194 247-581 247-466 0-735-297-269-296-269-809v-1978h-578v4863h578v-1907q207 316 486 472 280 156 646 156 603 0 912-373 310-373 310-1098z"/>
     <path id="DejaVuSans-74" transform="scale(.015625)" d="m1172 4494v-994h1184v-447h-1184v-1900q0-428 117-550t477-122h590v-481h-590q-666 0-919 248-253 249-253 905v1900h-422v447h422v994z"/>
     <path id="DejaVuSans-6d" transform="scale(.015625)" d="m3328 2828q216 388 516 572t706 184q547 0 844-383 297-382 297-1088v-2113h-578v2094q0 503-179 746-178 244-543 244-447 0-707-297-259-296-259-809v-1978h-578v2094q0 506-178 748t-550 242q-441 0-701-298-259-298-259-808v-1978h-578v3500h578v-544q197 322 472 475t653 153q382 0 649-194 267-193 395-562z"/>
     <path id="DejaVuSans-65" transform="scale(.015625)" d="m3597 1894v-281h-2644q38-594 358-905t892-311q331 0 642 81t618 244v-544q-310-131-635-200t-659-69q-838 0-1327 487-489 488-489 1320 0 859 464 1363 464 505 1252 505 706 0 1117-455 411-454 411-1235zm-575 169q-6 471-264 752-258 282-683 282-481 0-770-272t-333-766z"/>
     <path id="DejaVuSans-28" transform="scale(.015625)" d="m1984 4856q-418-718-622-1422-203-703-203-1425 0-721 205-1429t620-1424h-500q-468 735-701 1444t-233 1409q0 697 231 1403 232 707 703 1444z"/>
     <path id="DejaVuSans-6f" transform="scale(.015625)" d="m1959 3097q-462 0-731-361t-269-989 267-989q268-361 733-361 460 0 728 362 269 363 269 988 0 622-269 986-268 364-728 364zm0 487q750 0 1178-488 429-487 429-1349 0-859-429-1349-428-489-1178-489-753 0-1180 489-426 490-426 1349 0 862 426 1349 427 488 1180 488z"/>
     <path id="DejaVuSans-75" transform="scale(.015625)" d="m544 1381v2119h575v-2097q0-497 193-746 194-248 582-248 465 0 735 297 271 297 271 810v1984h575v-3500h-575v538q-209-319-486-474-276-155-642-155-603 0-916 375-312 375-312 1097z"/>
     <path id="DejaVuSans-72" transform="scale(.015625)" d="m2631 2963q-97 56-211 82-114 27-251 27-488 0-749-317t-261-911v-1844h-578v3500h578v-544q182 319 472 473 291 155 707 155 59 0 131-8 72-7 159-23z"/>
     <path id="DejaVuSans-29" transform="scale(.015625)" d="m513 4856h500q468-737 701-1444 233-706 233-1403 0-700-233-1409t-701-1444h-500q415 716 620 1424t205 1429q0 722-205 1425-205 704-620 1422z"/>
    </defs>
    <g stroke-width="1">
     <use width="100%" height="100%" xlink:href="#DejaVuSans-46"/>
     <use x="50.269531" width="100%" height="100%" xlink:href="#DejaVuSans-69"/>
     <use x="78.052734" width="100%" height="100%" xlink:href="#DejaVuSans-6e"/>
     <use x="141.43164" width="100%" height="100%" xlink:href="#DejaVuSans-69"/>
     <use x="169.21484" width="100%" height="100%" xlink:href="#DejaVuSans-73"/>
     <use x="221.31445" width="100%" height="100%" xlink:href="#DejaVuSans-68"/>
     <use x="284.69336" width="100%" height="100%" xlink:href="#DejaVuSans-20"/>
     <use x="316.48047" width="100%" height="100%" xlink:href="#DejaVuSans-74"/>
     <use x="355.68945" width="100%" height="100%" xlink:href="#DejaVuSans-69"/>
     <use x="383.47266" width="100%" height="100%" xlink:href="#DejaVuSans-6d"/>
     <use x="480.88477" width="100%" height="100%" xlink:href="#DejaVuSans-65"/>
     <use x="542.4082" width="100%" height="100%" xlink:href="#DejaVuSans-20"/>
     <use x="574.19531" width="100%" height="100%" xlink:href="#DejaVuSans-28"/>
     <use x="613.20898" width="100%" height="100%" xlink:href="#DejaVuSans-68"/>
     <use x="676.58789" width="100%" height="100%" xlink:href="#DejaVuSans-6f"/>
     <use x="737.76953" width="100%" height="100%" xlink:href="#DejaVuSans-75"/>
     <use x="801.14844" width="100%" height="100%" xlink:href="#DejaVuSans-72"/>
     <use x="842.26172" width="100%" height="100%" xlink:href="#DejaVuSans-73"/>
     <use x="894.36133" width="100%" height="100%" xlink:href="#DejaVuSans-29"/>
    </g>
   </g>
   <defs>
    <path id="m55ccc52920" d="m0 0h-3.5" stroke="#000" stroke-width=".8"/>
   </defs>
   <g stroke-width=".1">
    <use x="54" y="252" width="100%" height="100%" stroke="#000000" stroke-width=".1" xlink:href="#m55ccc52920"/>
   </g>
   <!-- 0 -->
   <g transform="matrix(.1 0 0 -.1 40.638 255.8)" stroke-width="1">
    <defs>
     <path id="DejaVuSans-30" transform="scale(.015625)" d="m2034 4250q-487 0-733-480-245-479-245-1442 0-959 245-1439 246-480 733-480 491 0 736 480 246 480 246 1439 0 963-246 1442-245 480-736 480zm0 500q785 0 1199-621 414-620 414-1801 0-1178-414-1799-414-620-1199-620-784 0-1198 620-414 621-414 1799 0 1181 414 1801 414 621 1198 621z"/>
    </defs>
    <use width="100%" height="100%" stroke-width="1" xlink:href="#DejaVuSans-30"/>
   </g>
   <g stroke-width=".1">
    <use x="54" y="225.90553" width="100%" height="100%" stroke="#000000" stroke-width=".1" xlink:href="#m55ccc52920"/>
   </g>
   <!-- 250 -->
   <g transform="matrix(.1 0 0 -.1 27.912 229.7)" stroke-width="1">
    <use width="100%" height="100%" xlink:href="#DejaVuSans-32"/>
    <use x="63.623047" width="100%" height="100%" xlink:href="#DejaVuSans-35"/>
    <use x="127.24609" width="100%" height="100%" xlink:href="#DejaVuSans-30"/>
   </g>
   <g stroke-width=".1">
    <use x="54" y="199.81107" width="100%" height="100%" stroke="#000000" stroke-width=".1" xlink:href="#m55ccc52920"/>
   </g>
   <!-- 500 -->
   <g transform="matrix(.1 0 0 -.1 27.912 203.61)" stroke-width="1">
    <use width="100%" height="100%" xlink:href="#DejaVuSans-35"/>
    <use x="63.623047" width="100%" height="100%" xlink:href="#DejaVuSans-30"/>
    <use x="127.24609" width="100%" height="100%" xlink:href="#DejaVuSans-30"/>
   </g>
   <g stroke-width=".1">
    <use x="54" y="173.71658" width="100%" height="100%" stroke="#000000" stroke-width=".1" xlink:href="#m55ccc52920"/>
   </g>
   <!-- 750 -->
   <g transform="matrix(.1 0 0 -.1 27.912 177.52)" stroke-width="1">
    <use width="100%" height="100%" xlink:href="#DejaVuSans-37"/>
    <use x="63.623047" width="100%" height="100%" xlink:href="#DejaVuSans-35"/>
    <use x="127.24609" width="100%" height="100%" xlink:href="#DejaVuSans-30"/>
   </g>
   <g stroke-width=".1">
    <use x="54" y="147.62212" width="100%" height="100%" stroke="#000000" stroke-width=".1" xlink:href="#m55ccc52920"/>
   </g>
   <!-- 1000 -->
   <g transform="matrix(.1 0 0 -.1 21.55 151.42)" stroke-width="1">
    <defs>
     <path id="DejaVuSans-31" transform="scale(.015625)" d="m794 531h1031v3560l-1122-225v575l1116 225h631v-4135h1031v-531h-2687z"/>
    </defs>
    <g stroke-width="1">
     <use width="100%" height="100%" xlink:href="#DejaVuSans-31"/>
     <use x="63.623047" width="100%" height="100%" xlink:href="#DejaVuSans-30"/>
     <use x="127.24609" width="100%" height="100%" xlink:href="#DejaVuSans-30"/>
     <use x="190.86914" width="100%" height="100%" xlink:href="#DejaVuSans-30"/>
    </g>
   </g>
   <g stroke-width=".1">
    <use x="54" y="121.52765" width="100%" height="100%" stroke="#000000" stroke-width=".1" xlink:href="#m55ccc52920"/>
   </g>
   <!-- 1250 -->
   <g transform="matrix(.1 0 0 -.1 21.55 125.33)" stroke-width="1">
    <use width="100%" height="100%" xlink:href="#DejaVuSans-31"/>
    <use x="63.623047" width="100%" height="100%" xlink:href="#DejaVuSans-32"/>
    <use x="127.24609" width="100%" height="100%" xlink:href="#DejaVuSans-35"/>
    <use x="190.86914" width="100%" height="100%" xlink:href="#DejaVuSans-30"/>
   </g>
   <g stroke-width=".1">
    <use x="54" y="95.433182" width="100%" height="100%" stroke="#000000" stroke-width=".1" xlink:href="#m55ccc52920"/>
   </g>
   <!-- 1500 -->
   <g transform="matrix(.1 0 0 -.1 21.55 99.232)" stroke-width="1">
    <use width="100%" height="100%" xlink:href="#DejaVuSans-31"/>
    <use x="63.623047" width="100%" height="100%" xlink:href="#DejaVuSans-35"/>
    <use x="127.24609" width="100%" height="100%" xlink:href="#DejaVuSans-30"/>
    <use x="190.86914" width="100%" height="100%" xlink:href="#DejaVuSans-30"/>
   </g>
   <g stroke-width=".1">
    <use x="54" y="69.338707" width="100%" height="100%" stroke="#000000" stroke-width=".1" xlink:href="#m55ccc52920"/>
   </g>
   <!-- 1750 -->
   <g transform="matrix(.1 0 0 -.1 21.55 73.138)" stroke-width="1">
    <use width="100%" height="100%" xlink:href="#DejaVuSans-31"/>
    <use x="63.623047" width="100%" height="100%" xlink:href="#DejaVuSans-37"/>
    <use x="127.24609" width="100%" height="100%" xlink:href="#DejaVuSans-35"/>
    <use x="190.86914" width="100%" height="100%" xlink:href="#DejaVuSans-30"/>
   </g>
   <g stroke-width=".1">
    <use x="54" y="43.24424" width="100%" height="100%" stroke="#000000" stroke-width=".1" xlink:href="#m55ccc52920"/>
   </g>
   <!-- 2000 -->
   <g transform="matrix(.1 0 0 -.1 21.55 47.043)" stroke-width="1">
    <use width="100%" height="100%" xlink:href="#DejaVuSans-32"/>
    <use x="63.623047" width="100%" height="100%" xlink:href="#DejaVuSans-30"/>
    <use x="127.24609" width="100%" height="100%" xlink:href="#DejaVuSans-30"/>
    <use x="190.86914" width="100%" height="100%" xlink:href="#DejaVuSans-30"/>
   </g>
   <!-- Number of runners -->
   <g transform="matrix(0 -.1 -.1 0 15.47 190.66)" stroke-width="1">
    <defs>
     <path id="DejaVuSans-4e" transform="scale(.015625)" d="m628 4666h850l2069-3903v3903h612v-4666h-850l-2068 3903v-3903h-613z"/>
     <path id="DejaVuSans-62" transform="scale(.015625)" d="m3116 1747q0 634-261 995t-717 361q-457 0-718-361t-261-995 261-995 718-361q456 0 717 361t261 995zm-1957 1222q182 312 458 463 277 152 661 152 638 0 1036-506 399-506 399-1331t-399-1332q-398-506-1036-506-384 0-661 152-276 152-458 464v-525h-578v4863h578z"/>
     <path id="DejaVuSans-66" transform="scale(.015625)" d="m2375 4863v-479h-550q-309 0-430-125-120-125-120-450v-309h947v-447h-947v-3053h-578v3053h-550v447h550v244q0 584 272 851 272 268 862 268z"/>
    </defs>
    <g stroke-width="1">
     <use width="100%" height="100%" xlink:href="#DejaVuSans-4e"/>
     <use x="74.804688" width="100%" height="100%" xlink:href="#DejaVuSans-75"/>
     <use x="138.18359" width="100%" height="100%" xlink:href="#DejaVuSans-6d"/>
     <use x="235.5957" width="100%" height="100%" xlink:href="#DejaVuSans-62"/>
     <use x="299.07227" width="100%" height="100%" xlink:href="#DejaVuSans-65"/>
     <use x="360.5957" width="100%" height="100%" xlink:href="#DejaVuSans-72"/>
     <use x="401.70898" width="100%" height="100%" xlink:href="#DejaVuSans-20"/>
     <use x="433.49609" width="100%" height="100%" xlink:href="#DejaVuSans-6f"/>
     <use x="494.67773" width="100%" height="100%" xlink:href="#DejaVuSans-66"/>
     <use x="529.88281" width="100%" height="100%" xlink:href="#DejaVuSans-20"/>
     <use x="561.66992" width="100%" height="100%" xlink:href="#DejaVuSans-72"/>
     <use x="602.7832" width="100%" height="100%" xlink:href="#DejaVuSans-75"/>
     <use x="666.16211" width="100%" height="100%" xlink:href="#DejaVuSans-6e"/>
     <use x="729.54102" width="100%" height="100%" xlink:href="#DejaVuSans-6e"/>
     <use x="792.91992" width="100%" height="100%" xlink:href="#DejaVuSans-65"/>
     <use x="854.44336" width="100%" height="100%" xlink:href="#DejaVuSans-72"/>
     <use x="895.55664" width="100%" height="100%" xlink:href="#DejaVuSans-73"/>
    </g>
   </g>
  </g>
  <g stroke-width=".5">
   <path d="m54 252v-217.44" fill="none" stroke="#000" stroke-linecap="square" stroke-width=".5"/>
  </g>
  <g stroke-width=".5">
   <path d="m54 252h334.8" fill="none" stroke="#000" stroke-linecap="square" stroke-width=".5"/>
  </g>
  <path d="m272.11 51.158h20v-7h-20z" fill="#1f77b4" stroke="#000" stroke-width=".1"/>
  <!-- Boston 2019 -->
  <g transform="matrix(.1 0 0 -.1 300.11 51.158)">
   <defs>
    <path id="DejaVuSans-42" transform="scale(.015625)" d="m1259 2228v-1709h1013q509 0 754 211 246 211 246 645 0 438-246 645-245 208-754 208zm0 1919v-1406h935q462 0 688 173 227 174 227 530 0 353-227 528-226 175-688 175zm-631 519h1613q722 0 1112-300 391-300 391-853 0-429-200-682t-588-315q466-100 724-418 258-317 258-792 0-625-425-966-425-340-1210-340h-1675z"/>
    <path id="DejaVuSans-39" transform="scale(.015625)" d="m703 97v575q238-113 481-172 244-59 479-59 625 0 954 420 330 420 377 1277-181-269-460-413-278-144-615-144-700 0-1108 423-408 424-408 1159 0 718 425 1152 425 435 1131 435 810 0 1236-621 427-620 427-1801 0-1103-524-1761-523-658-1407-658-238 0-482 47-243 47-506 141zm1256 1978q425 0 673 290 249 291 249 798 0 503-249 795-248 292-673 292t-673-292-248-795q0-507 248-798 248-290 673-290z"/>
   </defs>
   <g>
    <use width="100%" height="100%" xlink:href="#DejaVuSans-42"/>
    <use x="68.603516" width="100%" height="100%" xlink:href="#DejaVuSans-6f"/>
    <use x="129.78516" width="100%" height="100%" xlink:href="#DejaVuSans-73"/>
    <use x="181.88477" width="100%" height="100%" xlink:href="#DejaVuSans-74"/>
    <use x="221.09375" width="100%" height="100%" xlink:href="#DejaVuSans-6f"/>
    <use x="282.27539" width="100%" height="100%" xlink:href="#DejaVuSans-6e"/>
    <use x="345.6543" width="100%" height="100%" xlink:href="#DejaVuSans-20"/>
    <use x="377.44141" width="100%" height="100%" xlink:href="#DejaVuSans-32"/>
    <use x="441.06445" width="100%" height="100%" xlink:href="#DejaVuSans-30"/>
    <use x="504.6875" width="100%" height="100%" xlink:href="#DejaVuSans-31"/>
    <use x="568.31055" width="100%" height="100%" xlink:href="#DejaVuSans-39"/>
   </g>
  </g>
  <path d="m272.11 65.837h20v-7h-20z" fill="#bfbf00" fill-opacity=".6" stroke="#000" stroke-width=".1"/>
  <!-- Berlin 2019 -->
  <g transform="matrix(.1 0 0 -.1 300.11 65.837)">
   <defs>
    <path id="DejaVuSans-6c" transform="scale(.015625)" d="m603 4863h575v-4863h-575z"/>
   </defs>
   <g>
    <use width="100%" height="100%" xlink:href="#DejaVuSans-42"/>
    <use x="68.603516" width="100%" height="100%" xlink:href="#DejaVuSans-65"/>
    <use x="130.12695" width="100%" height="100%" xlink:href="#DejaVuSans-72"/>
    <use x="171.24023" width="100%" height="100%" xlink:href="#DejaVuSans-6c"/>
    <use x="199.02344" width="100%" height="100%" xlink:href="#DejaVuSans-69"/>
    <use x="226.80664" width="100%" height="100%" xlink:href="#DejaVuSans-6e"/>
    <use x="290.18555" width="100%" height="100%" xlink:href="#DejaVuSans-20"/>
    <use x="321.97266" width="100%" height="100%" xlink:href="#DejaVuSans-32"/>
    <use x="385.5957" width="100%" height="100%" xlink:href="#DejaVuSans-30"/>
    <use x="449.21875" width="100%" height="100%" xlink:href="#DejaVuSans-31"/>
    <use x="512.8418" width="100%" height="100%" xlink:href="#DejaVuSans-39"/>
   </g>
  </g>
  <path d="m272.11 80.515h20v-7h-20z" fill="#f00" fill-opacity=".4" stroke="#000" stroke-width=".1"/>
  <!-- Last 3 Olympics -->
  <g transform="matrix(.1 0 0 -.1 300.11 80.515)">
   <defs>
    <path id="DejaVuSans-4c" transform="scale(.015625)" d="m628 4666h631v-4135h2272v-531h-2903z"/>
    <path id="DejaVuSans-61" transform="scale(.015625)" d="m2194 1759q-697 0-966-159t-269-544q0-306 202-486 202-179 548-179 479 0 768 339t289 901v128zm1147 238v-1997h-575v531q-197-318-491-470t-719-152q-537 0-855 302-317 302-317 808 0 590 395 890 396 300 1180 300h807v57q0 397-261 614t-733 217q-300 0-585-72-284-72-546-216v532q315 122 612 182 297 61 578 61 760 0 1135-394 375-393 375-1193z"/>
    <path id="DejaVuSans-4f" transform="scale(.015625)" d="m2522 4238q-688 0-1093-513-404-512-404-1397 0-881 404-1394 405-512 1093-512 687 0 1089 512 402 513 402 1394 0 885-402 1397-402 513-1089 513zm0 512q981 0 1568-658 588-658 588-1764 0-1103-588-1761-587-658-1568-658-984 0-1574 656-589 657-589 1763t589 1764q590 658 1574 658z"/>
    <path id="DejaVuSans-79" transform="scale(.015625)" d="m2059-325q-243-625-475-815-231-191-618-191h-460v481h338q237 0 368 113 132 112 291 531l103 262-1415 3444h609l1094-2737 1094 2737h609z"/>
    <path id="DejaVuSans-70" transform="scale(.015625)" d="m1159 525v-1856h-578v4831h578v-531q182 312 458 463 277 152 661 152 638 0 1036-506 399-506 399-1331t-399-1332q-398-506-1036-506-384 0-661 152-276 152-458 464zm1957 1222q0 634-261 995t-717 361q-457 0-718-361t-261-995 261-995 718-361q456 0 717 361t261 995z"/>
    <path id="DejaVuSans-63" transform="scale(.015625)" d="m3122 3366v-538q-244 135-489 202t-495 67q-560 0-870-355-309-354-309-995t309-996q310-354 870-354 250 0 495 67t489 202v-532q-241-112-499-168-257-57-548-57-791 0-1257 497-465 497-465 1341 0 856 470 1346 471 491 1290 491 265 0 518-55 253-54 491-163z"/>
   </defs>
   <g>
    <use width="100%" height="100%" xlink:href="#DejaVuSans-4c"/>
    <use x="55.712891" width="100%" height="100%" xlink:href="#DejaVuSans-61"/>
    <use x="116.99219" width="100%" height="100%" xlink:href="#DejaVuSans-73"/>
    <use x="169.0918" width="100%" height="100%" xlink:href="#DejaVuSans-74"/>
    <use x="208.30078" width="100%" height="100%" xlink:href="#DejaVuSans-20"/>
    <use x="240.08789" width="100%" height="100%" xlink:href="#DejaVuSans-33"/>
    <use x="303.71094" width="100%" height="100%" xlink:href="#DejaVuSans-20"/>
    <use x="335.49805" width="100%" height="100%" xlink:href="#DejaVuSans-4f"/>
    <use x="414.20898" width="100%" height="100%" xlink:href="#DejaVuSans-6c"/>
    <use x="441.99219" width="100%" height="100%" xlink:href="#DejaVuSans-79"/>
    <use x="501.17188" width="100%" height="100%" xlink:href="#DejaVuSans-6d"/>
    <use x="598.58398" width="100%" height="100%" xlink:href="#DejaVuSans-70"/>
    <use x="662.06055" width="100%" height="100%" xlink:href="#DejaVuSans-69"/>
    <use x="689.84375" width="100%" height="100%" xlink:href="#DejaVuSans-63"/>
    <use x="744.82422" width="100%" height="100%" xlink:href="#DejaVuSans-73"/>
   </g>
  </g>
 </g>
 <defs>
  <clipPath id="p4186842cb1">
   <rect x="54" y="34.56" width="334.8" height="217.44"/>
  </clipPath>
 </defs>
</svg>
