<?xml version="1.0" encoding="UTF-8" standalone="no"?>
<svg
   version="1.1"
   viewBox="5 -1.1 47.62769 29.648857"
   id="svg986"
   sodipodi:docname="marathon-sub3-optimized-cropped.svg"
   width="145.27739"
   height="52.335358"
   inkscape:version="1.1.1 (c3084ef, 2021-09-22)"
   xmlns:inkscape="http://www.inkscape.org/namespaces/inkscape"
   xmlns:sodipodi="http://sodipodi.sourceforge.net/DTD/sodipodi-0.dtd"
   xmlns:xlink="http://www.w3.org/1999/xlink"
   xmlns="http://www.w3.org/2000/svg"
   xmlns:svg="http://www.w3.org/2000/svg"
   xmlns:rdf="http://www.w3.org/1999/02/22-rdf-syntax-ns#"
   xmlns:cc="http://creativecommons.org/ns#"
   xmlns:dc="http://purl.org/dc/elements/1.1/">
  <sodipodi:namedview
     id="namedview988"
     pagecolor="#ffffff"
     bordercolor="#666666"
     borderopacity="1.0"
     inkscape:pageshadow="2"
     inkscape:pageopacity="0.0"
     inkscape:pagecheckerboard="0"
     showgrid="false"
     fit-margin-top="1"
     fit-margin-left="1"
     fit-margin-right="1"
     fit-margin-bottom="1"
     width="152.51358px"
     viewbox-x="5"
     viewbox-width="50"
     viewbox-height="29.80919"
     viewbox-y="-1.1"
     inkscape:zoom="3.4517928"
     inkscape:cx="43.455679"
     inkscape:cy="20.279317"
     inkscape:window-width="1920"
     inkscape:window-height="1080"
     inkscape:window-x="0"
     inkscape:window-y="0"
     inkscape:window-maximized="0"
     inkscape:current-layer="g979" />
  <metadata
     id="metadata824">
    <rdf:RDF>
      <cc:Work>
        <dc:type
           rdf:resource="http://purl.org/dc/dcmitype/StillImage" />
        <dc:date>2021-11-30T08:58:35.631420</dc:date>
        <dc:format>image/svg+xml</dc:format>
        <dc:creator>
          <cc:Agent>
            <dc:title>Matplotlib v3.4.3, https://matplotlib.org/</dc:title>
          </cc:Agent>
        </dc:creator>
      </cc:Work>
    </rdf:RDF>
  </metadata>
  <defs
     id="defs828">
    <style
       type="text/css"
       id="style826">*{stroke-linecap:butt;stroke-linejoin:round;}</style>
    <clipPath
       clipPathUnits="userSpaceOnUse"
       id="clipPath1372">
      <rect
         style="fill:none;stroke:#000000;stroke-width:1.04231;stroke-opacity:1"
         id="rect1374"
         width="81.169037"
         height="32.209438"
         x="59.487484"
         y="238.22636" />
    </clipPath>
  </defs>
  <g
     id="g979"
     transform="translate(-72.121716,-238.75985)">
    <g
       stroke-width="0.1"
       id="g832">
      <path
         d="M 0,288 H 432 V 0 H 0 Z"
         fill="none"
         stroke-width="0.1"
         id="path830" />
    </g>
    <g
       stroke-width="0.1"
       id="g836" />
    <g
       id="g1268"
       clip-path="url(#clipPath1372)">
      <g
         stroke-width="0.05"
         id="g858">
        <path
           d="m 69.218,252 h 4.6116 z"
           clip-path="url(#p4186842cb1)"
           fill="#1f77b4"
           stroke="#000000"
           stroke-width="0.05"
           id="path838" />
        <path
           d="m 73.83,252 h 4.6116 v -1.0438 H 73.83 Z"
           clip-path="url(#p4186842cb1)"
           fill="#1f77b4"
           stroke="#000000"
           stroke-width="0.05"
           id="path840" />
        <path
           d="m 78.441,252 h 4.6116 v -0.62627 H 78.441 Z"
           clip-path="url(#p4186842cb1)"
           fill="#1f77b4"
           stroke="#000000"
           stroke-width="0.05"
           id="path842" />
        <path
           d="m 83.053,252 h 4.6116 v -1.2525 H 83.053 Z"
           clip-path="url(#p4186842cb1)"
           fill="#1f77b4"
           stroke="#000000"
           stroke-width="0.05"
           id="path844" />
        <path
           d="m 87.664,252 h 4.6116 v -1.67 H 87.664 Z"
           clip-path="url(#p4186842cb1)"
           fill="#1f77b4"
           stroke="#000000"
           stroke-width="0.05"
           id="path846" />
        <path
           d="m 92.276,252 h 4.6116 v -6.3671 H 92.276 Z"
           clip-path="url(#p4186842cb1)"
           fill="#1f77b4"
           stroke="#000000"
           stroke-width="0.05"
           id="path848" />
        <path
           d="m 96.888,252 h 4.6116 v -9.6028 H 96.888 Z"
           clip-path="url(#p4186842cb1)"
           fill="#1f77b4"
           stroke="#000000"
           stroke-width="0.05"
           id="path850" />
        <path
           d="m 101.5,252 h 4.6116 V 233.108 H 101.5 Z"
           clip-path="url(#p4186842cb1)"
           fill="#1f77b4"
           stroke="#000000"
           stroke-width="0.05"
           id="path852" />
        <path
           d="m 106.11,252 h 4.6116 V 223.818 H 106.11 Z"
           clip-path="url(#p4186842cb1)"
           fill="#1f77b4"
           stroke="#000000"
           stroke-width="0.05"
           id="path854" />
        <path
           d="m 110.72,252 h 4.6116 V 206.178 H 110.72 Z"
           clip-path="url(#p4186842cb1)"
           fill="#1f77b4"
           stroke="#000000"
           stroke-width="0.05"
           id="path856" />
      </g>
      <g
         stroke-width="0.1"
         id="g874">
        <path
           d="m 115.33,252 h 4.6116 V 190.208 H 115.33 Z"
           clip-path="url(#p4186842cb1)"
           fill="#1f77b4"
           stroke="#000000"
           stroke-width="0.1"
           id="path860" />
        <path
           d="m 119.95,252 h 4.6116 V 151.8 H 119.95 Z"
           clip-path="url(#p4186842cb1)"
           fill="#1f77b4"
           stroke="#000000"
           stroke-width="0.1"
           id="path862" />
        <path
           d="m 124.56,252 h 4.6116 V 169.437 H 124.56 Z"
           clip-path="url(#p4186842cb1)"
           fill="#1f77b4"
           stroke="#000000"
           stroke-width="0.1"
           id="path864" />
        <path
           d="m 129.17,252 h 4.6116 V 155.137 H 129.17 Z"
           clip-path="url(#p4186842cb1)"
           fill="#1f77b4"
           stroke="#000000"
           stroke-width="0.1"
           id="path866" />
        <path
           d="m 133.78,252 h 4.6116 V 144.28 H 133.78 Z"
           clip-path="url(#p4186842cb1)"
           fill="#1f77b4"
           stroke="#000000"
           stroke-width="0.1"
           id="path868" />
        <path
           d="m 138.39,252 h 4.6116 V 130.5 H 138.39 Z"
           clip-path="url(#p4186842cb1)"
           fill="#1f77b4"
           stroke="#000000"
           stroke-width="0.1"
           id="path870" />
        <path
           d="m 143,252 h 4.6116 V 122.47 H 143 Z"
           clip-path="url(#p4186842cb1)"
           fill="#1f77b4"
           stroke="#000000"
           stroke-width="0.1"
           id="path872" />
      </g>
      <g
         stroke-width="0.05"
         id="g898">
        <path
           d="m 69.218,252 h 4.6116 v -0.31313 H 69.218 Z"
           clip-path="url(#p4186842cb1)"
           fill="#bfbf00"
           fill-opacity="0.6"
           stroke="#000000"
           stroke-width="0.05"
           id="path876" />
        <path
           d="m 73.83,252 h 4.6116 v -0.73064 H 73.83 Z"
           clip-path="url(#p4186842cb1)"
           fill="#bfbf00"
           fill-opacity="0.6"
           stroke="#000000"
           stroke-width="0.05"
           id="path878" />
        <path
           d="m 78.441,252 h 4.6116 v -3.027 H 78.441 Z"
           clip-path="url(#p4186842cb1)"
           fill="#bfbf00"
           fill-opacity="0.6"
           stroke="#000000"
           stroke-width="0.05"
           id="path880" />
        <path
           d="m 83.053,252 h 4.6116 v -3.1313 H 83.053 Z"
           clip-path="url(#p4186842cb1)"
           fill="#bfbf00"
           fill-opacity="0.6"
           stroke="#000000"
           stroke-width="0.05"
           id="path882" />
        <path
           d="m 87.664,252 h 4.6116 v -3.7576 H 87.664 Z"
           clip-path="url(#p4186842cb1)"
           fill="#bfbf00"
           fill-opacity="0.6"
           stroke="#000000"
           stroke-width="0.05"
           id="path884" />
        <path
           d="m 92.276,252 h 4.6116 v -8.9765 H 92.276 Z"
           clip-path="url(#p4186842cb1)"
           fill="#bfbf00"
           fill-opacity="0.6"
           stroke="#000000"
           stroke-width="0.05"
           id="path886" />
        <path
           d="m 96.888,252 h 4.6116 V 240.101 H 96.888 Z"
           clip-path="url(#p4186842cb1)"
           fill="#bfbf00"
           fill-opacity="0.6"
           stroke="#000000"
           stroke-width="0.05"
           id="path888" />
        <path
           d="m 101.5,252 h 4.6116 V 232.69 H 101.5 Z"
           clip-path="url(#p4186842cb1)"
           fill="#bfbf00"
           fill-opacity="0.6"
           stroke="#000000"
           stroke-width="0.05"
           id="path890" />
        <path
           d="m 106.11,252 h 4.6116 V 225.592 H 106.11 Z"
           clip-path="url(#p4186842cb1)"
           fill="#bfbf00"
           fill-opacity="0.6"
           stroke="#000000"
           stroke-width="0.05"
           id="path892" />
        <path
           d="m 110.72,252 h 4.6116 V 214.737 H 110.72 Z"
           clip-path="url(#p4186842cb1)"
           fill="#bfbf00"
           fill-opacity="0.6"
           stroke="#000000"
           stroke-width="0.05"
           id="path894" />
        <path
           d="m 115.33,252 h 4.6116 V 208.161 H 115.33 Z"
           clip-path="url(#p4186842cb1)"
           fill="#bfbf00"
           fill-opacity="0.6"
           stroke="#000000"
           stroke-width="0.05"
           id="path896" />
      </g>
      <g
         stroke-width="0.1"
         id="g912">
        <path
           d="m 119.95,252 h 4.6116 V 167.245 H 119.95 Z"
           clip-path="url(#p4186842cb1)"
           fill="#bfbf00"
           fill-opacity="0.6"
           stroke="#000000"
           stroke-width="0.1"
           id="path900" />
        <path
           d="m 124.56,252 h 4.6116 V 189.895 H 124.56 Z"
           clip-path="url(#p4186842cb1)"
           fill="#bfbf00"
           fill-opacity="0.6"
           stroke="#000000"
           stroke-width="0.1"
           id="path902" />
        <path
           d="m 129.17,252 h 4.6116 V 179.04 H 129.17 Z"
           clip-path="url(#p4186842cb1)"
           fill="#bfbf00"
           fill-opacity="0.6"
           stroke="#000000"
           stroke-width="0.1"
           id="path904" />
        <path
           d="m 133.78,252 h 4.6116 V 162.339 H 133.78 Z"
           clip-path="url(#p4186842cb1)"
           fill="#bfbf00"
           fill-opacity="0.6"
           stroke="#000000"
           stroke-width="0.1"
           id="path906" />
        <path
           d="m 138.39,252 h 4.6116 V 152.424 H 138.39 Z"
           clip-path="url(#p4186842cb1)"
           fill="#bfbf00"
           fill-opacity="0.6"
           stroke="#000000"
           stroke-width="0.1"
           id="path908" />
        <path
           d="m 143,252 h 4.6116 V 138.02 H 143 Z"
           clip-path="url(#p4186842cb1)"
           fill="#bfbf00"
           fill-opacity="0.6"
           stroke="#000000"
           stroke-width="0.1"
           id="path910" />
      </g>
      <g
         stroke-width="0.05"
         id="g973">
        <path
           d="m 69.218,252 h 4.6116 z"
           clip-path="url(#p4186842cb1)"
           fill="#ff0000"
           fill-opacity="0.4"
           stroke="#000000"
           stroke-width="0.05"
           id="path914" />
        <path
           d="m 73.83,252 h 4.6116 v -0.73064 H 73.83 Z"
           clip-path="url(#p4186842cb1)"
           fill="#ff0000"
           fill-opacity="0.4"
           stroke="#000000"
           stroke-width="0.05"
           id="path916" />
        <path
           d="m 78.441,252 h 4.6116 v -5.4276 H 78.441 Z"
           clip-path="url(#p4186842cb1)"
           fill="#ff0000"
           fill-opacity="0.4"
           stroke="#000000"
           stroke-width="0.05"
           id="path918" />
        <path
           d="m 83.053,252 h 4.6116 V 241.458 H 83.053 Z"
           clip-path="url(#p4186842cb1)"
           fill="#ff0000"
           fill-opacity="0.4"
           stroke="#000000"
           stroke-width="0.05"
           id="path920" />
        <path
           d="m 87.664,252 h 4.6116 v -7.724 H 87.664 Z"
           clip-path="url(#p4186842cb1)"
           fill="#ff0000"
           fill-opacity="0.4"
           stroke="#000000"
           stroke-width="0.05"
           id="path922" />
        <path
           d="m 92.276,252 h 4.6116 v -8.4546 H 92.276 Z"
           clip-path="url(#p4186842cb1)"
           fill="#ff0000"
           fill-opacity="0.4"
           stroke="#000000"
           stroke-width="0.05"
           id="path924" />
        <path
           d="m 96.888,252 h 4.6116 v -8.8721 H 96.888 Z"
           clip-path="url(#p4186842cb1)"
           fill="#ff0000"
           fill-opacity="0.4"
           stroke="#000000"
           stroke-width="0.05"
           id="path926" />
        <path
           d="m 101.5,252 h 4.6116 v -8.4546 H 101.5 Z"
           clip-path="url(#p4186842cb1)"
           fill="#ff0000"
           fill-opacity="0.4"
           stroke="#000000"
           stroke-width="0.05"
           id="path928" />
        <path
           d="m 106.11,252 h 4.6116 v -4.5926 H 106.11 Z"
           clip-path="url(#p4186842cb1)"
           fill="#ff0000"
           fill-opacity="0.4"
           stroke="#000000"
           stroke-width="0.05"
           id="path930" />
        <path
           d="m 110.72,252 h 4.6116 v -4.4882 H 110.72 Z"
           clip-path="url(#p4186842cb1)"
           fill="#ff0000"
           fill-opacity="0.4"
           stroke="#000000"
           stroke-width="0.05"
           id="path932" />
        <path
           d="m 115.33,252 h 4.6116 v -1.67 H 115.33 Z"
           clip-path="url(#p4186842cb1)"
           fill="#ff0000"
           fill-opacity="0.4"
           stroke="#000000"
           stroke-width="0.05"
           id="path934" />
        <path
           d="m 119.95,252 h 4.6116 v -0.9394 H 119.95 Z"
           clip-path="url(#p4186842cb1)"
           fill="#ff0000"
           fill-opacity="0.4"
           stroke="#000000"
           stroke-width="0.05"
           id="path936" />
        <path
           d="m 124.56,252 h 4.6116 v -0.9394 H 124.56 Z"
           clip-path="url(#p4186842cb1)"
           fill="#ff0000"
           fill-opacity="0.4"
           stroke="#000000"
           stroke-width="0.05"
           id="path938" />
        <path
           d="m 129.17,252 h 4.6116 v -0.41751 H 129.17 Z"
           clip-path="url(#p4186842cb1)"
           fill="#ff0000"
           fill-opacity="0.4"
           stroke="#000000"
           stroke-width="0.05"
           id="path940" />
        <path
           d="m 133.78,252 h 4.6116 v -0.20876 H 133.78 Z"
           clip-path="url(#p4186842cb1)"
           fill="#ff0000"
           fill-opacity="0.4"
           stroke="#000000"
           stroke-width="0.05"
           id="path942" />
        <path
           d="m 138.39,252 h 4.6116 v -0.20876 H 138.39 Z"
           clip-path="url(#p4186842cb1)"
           fill="#ff0000"
           fill-opacity="0.4"
           stroke="#000000"
           stroke-width="0.05"
           id="path944" />
        <path
           d="m 143,252 h 4.6116 v -0.20876 H 143 Z"
           clip-path="url(#p4186842cb1)"
           fill="#ff0000"
           fill-opacity="0.4"
           stroke="#000000"
           stroke-width="0.05"
           id="path946" />
        <defs
           id="defs949">
          <path
             id="m2291b10755"
             d="M 0,0 V 3.5"
             stroke="#000000"
             stroke-width="0.8" />
        </defs>
        <g
           stroke-width="0.05"
           id="g953">
          <use
             x="69.218185"
             y="252"
             stroke="#000000"
             stroke-width="0.05"
             xlink:href="#m2291b10755"
             id="use951"
             width="100%"
             height="100%" />
        </g>
        <!-- 2 -->
        <g
           transform="matrix(0.1,0,0,-0.1,66.037,266.6)"
           stroke-width="0.5"
           id="g960">
          <defs
             id="defs956">
            <path
               id="DejaVuSans-32"
               transform="scale(0.015625)"
               d="M 1228,531 H 3431 V 0 H 469 v 531 q 359,372 979,998 621,627 780,809 303,340 423,576 121,236 121,464 0,372 -261,606 -261,235 -680,235 -297,0 -627,-103 -329,-103 -704,-313 v 638 q 381,153 712,231 332,78 607,78 725,0 1156,-363 431,-362 431,-968 0,-288 -108,-546 -107,-257 -392,-607 -78,-91 -497,-524 Q 1991,1309 1228,531 Z" />
          </defs>
          <use
             stroke-width="0.5"
             xlink:href="#DejaVuSans-32"
             id="use958"
             x="0"
             y="0"
             width="100%"
             height="100%" />
        </g>
        <g
           stroke-width="0.05"
           id="g964">
          <use
             x="124.55702"
             y="252"
             stroke="#000000"
             stroke-width="0.05"
             xlink:href="#m2291b10755"
             id="use962"
             width="100%"
             height="100%" />
        </g>
        <!-- 3 -->
        <g
           transform="matrix(0.1,0,0,-0.1,121.38,266.6)"
           stroke-width="0.5"
           id="g971">
          <defs
             id="defs967">
            <path
               id="DejaVuSans-33"
               transform="scale(0.015625)"
               d="m 2597,2516 q 453,-97 707,-404 255,-306 255,-756 0,-690 -475,-1069 -475,-378 -1350,-378 -293,0 -604,58 -311,58 -642,174 v 609 q 262,-153 574,-231 313,-78 654,-78 593,0 904,234 311,234 311,681 0,413 -289,645 -289,233 -804,233 h -544 v 519 h 569 q 465,0 712,186 247,186 247,536 0,359 -255,551 -254,193 -729,193 -260,0 -557,-57 -297,-56 -653,-174 v 562 q 360,100 674,150 314,50 592,50 719,0 1137,-327 419,-326 419,-882 0,-388 -222,-655 -222,-267 -631,-370 z" />
          </defs>
          <use
             stroke-width="0.5"
             xlink:href="#DejaVuSans-33"
             id="use969"
             x="0"
             y="0"
             width="100%"
             height="100%" />
        </g>
      </g>
      <g
         transform="matrix(0.27961,0,0,1,38.901,0)"
         stroke-width="0.5"
         id="g977">
        <path
           d="M 54,252 H 388.8"
           fill="none"
           stroke="#000000"
           stroke-linecap="square"
           stroke-width="0.094556"
           id="path975" />
      </g>
    </g>
  </g>
  <defs
     id="defs984">
    <clipPath
       id="p4186842cb1">
      <rect
         x="54"
         y="34.560001"
         width="334.79999"
         height="217.44"
         id="rect981" />
    </clipPath>
  </defs>
</svg>
