<?xml version="1.0" encoding="UTF-8" standalone="no"?>
<svg
   width="394.25763pt"
   height="267.79968pt"
   version="1.1"
   viewBox="0 0 394.25763 267.79968"
   id="svg1422"
   sodipodi:docname="menstrual_cycle_length_distribution.svg"
   inkscape:version="1.1.1 (c3084ef, 2021-09-22)"
   xmlns:inkscape="http://www.inkscape.org/namespaces/inkscape"
   xmlns:sodipodi="http://sodipodi.sourceforge.net/DTD/sodipodi-0.dtd"
   xmlns:xlink="http://www.w3.org/1999/xlink"
   xmlns="http://www.w3.org/2000/svg"
   xmlns:svg="http://www.w3.org/2000/svg"
   xmlns:rdf="http://www.w3.org/1999/02/22-rdf-syntax-ns#"
   xmlns:cc="http://creativecommons.org/ns#"
   xmlns:dc="http://purl.org/dc/elements/1.1/">
  <sodipodi:namedview
     id="namedview1424"
     pagecolor="#ffffff"
     bordercolor="#666666"
     borderopacity="1.0"
     inkscape:pageshadow="2"
     inkscape:pageopacity="0.0"
     inkscape:pagecheckerboard="0"
     inkscape:document-units="pt"
     showgrid="false"
     fit-margin-top="10"
     fit-margin-left="10"
     fit-margin-right="10"
     fit-margin-bottom="10"
     inkscape:zoom="1.1411556"
     inkscape:cx="296.19099"
     inkscape:cy="186.6529"
     inkscape:window-width="1920"
     inkscape:window-height="1080"
     inkscape:window-x="0"
     inkscape:window-y="0"
     inkscape:window-maximized="0"
     inkscape:current-layer="svg1422" />
  <metadata
     id="metadata1117">
    <rdf:RDF>
      <cc:Work>
        <dc:type
           rdf:resource="http://purl.org/dc/dcmitype/StillImage" />
        <dc:date>2021-12-14T15:08:05.753486</dc:date>
        <dc:format>image/svg+xml</dc:format>
        <dc:creator>
          <cc:Agent>
            <dc:title>Matplotlib v3.5.0, https://matplotlib.org/</dc:title>
          </cc:Agent>
        </dc:creator>
      </cc:Work>
    </rdf:RDF>
  </metadata>
  <defs
     id="defs1121">
    <style
       type="text/css"
       id="style1119">*{stroke-linejoin: round; stroke-linecap: butt}</style>
  </defs>
  <path
     d="M -4.542375,263.44 H 427.45762 v -288 H -4.542375 Z"
     fill="none"
     id="path1123" />
  <path
     d="M 49.457625,227.44 H 384.25762 V 10 H 49.457625 Z"
     fill="#ffffff"
     id="path1125" />
  <path
     d="m 69.218,252 h 8.4545 v -1.755 H 69.218 Z"
     clip-path="url(#p3d7b669515)"
     fill="#1f77b4"
     fill-opacity="0.5"
     stroke="#000000"
     stroke-width="0.84546"
     id="path1127"
     transform="translate(-4.542375,-24.56)" />
  <path
     d="m 77.673,252 h 8.4545 v -0.87748 H 77.673 Z"
     clip-path="url(#p3d7b669515)"
     fill="#1f77b4"
     fill-opacity="0.5"
     stroke="#000000"
     stroke-width="0.84546"
     id="path1129"
     transform="translate(-4.542375,-24.56)" />
  <path
     d="m 86.127,252 h 8.4545 v -0.87748 H 86.127 Z"
     clip-path="url(#p3d7b669515)"
     fill="#1f77b4"
     fill-opacity="0.5"
     stroke="#000000"
     stroke-width="0.84546"
     id="path1131"
     transform="translate(-4.542375,-24.56)" />
  <path
     d="m 94.582,252 h 8.4545 v -3.5099 H 94.582 Z"
     clip-path="url(#p3d7b669515)"
     fill="#1f77b4"
     fill-opacity="0.5"
     stroke="#000000"
     stroke-width="0.84546"
     id="path1133"
     transform="translate(-4.542375,-24.56)" />
  <path
     d="m 103.04,252 h 8.4545 v -1.755 H 103.04 Z"
     clip-path="url(#p3d7b669515)"
     fill="#1f77b4"
     fill-opacity="0.5"
     stroke="#000000"
     stroke-width="0.84546"
     id="path1135"
     transform="translate(-4.542375,-24.56)" />
  <path
     d="m 111.49,252 h 8.4545 V 235.328 H 111.49 Z"
     clip-path="url(#p3d7b669515)"
     fill="#1f77b4"
     fill-opacity="0.5"
     stroke="#000000"
     stroke-width="0.84546"
     id="path1137"
     transform="translate(-4.542375,-24.56)" />
  <path
     d="m 119.95,252 h 8.4545 V 206.371 H 119.95 Z"
     clip-path="url(#p3d7b669515)"
     fill="#1f77b4"
     fill-opacity="0.5"
     stroke="#000000"
     stroke-width="0.84546"
     id="path1139"
     transform="translate(-4.542375,-24.56)" />
  <path
     d="m 128.4,252 h 8.4545 V 154.6 H 128.4 Z"
     clip-path="url(#p3d7b669515)"
     fill="#1f77b4"
     fill-opacity="0.5"
     stroke="#000000"
     stroke-width="0.84546"
     id="path1141"
     transform="translate(-4.542375,-24.56)" />
  <path
     d="m 136.85,252 h 8.4545 V 89.67 H 136.85 Z"
     clip-path="url(#p3d7b669515)"
     fill="#1f77b4"
     fill-opacity="0.5"
     stroke="#000000"
     stroke-width="0.84546"
     id="path1143"
     transform="translate(-4.542375,-24.56)" />
  <path
     d="m 145.31,252 h 8.4545 V 64.22 H 145.31 Z"
     clip-path="url(#p3d7b669515)"
     fill="#1f77b4"
     fill-opacity="0.5"
     stroke="#000000"
     stroke-width="0.84546"
     id="path1145"
     transform="translate(-4.542375,-24.56)" />
  <path
     d="m 153.76,252 h 8.4545 V 44.91 H 153.76 Z"
     clip-path="url(#p3d7b669515)"
     fill="#1f77b4"
     fill-opacity="0.5"
     stroke="#000000"
     stroke-width="0.84546"
     id="path1147"
     transform="translate(-4.542375,-24.56)" />
  <path
     d="m 162.22,252 h 8.4545 V 85.28 H 162.22 Z"
     clip-path="url(#p3d7b669515)"
     fill="#1f77b4"
     fill-opacity="0.5"
     stroke="#000000"
     stroke-width="0.84546"
     id="path1149"
     transform="translate(-4.542375,-24.56)" />
  <path
     d="m 170.67,252 h 8.4545 V 119.5 H 170.67 Z"
     clip-path="url(#p3d7b669515)"
     fill="#1f77b4"
     fill-opacity="0.5"
     stroke="#000000"
     stroke-width="0.84546"
     id="path1151"
     transform="translate(-4.542375,-24.56)" />
  <path
     d="m 179.13,252 h 8.4545 V 152.845 H 179.13 Z"
     clip-path="url(#p3d7b669515)"
     fill="#1f77b4"
     fill-opacity="0.5"
     stroke="#000000"
     stroke-width="0.84546"
     id="path1153"
     transform="translate(-4.542375,-24.56)" />
  <path
     d="m 187.58,252 h 8.4545 V 156.354 H 187.58 Z"
     clip-path="url(#p3d7b669515)"
     fill="#1f77b4"
     fill-opacity="0.5"
     stroke="#000000"
     stroke-width="0.84546"
     id="path1155"
     transform="translate(-4.542375,-24.56)" />
  <path
     d="m 196.04,252 h 8.4545 V 187.066 H 196.04 Z"
     clip-path="url(#p3d7b669515)"
     fill="#1f77b4"
     fill-opacity="0.5"
     stroke="#000000"
     stroke-width="0.84546"
     id="path1157"
     transform="translate(-4.542375,-24.56)" />
  <path
     d="m 204.49,252 h 8.4545 V 217.778 H 204.49 Z"
     clip-path="url(#p3d7b669515)"
     fill="#1f77b4"
     fill-opacity="0.5"
     stroke="#000000"
     stroke-width="0.84546"
     id="path1159"
     transform="translate(-4.542375,-24.56)" />
  <path
     d="m 212.95,252 h 8.4545 V 214.268 H 212.95 Z"
     clip-path="url(#p3d7b669515)"
     fill="#1f77b4"
     fill-opacity="0.5"
     stroke="#000000"
     stroke-width="0.84546"
     id="path1161"
     transform="translate(-4.542375,-24.56)" />
  <path
     d="m 221.4,252 h 8.4545 V 228.308 H 221.4 Z"
     clip-path="url(#p3d7b669515)"
     fill="#1f77b4"
     fill-opacity="0.5"
     stroke="#000000"
     stroke-width="0.84546"
     id="path1163"
     transform="translate(-4.542375,-24.56)" />
  <path
     d="m 229.85,252 h 8.4545 V 231.818 H 229.85 Z"
     clip-path="url(#p3d7b669515)"
     fill="#1f77b4"
     fill-opacity="0.5"
     stroke="#000000"
     stroke-width="0.84546"
     id="path1165"
     transform="translate(-4.542375,-24.56)" />
  <path
     d="m 238.31,252 h 8.4545 V 230.94 H 238.31 Z"
     clip-path="url(#p3d7b669515)"
     fill="#1f77b4"
     fill-opacity="0.5"
     stroke="#000000"
     stroke-width="0.84546"
     id="path1167"
     transform="translate(-4.542375,-24.56)" />
  <path
     d="m 246.76,252 h 8.4545 v -7.0199 H 246.76 Z"
     clip-path="url(#p3d7b669515)"
     fill="#1f77b4"
     fill-opacity="0.5"
     stroke="#000000"
     stroke-width="0.84546"
     id="path1169"
     transform="translate(-4.542375,-24.56)" />
  <path
     d="m 255.22,252 h 8.4545 V 239.715 H 255.22 Z"
     clip-path="url(#p3d7b669515)"
     fill="#1f77b4"
     fill-opacity="0.5"
     stroke="#000000"
     stroke-width="0.84546"
     id="path1171"
     transform="translate(-4.542375,-24.56)" />
  <path
     d="m 263.67,252 h 8.4545 v -3.5099 H 263.67 Z"
     clip-path="url(#p3d7b669515)"
     fill="#1f77b4"
     fill-opacity="0.5"
     stroke="#000000"
     stroke-width="0.84546"
     id="path1173"
     transform="translate(-4.542375,-24.56)" />
  <path
     d="m 272.13,252 h 8.4545 v -7.0199 H 272.13 Z"
     clip-path="url(#p3d7b669515)"
     fill="#1f77b4"
     fill-opacity="0.5"
     stroke="#000000"
     stroke-width="0.84546"
     id="path1175"
     transform="translate(-4.542375,-24.56)" />
  <path
     d="m 280.58,252 h 8.4545 v -2.6324 H 280.58 Z"
     clip-path="url(#p3d7b669515)"
     fill="#1f77b4"
     fill-opacity="0.5"
     stroke="#000000"
     stroke-width="0.84546"
     id="path1177"
     transform="translate(-4.542375,-24.56)" />
  <path
     d="m 289.04,252 h 8.4545 v -0.87748 H 289.04 Z"
     clip-path="url(#p3d7b669515)"
     fill="#1f77b4"
     fill-opacity="0.5"
     stroke="#000000"
     stroke-width="0.84546"
     id="path1179"
     transform="translate(-4.542375,-24.56)" />
  <path
     d="m 297.49,252 h 8.4545 v -1.755 H 297.49 Z"
     clip-path="url(#p3d7b669515)"
     fill="#1f77b4"
     fill-opacity="0.5"
     stroke="#000000"
     stroke-width="0.84546"
     id="path1181"
     transform="translate(-4.542375,-24.56)" />
  <path
     d="m 305.95,252 h 8.4545 z"
     clip-path="url(#p3d7b669515)"
     fill="#1f77b4"
     fill-opacity="0.5"
     stroke="#000000"
     stroke-width="0.84546"
     id="path1183"
     transform="translate(-4.542375,-24.56)" />
  <path
     d="m 314.4,252 h 8.4545 z"
     clip-path="url(#p3d7b669515)"
     fill="#1f77b4"
     fill-opacity="0.5"
     stroke="#000000"
     stroke-width="0.84546"
     id="path1185"
     transform="translate(-4.542375,-24.56)" />
  <path
     d="m 322.85,252 h 8.4545 v -1.755 H 322.85 Z"
     clip-path="url(#p3d7b669515)"
     fill="#1f77b4"
     fill-opacity="0.5"
     stroke="#000000"
     stroke-width="0.84546"
     id="path1187"
     transform="translate(-4.542375,-24.56)" />
  <path
     d="m 331.31,252 h 8.4545 v -0.87748 H 331.31 Z"
     clip-path="url(#p3d7b669515)"
     fill="#1f77b4"
     fill-opacity="0.5"
     stroke="#000000"
     stroke-width="0.84546"
     id="path1189"
     transform="translate(-4.542375,-24.56)" />
  <path
     d="m 339.76,252 h 8.4545 z"
     clip-path="url(#p3d7b669515)"
     fill="#1f77b4"
     fill-opacity="0.5"
     stroke="#000000"
     stroke-width="0.84546"
     id="path1191"
     transform="translate(-4.542375,-24.56)" />
  <path
     d="m 348.22,252 h 8.4545 v -0.87748 H 348.22 Z"
     clip-path="url(#p3d7b669515)"
     fill="#1f77b4"
     fill-opacity="0.5"
     stroke="#000000"
     stroke-width="0.84546"
     id="path1193"
     transform="translate(-4.542375,-24.56)" />
  <path
     d="m 356.67,252 h 8.4545 z"
     clip-path="url(#p3d7b669515)"
     fill="#1f77b4"
     fill-opacity="0.5"
     stroke="#000000"
     stroke-width="0.84546"
     id="path1195"
     transform="translate(-4.542375,-24.56)" />
  <path
     d="m 365.13,252 h 8.4545 v -0.87748 H 365.13 Z"
     clip-path="url(#p3d7b669515)"
     fill="#1f77b4"
     fill-opacity="0.5"
     stroke="#000000"
     stroke-width="0.84546"
     id="path1197"
     transform="translate(-4.542375,-24.56)" />
  <defs
     id="defs1200">
    <path
       id="mc9ea3d6848"
       d="M 0,0 V 3.5"
       stroke="#000000"
       stroke-width="0.8" />
  </defs>
  <use
     x="86.127274"
     y="252"
     stroke="#000000"
     stroke-width="0.8"
     xlink:href="#mc9ea3d6848"
     id="use1202"
     width="100%"
     height="100%"
     transform="translate(-4.542375,-24.56)" />
  <!-- 20 -->
  <g
     transform="matrix(0.1,0,0,-0.1,75.222625,242.04)"
     id="g1212">
    <defs
       id="defs1206">
      <path
         id="DejaVuSans-32"
         transform="scale(0.015625)"
         d="M 1228,531 H 3431 V 0 H 469 v 531 q 359,372 979,998 621,627 780,809 303,340 423,576 121,236 121,464 0,372 -261,606 -261,235 -680,235 -297,0 -627,-103 -329,-103 -704,-313 v 638 q 381,153 712,231 332,78 607,78 725,0 1156,-363 431,-362 431,-968 0,-288 -108,-546 -107,-257 -392,-607 -78,-91 -497,-524 Q 1991,1309 1228,531 Z" />
      <path
         id="DejaVuSans-30"
         transform="scale(0.015625)"
         d="m 2034,4250 q -487,0 -733,-480 -245,-479 -245,-1442 0,-959 245,-1439 246,-480 733,-480 491,0 736,480 246,480 246,1439 0,963 -246,1442 -245,480 -736,480 z m 0,500 q 785,0 1199,-621 414,-620 414,-1801 0,-1178 -414,-1799 -414,-620 -1199,-620 -784,0 -1198,620 -414,621 -414,1799 0,1181 414,1801 414,621 1198,621 z" />
    </defs>
    <use
       xlink:href="#DejaVuSans-32"
       id="use1208"
       x="0"
       y="0"
       width="100%"
       height="100%" />
    <use
       x="63.623047"
       xlink:href="#DejaVuSans-30"
       id="use1210"
       y="0"
       width="100%"
       height="100%" />
  </g>
  <use
     x="128.39999"
     y="252"
     stroke="#000000"
     stroke-width="0.8"
     xlink:href="#mc9ea3d6848"
     id="use1214"
     width="100%"
     height="100%"
     transform="translate(-4.542375,-24.56)" />
  <!-- 25 -->
  <g
     transform="matrix(0.1,0,0,-0.1,117.49763,242.04)"
     id="g1223">
    <defs
       id="defs1217">
      <path
         id="DejaVuSans-35"
         transform="scale(0.015625)"
         d="M 691,4666 H 3169 V 4134 H 1269 V 2991 q 137,47 274,70 138,23 276,23 781,0 1237,-428 457,-428 457,-1159 Q 3513,744 3044,326 2575,-91 1722,-91 1428,-91 1123,-41 819,9 494,109 v 635 q 281,-153 581,-228 300,-75 634,-75 541,0 856,284 316,284 316,772 0,487 -316,771 -315,285 -856,285 -253,0 -505,-56 -251,-56 -513,-175 z" />
    </defs>
    <use
       xlink:href="#DejaVuSans-32"
       id="use1219"
       x="0"
       y="0"
       width="100%"
       height="100%" />
    <use
       x="63.623047"
       xlink:href="#DejaVuSans-35"
       id="use1221"
       y="0"
       width="100%"
       height="100%" />
  </g>
  <use
     x="170.67273"
     y="252"
     stroke="#000000"
     stroke-width="0.8"
     xlink:href="#mc9ea3d6848"
     id="use1225"
     width="100%"
     height="100%"
     transform="translate(-4.542375,-24.56)" />
  <!-- 30 -->
  <g
     transform="matrix(0.1,0,0,-0.1,159.76762,242.04)"
     id="g1234">
    <defs
       id="defs1228">
      <path
         id="DejaVuSans-33"
         transform="scale(0.015625)"
         d="m 2597,2516 q 453,-97 707,-404 255,-306 255,-756 0,-690 -475,-1069 -475,-378 -1350,-378 -293,0 -604,58 -311,58 -642,174 v 609 q 262,-153 574,-231 313,-78 654,-78 593,0 904,234 311,234 311,681 0,413 -289,645 -289,233 -804,233 h -544 v 519 h 569 q 465,0 712,186 247,186 247,536 0,359 -255,551 -254,193 -729,193 -260,0 -557,-57 -297,-56 -653,-174 v 562 q 360,100 674,150 314,50 592,50 719,0 1137,-327 419,-326 419,-882 0,-388 -222,-655 -222,-267 -631,-370 z" />
    </defs>
    <use
       xlink:href="#DejaVuSans-33"
       id="use1230"
       x="0"
       y="0"
       width="100%"
       height="100%" />
    <use
       x="63.623047"
       xlink:href="#DejaVuSans-30"
       id="use1232"
       y="0"
       width="100%"
       height="100%" />
  </g>
  <use
     x="212.94545"
     y="252"
     stroke="#000000"
     stroke-width="0.8"
     xlink:href="#mc9ea3d6848"
     id="use1236"
     width="100%"
     height="100%"
     transform="translate(-4.542375,-24.56)" />
  <!-- 35 -->
  <g
     transform="matrix(0.1,0,0,-0.1,202.03763,242.04)"
     id="g1242">
    <use
       xlink:href="#DejaVuSans-33"
       id="use1238"
       x="0"
       y="0"
       width="100%"
       height="100%" />
    <use
       x="63.623047"
       xlink:href="#DejaVuSans-35"
       id="use1240"
       y="0"
       width="100%"
       height="100%" />
  </g>
  <use
     x="255.21819"
     y="252"
     stroke="#000000"
     stroke-width="0.8"
     xlink:href="#mc9ea3d6848"
     id="use1244"
     width="100%"
     height="100%"
     transform="translate(-4.542375,-24.56)" />
  <!-- 40 -->
  <g
     transform="matrix(0.1,0,0,-0.1,244.31763,242.04)"
     id="g1253">
    <defs
       id="defs1247">
      <path
         id="DejaVuSans-34"
         transform="scale(0.015625)"
         d="M 2419,4116 825,1625 h 1594 z m -166,550 h 794 V 1625 h 666 V 1100 H 3047 V 0 H 2419 V 1100 H 313 v 609 z" />
    </defs>
    <use
       xlink:href="#DejaVuSans-34"
       id="use1249"
       x="0"
       y="0"
       width="100%"
       height="100%" />
    <use
       x="63.623047"
       xlink:href="#DejaVuSans-30"
       id="use1251"
       y="0"
       width="100%"
       height="100%" />
  </g>
  <use
     x="297.49091"
     y="252"
     stroke="#000000"
     stroke-width="0.8"
     xlink:href="#mc9ea3d6848"
     id="use1255"
     width="100%"
     height="100%"
     transform="translate(-4.542375,-24.56)" />
  <!-- 45 -->
  <g
     transform="matrix(0.1,0,0,-0.1,286.58762,242.04)"
     id="g1261">
    <use
       xlink:href="#DejaVuSans-34"
       id="use1257"
       x="0"
       y="0"
       width="100%"
       height="100%" />
    <use
       x="63.623047"
       xlink:href="#DejaVuSans-35"
       id="use1259"
       y="0"
       width="100%"
       height="100%" />
  </g>
  <use
     x="339.76364"
     y="252"
     stroke="#000000"
     stroke-width="0.8"
     xlink:href="#mc9ea3d6848"
     id="use1263"
     width="100%"
     height="100%"
     transform="translate(-4.542375,-24.56)" />
  <!-- 50 -->
  <g
     transform="matrix(0.1,0,0,-0.1,328.85762,242.04)"
     id="g1269">
    <use
       xlink:href="#DejaVuSans-35"
       id="use1265"
       x="0"
       y="0"
       width="100%"
       height="100%" />
    <use
       x="63.623047"
       xlink:href="#DejaVuSans-30"
       id="use1267"
       y="0"
       width="100%"
       height="100%" />
  </g>
  <use
     x="382.03638"
     y="252"
     stroke="#000000"
     stroke-width="0.8"
     xlink:href="#mc9ea3d6848"
     id="use1271"
     width="100%"
     height="100%"
     transform="translate(-4.542375,-24.56)" />
  <!-- 55 -->
  <g
     transform="matrix(0.1,0,0,-0.1,371.12763,242.04)"
     id="g1277">
    <use
       xlink:href="#DejaVuSans-35"
       id="use1273"
       x="0"
       y="0"
       width="100%"
       height="100%" />
    <use
       x="63.623047"
       xlink:href="#DejaVuSans-35"
       id="use1275"
       y="0"
       width="100%"
       height="100%" />
  </g>
  <!-- Cycle length (days) -->
  <g
     transform="matrix(0.1,0,0,-0.1,168.36762,255.72)"
     id="g1333">
    <defs
       id="defs1293">
      <path
         id="DejaVuSans-43"
         transform="scale(0.015625)"
         d="m 4122,4306 v -665 q -319,297 -680,443 -361,147 -767,147 -800,0 -1225,-489 -425,-489 -425,-1414 0,-922 425,-1411 425,-489 1225,-489 406,0 767,147 361,147 680,444 V 359 Q 3791,134 3420,21 3050,-91 2638,-91 1578,-91 968,557 359,1206 359,2328 q 0,1125 609,1773 610,649 1670,649 418,0 788,-111 371,-111 696,-333 z" />
      <path
         id="DejaVuSans-79"
         transform="scale(0.015625)"
         d="m 2059,-325 q -243,-625 -475,-815 -231,-191 -618,-191 H 506 v 481 h 338 q 237,0 368,113 132,112 291,531 L 1606,56 191,3500 H 800 L 1894,763 2988,3500 h 609 z" />
      <path
         id="DejaVuSans-63"
         transform="scale(0.015625)"
         d="m 3122,3366 v -538 q -244,135 -489,202 -245,67 -495,67 -560,0 -870,-355 -309,-354 -309,-995 0,-641 309,-996 310,-354 870,-354 250,0 495,67 245,67 489,202 V 134 Q 2881,22 2623,-34 2366,-91 2075,-91 1284,-91 818,406 353,903 353,1747 q 0,856 470,1346 471,491 1290,491 265,0 518,-55 253,-54 491,-163 z" />
      <path
         id="DejaVuSans-6c"
         transform="scale(0.015625)"
         d="m 603,4863 h 575 V 0 H 603 Z" />
      <path
         id="DejaVuSans-65"
         transform="scale(0.015625)"
         d="M 3597,1894 V 1613 H 953 q 38,-594 358,-905 320,-311 892,-311 331,0 642,81 311,81 618,244 V 178 Q 3153,47 2828,-22 2503,-91 2169,-91 1331,-91 842,396 353,884 353,1716 q 0,859 464,1363 464,505 1252,505 706,0 1117,-455 411,-454 411,-1235 z m -575,169 q -6,471 -264,752 -258,282 -683,282 -481,0 -770,-272 -289,-272 -333,-766 z" />
      <path
         id="DejaVuSans-6e"
         transform="scale(0.015625)"
         d="M 3513,2113 V 0 h -575 v 2094 q 0,497 -194,743 -194,247 -581,247 -466,0 -735,-297 -269,-296 -269,-809 V 0 H 581 v 3500 h 578 v -544 q 207,316 486,472 280,156 646,156 603,0 912,-373 310,-373 310,-1098 z" />
      <path
         id="DejaVuSans-67"
         transform="scale(0.015625)"
         d="m 2906,1791 q 0,625 -258,968 -257,344 -723,344 -462,0 -720,-344 -258,-343 -258,-968 0,-622 258,-966 258,-344 720,-344 466,0 723,344 258,344 258,966 z M 3481,434 q 0,-893 -397,-1329 -396,-436 -1215,-436 -303,0 -572,45 -269,45 -522,139 v 559 q 253,-137 500,-202 247,-66 503,-66 566,0 847,295 281,295 281,892 V 616 Q 2728,306 2450,153 2172,0 1784,0 1141,0 747,490 353,981 353,1791 q 0,812 394,1302 394,491 1037,491 388,0 666,-153 278,-153 456,-462 v 531 h 575 z" />
      <path
         id="DejaVuSans-74"
         transform="scale(0.015625)"
         d="M 1172,4494 V 3500 H 2356 V 3053 H 1172 V 1153 q 0,-428 117,-550 117,-122 477,-122 h 590 V 0 H 1766 Q 1100,0 847,248 594,497 594,1153 V 3053 H 172 v 447 h 422 v 994 z" />
      <path
         id="DejaVuSans-68"
         transform="scale(0.015625)"
         d="M 3513,2113 V 0 h -575 v 2094 q 0,497 -194,743 -194,247 -581,247 -466,0 -735,-297 -269,-296 -269,-809 V 0 H 581 v 4863 h 578 V 2956 q 207,316 486,472 280,156 646,156 603,0 912,-373 310,-373 310,-1098 z" />
      <path
         id="DejaVuSans-28"
         transform="scale(0.015625)"
         d="m 1984,4856 q -418,-718 -622,-1422 -203,-703 -203,-1425 0,-721 205,-1429 205,-708 620,-1424 h -500 q -468,735 -701,1444 -233,709 -233,1409 0,697 231,1403 232,707 703,1444 z" />
      <path
         id="DejaVuSans-64"
         transform="scale(0.015625)"
         d="m 2906,2969 v 1894 h 575 V 0 H 2906 V 525 Q 2725,213 2448,61 2172,-91 1784,-91 1150,-91 751,415 353,922 353,1747 q 0,825 398,1331 399,506 1033,506 388,0 664,-152 277,-151 458,-463 z M 947,1747 q 0,-634 261,-995 261,-361 717,-361 456,0 718,361 263,361 263,995 0,634 -263,995 -262,361 -718,361 -456,0 -717,-361 -261,-361 -261,-995 z" />
      <path
         id="DejaVuSans-61"
         transform="scale(0.015625)"
         d="m 2194,1759 q -697,0 -966,-159 -269,-159 -269,-544 0,-306 202,-486 202,-179 548,-179 479,0 768,339 289,339 289,901 v 128 z m 1147,238 V 0 H 2766 V 531 Q 2569,213 2275,61 1981,-91 1556,-91 q -537,0 -855,302 -317,302 -317,808 0,590 395,890 396,300 1180,300 h 807 v 57 q 0,397 -261,614 -261,217 -733,217 -300,0 -585,-72 -284,-72 -546,-216 v 532 q 315,122 612,182 297,61 578,61 760,0 1135,-394 375,-393 375,-1193 z" />
      <path
         id="DejaVuSans-73"
         transform="scale(0.015625)"
         d="m 2834,3397 v -544 q -243,125 -506,187 -262,63 -544,63 -428,0 -642,-131 -214,-131 -214,-394 0,-200 153,-314 153,-114 616,-217 l 197,-44 q 612,-131 870,-370 258,-239 258,-667 0,-488 -386,-773 Q 2250,-91 1575,-91 1294,-91 989,-36 684,19 347,128 v 594 q 319,-166 628,-249 309,-82 613,-82 406,0 624,139 219,139 219,392 0,234 -158,359 -157,125 -692,241 l -200,47 q -534,112 -772,345 -237,233 -237,639 0,494 350,762 350,269 994,269 318,0 599,-47 282,-46 519,-140 z" />
      <path
         id="DejaVuSans-29"
         transform="scale(0.015625)"
         d="m 513,4856 h 500 q 468,-737 701,-1444 233,-706 233,-1403 0,-700 -233,-1409 -233,-709 -701,-1444 H 513 q 415,716 620,1424 205,708 205,1429 0,722 -205,1425 -205,704 -620,1422 z" />
    </defs>
    <use
       xlink:href="#DejaVuSans-43"
       id="use1295"
       x="0"
       y="0"
       width="100%"
       height="100%" />
    <use
       x="69.824219"
       xlink:href="#DejaVuSans-79"
       id="use1297"
       y="0"
       width="100%"
       height="100%" />
    <use
       x="129.00391"
       xlink:href="#DejaVuSans-63"
       id="use1299"
       y="0"
       width="100%"
       height="100%" />
    <use
       x="183.98438"
       xlink:href="#DejaVuSans-6c"
       id="use1301"
       y="0"
       width="100%"
       height="100%" />
    <use
       x="211.76758"
       xlink:href="#DejaVuSans-65"
       id="use1303"
       y="0"
       width="100%"
       height="100%" />
    <use
       x="273.29102"
       xlink:href="#DejaVuSans-20"
       id="use1305"
       y="0"
       width="100%"
       height="100%" />
    <use
       x="305.07812"
       xlink:href="#DejaVuSans-6c"
       id="use1307"
       y="0"
       width="100%"
       height="100%" />
    <use
       x="332.86133"
       xlink:href="#DejaVuSans-65"
       id="use1309"
       y="0"
       width="100%"
       height="100%" />
    <use
       x="394.38477"
       xlink:href="#DejaVuSans-6e"
       id="use1311"
       y="0"
       width="100%"
       height="100%" />
    <use
       x="457.76367"
       xlink:href="#DejaVuSans-67"
       id="use1313"
       y="0"
       width="100%"
       height="100%" />
    <use
       x="521.24023"
       xlink:href="#DejaVuSans-74"
       id="use1315"
       y="0"
       width="100%"
       height="100%" />
    <use
       x="560.44922"
       xlink:href="#DejaVuSans-68"
       id="use1317"
       y="0"
       width="100%"
       height="100%" />
    <use
       x="623.82812"
       xlink:href="#DejaVuSans-20"
       id="use1319"
       y="0"
       width="100%"
       height="100%" />
    <use
       x="655.61523"
       xlink:href="#DejaVuSans-28"
       id="use1321"
       y="0"
       width="100%"
       height="100%" />
    <use
       x="694.62891"
       xlink:href="#DejaVuSans-64"
       id="use1323"
       y="0"
       width="100%"
       height="100%" />
    <use
       x="758.10547"
       xlink:href="#DejaVuSans-61"
       id="use1325"
       y="0"
       width="100%"
       height="100%" />
    <use
       x="819.38477"
       xlink:href="#DejaVuSans-79"
       id="use1327"
       y="0"
       width="100%"
       height="100%" />
    <use
       x="878.56445"
       xlink:href="#DejaVuSans-73"
       id="use1329"
       y="0"
       width="100%"
       height="100%" />
    <use
       x="930.66406"
       xlink:href="#DejaVuSans-29"
       id="use1331"
       y="0"
       width="100%"
       height="100%" />
  </g>
  <defs
     id="defs1336">
    <path
       id="mc5d9fae33d"
       d="M 0,0 H -3.5"
       stroke="#000000"
       stroke-width="0.8" />
  </defs>
  <use
     x="54"
     y="252"
     stroke="#000000"
     stroke-width="0.8"
     xlink:href="#mc5d9fae33d"
     id="use1338"
     width="100%"
     height="100%"
     transform="translate(-4.542375,-24.56)" />
  <!-- 0 -->
  <g
     transform="matrix(0.1,0,0,-0.1,36.095625,231.24)"
     id="g1342">
    <use
       xlink:href="#DejaVuSans-30"
       id="use1340"
       x="0"
       y="0"
       width="100%"
       height="100%" />
  </g>
  <use
     x="54"
     y="208.12592"
     stroke="#000000"
     stroke-width="0.8"
     xlink:href="#mc5d9fae33d"
     id="use1344"
     width="100%"
     height="100%"
     transform="translate(-4.542375,-24.56)" />
  <!-- 50 -->
  <g
     transform="matrix(0.1,0,0,-0.1,29.732625,187.37)"
     id="g1350">
    <use
       xlink:href="#DejaVuSans-35"
       id="use1346"
       x="0"
       y="0"
       width="100%"
       height="100%" />
    <use
       x="63.623047"
       xlink:href="#DejaVuSans-30"
       id="use1348"
       y="0"
       width="100%"
       height="100%" />
  </g>
  <use
     x="54"
     y="164.25182"
     stroke="#000000"
     stroke-width="0.8"
     xlink:href="#mc5d9fae33d"
     id="use1352"
     width="100%"
     height="100%"
     transform="translate(-4.542375,-24.56)" />
  <!-- 100 -->
  <g
     transform="matrix(0.1,0,0,-0.1,23.369625,143.49)"
     id="g1363">
    <defs
       id="defs1355">
      <path
         id="DejaVuSans-31"
         transform="scale(0.015625)"
         d="M 794,531 H 1825 V 4091 L 703,3866 v 575 l 1116,225 h 631 V 531 H 3481 V 0 H 794 Z" />
    </defs>
    <use
       xlink:href="#DejaVuSans-31"
       id="use1357"
       x="0"
       y="0"
       width="100%"
       height="100%" />
    <use
       x="63.623047"
       xlink:href="#DejaVuSans-30"
       id="use1359"
       y="0"
       width="100%"
       height="100%" />
    <use
       x="127.24609"
       xlink:href="#DejaVuSans-30"
       id="use1361"
       y="0"
       width="100%"
       height="100%" />
  </g>
  <use
     x="54"
     y="120.37772"
     stroke="#000000"
     stroke-width="0.8"
     xlink:href="#mc5d9fae33d"
     id="use1365"
     width="100%"
     height="100%"
     transform="translate(-4.542375,-24.56)" />
  <!-- 150 -->
  <g
     transform="matrix(0.1,0,0,-0.1,23.369625,99.62)"
     id="g1373">
    <use
       xlink:href="#DejaVuSans-31"
       id="use1367"
       x="0"
       y="0"
       width="100%"
       height="100%" />
    <use
       x="63.623047"
       xlink:href="#DejaVuSans-35"
       id="use1369"
       y="0"
       width="100%"
       height="100%" />
    <use
       x="127.24609"
       xlink:href="#DejaVuSans-30"
       id="use1371"
       y="0"
       width="100%"
       height="100%" />
  </g>
  <use
     x="54"
     y="76.503632"
     stroke="#000000"
     stroke-width="0.8"
     xlink:href="#mc5d9fae33d"
     id="use1375"
     width="100%"
     height="100%"
     transform="translate(-4.542375,-24.56)" />
  <!-- 200 -->
  <g
     transform="matrix(0.1,0,0,-0.1,23.369625,55.743)"
     id="g1383">
    <use
       xlink:href="#DejaVuSans-32"
       id="use1377"
       x="0"
       y="0"
       width="100%"
       height="100%" />
    <use
       x="63.623047"
       xlink:href="#DejaVuSans-30"
       id="use1379"
       y="0"
       width="100%"
       height="100%" />
    <use
       x="127.24609"
       xlink:href="#DejaVuSans-30"
       id="use1381"
       y="0"
       width="100%"
       height="100%" />
  </g>
  <!-- Frequency -->
  <g
     transform="matrix(0,-0.1,-0.1,0,17.290625,144.55)"
     id="g1409">
    <defs
       id="defs1389">
      <path
         id="DejaVuSans-46"
         transform="scale(0.015625)"
         d="M 628,4666 H 3309 V 4134 H 1259 V 2759 H 3109 V 2228 H 1259 V 0 H 628 Z" />
      <path
         id="DejaVuSans-72"
         transform="scale(0.015625)"
         d="m 2631,2963 q -97,56 -211,82 -114,27 -251,27 -488,0 -749,-317 -261,-317 -261,-911 V 0 H 581 v 3500 h 578 v -544 q 182,319 472,473 291,155 707,155 59,0 131,-8 72,-7 159,-23 z" />
      <path
         id="DejaVuSans-71"
         transform="scale(0.015625)"
         d="m 947,1747 q 0,-634 261,-995 261,-361 717,-361 456,0 718,361 263,361 263,995 0,634 -263,995 -262,361 -718,361 -456,0 -717,-361 Q 947,2381 947,1747 Z M 2906,525 Q 2725,213 2448,61 2172,-91 1784,-91 1150,-91 751,415 353,922 353,1747 q 0,825 398,1331 399,506 1033,506 388,0 664,-152 277,-151 458,-463 v 531 h 575 v -4831 h -575 z" />
      <path
         id="DejaVuSans-75"
         transform="scale(0.015625)"
         d="m 544,1381 v 2119 h 575 V 1403 q 0,-497 193,-746 194,-248 582,-248 465,0 735,297 271,297 271,810 v 1984 h 575 V 0 H 2900 V 538 Q 2691,219 2414,64 2138,-91 1772,-91 1169,-91 856,284 544,659 544,1381 Z m 1447,2203 z" />
    </defs>
    <use
       xlink:href="#DejaVuSans-46"
       id="use1391"
       x="0"
       y="0"
       width="100%"
       height="100%" />
    <use
       x="50.269531"
       xlink:href="#DejaVuSans-72"
       id="use1393"
       y="0"
       width="100%"
       height="100%" />
    <use
       x="89.132812"
       xlink:href="#DejaVuSans-65"
       id="use1395"
       y="0"
       width="100%"
       height="100%" />
    <use
       x="150.65625"
       xlink:href="#DejaVuSans-71"
       id="use1397"
       y="0"
       width="100%"
       height="100%" />
    <use
       x="214.13281"
       xlink:href="#DejaVuSans-75"
       id="use1399"
       y="0"
       width="100%"
       height="100%" />
    <use
       x="277.51172"
       xlink:href="#DejaVuSans-65"
       id="use1401"
       y="0"
       width="100%"
       height="100%" />
    <use
       x="339.03516"
       xlink:href="#DejaVuSans-6e"
       id="use1403"
       y="0"
       width="100%"
       height="100%" />
    <use
       x="402.41406"
       xlink:href="#DejaVuSans-63"
       id="use1405"
       y="0"
       width="100%"
       height="100%" />
    <use
       x="457.39453"
       xlink:href="#DejaVuSans-79"
       id="use1407"
       y="0"
       width="100%"
       height="100%" />
  </g>
  <path
     d="m 69.218,250.96 4.5884,-0.10059 7.6473,-0.0947 4.5884,-0.34364 4.5884,-0.59306 3.0589,-0.52804 3.0589,-0.77726 1.5295,-0.57539 1.5295,-0.76935 1.5295,-1.0214 1.5295,-1.3306 1.5295,-1.692 1.5295,-2.0979 1.5295,-2.5401 1.5295,-3.0115 1.5295,-3.507 1.5295,-4.0238 1.5295,-4.5602 1.5295,-5.1149 1.5295,-5.6852 1.5295,-6.2655 1.5295,-6.8471 3.0589,-15.373 3.0589,-17.31 9.1768,-55.14 1.5295,-8.1784 1.5295,-7.561696 1.5295,-6.8805 1.5295,-6.1615 1.5295,-5.421 1.5295,-4.6622 1.5295,-3.8764 1.5295,-3.0482 1.5295,-2.1626 1.5295,-1.2126 1.5295,-0.20576 1.5295,0.83385 1.5295,1.8675 1.5295,2.8485 1.5295,3.7312 1.5295,4.4797 1.5295,5.0734 3.0589,11.302 7.6473,29.295996 3.0589,10.384 1.5295,4.6826 1.5295,4.3157 3.0589,7.6277 7.6473,17.168 3.0589,7.9775 4.5884,13.285 3.0589,8.6836 1.5295,3.9593 1.5295,3.5847 1.5295,3.1577 1.5295,2.7171 1.5295,2.3025 1.5295,1.9483 1.5295,1.6774 3.0589,2.8981 7.6473,6.7753 3.0589,2.3711 3.0589,1.8939 3.0589,1.466 4.5884,1.9827 3.0589,1.6118 3.0589,1.9458 4.5884,2.9907 3.0589,1.5589 3.0589,1.109 13.765,3.9676 3.0589,0.54771 6.1179,0.93512 4.5884,1.0296 6.1179,1.4206 3.0589,0.48656 4.5884,0.41984 18.354,1.0067 4.5884,-0.17944 7.6473,-0.44239 4.5884,0.009 16.824,0.55963 7.6473,0.0858 9.1768,0.172 7.6473,-0.149 4.5884,-0.0615 v 0"
     clip-path="url(#p3d7b669515)"
     fill="none"
     stroke="#1f77b4"
     stroke-linecap="square"
     stroke-width="1.5"
     id="path1411"
     transform="translate(-4.542375,-24.56)" />
  <path
     d="M 49.457625,227.44 V 10"
     fill="none"
     stroke="#000000"
     stroke-linecap="square"
     stroke-width="0.8"
     id="path1413" />
  <path
     d="M 49.457625,227.44 H 384.25762"
     fill="none"
     stroke="#000000"
     stroke-linecap="square"
     stroke-width="0.8"
     id="path1415" />
  <defs
     id="defs1420">
    <clipPath
       id="p3d7b669515">
      <rect
         x="54"
         y="34.560001"
         width="334.79999"
         height="217.44"
         id="rect1417" />
    </clipPath>
  </defs>
</svg>
