<?xml version="1.0" encoding="UTF-8"?>
<svg width="911.5" height="590.67" fill="none" stroke-linecap="square" stroke-miterlimit="10" version="1.1" viewBox="0 0 911.5 590.67" xmlns="http://www.w3.org/2000/svg" xmlns:xlink="http://www.w3.org/1999/xlink">
 <defs>
  <pattern id="pattern58023" patternTransform="matrix(.11011 -.19072 .10306 .059501 674.49 593.07)" xlink:href="#pattern57995"/>
  <pattern id="pattern54445" patternTransform="matrix(.027061 -.046871 .12243 .070686 569.57 577.31)" xlink:href="#pattern54418"/>
  <pattern id="pattern51964" patternTransform="matrix(.003691 -.006393 -.11374 -.065668 546.41 499.78)" xlink:href="#pattern51801"/>
  <pattern id="pattern28836" patternTransform="matrix(.14204 -.24602 .13588 .078449 675.78 461.59)" xlink:href="#pattern28804"/>
  <clipPath id="id_0-7">
   <path d="m0 0h891v551h-891z"/>
  </clipPath>
  <pattern id="pattern28804" width="138.18536" height="26.812085" patternTransform="translate(732.18 6.1874)" patternUnits="userSpaceOnUse">
   <g transform="translate(-732.18 -6.1874)">
    <rect x="732.18" y="6.1874" width="138.19" height="13.406" fill="#ee6362"/>
    <rect x="732.18" y="19.593" width="138.19" height="13.406" fill="#fc8d59"/>
   </g>
  </pattern>
  <pattern id="pattern51801" width="119.66917" height="29.685369" patternTransform="translate(1013 456.41)" patternUnits="userSpaceOnUse">
   <g transform="translate(-1013 -456.41)">
    <rect x="1013" y="456.41" width="119.67" height="14.843" fill="#7dbdd1"/>
    <rect x="1013" y="471.26" width="119.67" height="14.843" fill="#ab8ac1"/>
   </g>
  </pattern>
  <pattern id="pattern54418" width="119.66917" height="29.685369" patternTransform="translate(1013 456.41)" patternUnits="userSpaceOnUse">
   <g transform="translate(-1013 -456.41)">
    <rect x="1013" y="456.41" width="119.67" height="29.685" fill="none"/>
    <rect x="1013" y="456.41" width="119.67" height="14.843" fill="#ee6362"/>
    <rect x="1013" y="471.26" width="119.67" height="14.843" fill="#ab8ac1"/>
   </g>
  </pattern>
  <pattern id="pattern57995" width="119.66917" height="29.685369" patternTransform="translate(1013 456.41)" patternUnits="userSpaceOnUse">
   <g transform="translate(-1013 -456.41)">
    <rect x="1013" y="456.41" width="119.67" height="29.685" fill="none"/>
    <rect x="1013" y="456.41" width="119.67" height="29.685" fill="none"/>
    <rect x="1013" y="456.41" width="119.67" height="14.843" fill="#fee090"/>
    <rect x="1013" y="471.26" width="119.67" height="14.843" fill="#fc8d59"/>
   </g>
  </pattern>
 </defs>
 <text x="812.01196" y="444.15237" fill="#000000" font-family="Arial" font-size="18.667px" style="line-height:1.25" xml:space="preserve"><tspan x="812.01196" y="444.15237">500 million</tspan></text>
 <g stroke-linecap="butt">
  <g stroke="#000" stroke-opacity="0">
   <path d="m10.5 10v551"/>
   <path d="m127.5 10v551"/>
   <path d="m186.5 10v551"/>
   <path d="m303.5 10v551"/>
   <path d="m361.5 10v551"/>
   <path d="m478.5 10v551"/>
   <path d="m537.5 10v551"/>
   <path d="m654.5 10v551"/>
   <path d="m713.5 10v551"/>
   <path d="m830.5 10v551"/>
   <path d="m888.5 10v551"/>
  </g>
  <path d="m10.5 561h889.85" stroke="#333" stroke-width=".99935"/>
  <g stroke="#ccc">
   <path d="m10.5 423h891"/>
   <path d="m10.5 285h891"/>
   <path d="m10.5 147h891"/>
  </g>
 </g>
 <clipPath id="id_0">
  <path d="m0 0h891v551h-891z"/>
 </clipPath>
 <g>
  <path transform="translate(10,9.5)" d="m36 551h-23 23z" clip-path="url(#id_0)" stroke="#000" stroke-linecap="butt" stroke-opacity="0" stroke-width="2"/>
  <path transform="translate(10,9.5)" d="m36 551h-23 23z" clip-path="url(#id_0)" fill="#4285f4"/>
  <path transform="translate(10,9.5)" d="m71 551h-23 23z" clip-path="url(#id_0)" stroke="#000" stroke-linecap="butt" stroke-opacity="0" stroke-width="2"/>
  <path transform="translate(10,9.5)" d="m71 551h-23 23z" clip-path="url(#id_0)" fill="#4285f4"/>
  <path transform="translate(10,9.5)" d="m106 551h-23 23z" clip-path="url(#id_0)" stroke="#000" stroke-linecap="butt" stroke-opacity="0" stroke-width="2"/>
  <path transform="translate(10,9.5)" d="m106 551h-23 23z" clip-path="url(#id_0)" fill="#4285f4"/>
  <path transform="translate(10,9.5)" d="m141 551h-23v-16c0-1.1046 0.89543-2 2-2h19c1.1046 0 2 0.89545 2 2z" clip-path="url(#id_0)" stroke="#000" stroke-linecap="butt" stroke-opacity="0" stroke-width="2"/>
  <path transform="translate(10,9.5)" d="m141 551h-23v-16c0-1.1046 0.89543-2 2-2h19c1.1046 0 2 0.89545 2 2z" clip-path="url(#id_0)" fill="#ab8ac1"/>
  <path transform="translate(10,9.5)" d="m176 551h-23v-9c0-1.1046 0.89543-2 2-2h19c1.1046 0 2 0.89545 2 2z" clip-path="url(#id_0)" stroke="#000" stroke-linecap="butt" stroke-opacity="0" stroke-width="2"/>
  <path transform="translate(10,9.5)" d="m176 551h-23v-9c0-1.1046 0.89543-2 2-2h19c1.1046 0 2 0.89545 2 2z" clip-path="url(#id_0)" fill="#ee6362"/>
  <path transform="translate(10,9.5)" d="m211 551h-23v-69c0-1.1046 0.89543-2 2-2h19c1.1046 0 2 0.89542 2 2z" clip-path="url(#id_0)" stroke="#000" stroke-linecap="butt" stroke-opacity="0" stroke-width="2"/>
  <path transform="translate(10,9.5)" d="m211 551h-23v-69c0-1.1046 0.89543-2 2-2h19c1.1046 0 2 0.89542 2 2z" clip-path="url(#id_0)" fill="#fc8d59"/>
  <path transform="translate(10,9.5)" d="m247 551h-23v-84c0-1.1046 0.89543-2 2-2h19c1.1046 0 2 0.89542 2 2z" clip-path="url(#id_0)" stroke="#000" stroke-linecap="butt" stroke-opacity="0" stroke-width="2"/>
  <path transform="translate(10,9.5)" d="m247 551h-23v-84c0-1.1046 0.89543-2 2-2h19c1.1046 0 2 0.89542 2 2z" clip-path="url(#id_0)" fill="#fee090"/>
  <path transform="translate(10,9.5)" d="m282 551h-23v-18c0-1.1046 0.89542-2 2-2h19c1.1046 0 2 0.89545 2 2z" clip-path="url(#id_0)" stroke="#000" stroke-linecap="butt" stroke-opacity="0" stroke-width="2"/>
  <path transform="translate(10,9.5)" d="m282 551h-23v-18c0-1.1046 0.89542-2 2-2h19c1.1046 0 2 0.89545 2 2z" clip-path="url(#id_0)" fill="#a8d696"/>
  <path transform="translate(10,9.5)" d="m317 551h-23v-74c0-1.1046 0.89542-2 2-2h19c1.1046 0 2 0.89542 2 2z" clip-path="url(#id_0)" stroke="#000" stroke-linecap="butt" stroke-opacity="0" stroke-width="2"/>
  <path transform="translate(10,9.5)" d="m317 551h-23v-74c0-1.1046 0.89542-2 2-2h19c1.1046 0 2 0.89542 2 2z" clip-path="url(#id_0)" fill="#7dbdd1"/>
  <path transform="translate(10,9.5)" d="m352 551h-23z" clip-path="url(#id_0)" stroke="#000" stroke-linecap="butt" stroke-opacity="0" stroke-width="2"/>
  <path transform="translate(10,9.5)" d="m352 551h-23z" clip-path="url(#id_0)" fill="#4285f4"/>
  <path transform="translate(10,9.5)" d="m387 551h-23 23z" clip-path="url(#id_0)" stroke="#000" stroke-linecap="butt" stroke-opacity="0" stroke-width="2"/>
  <path transform="translate(10,9.5)" d="m387 551h-23 23z" clip-path="url(#id_0)" fill="#4285f4"/>
  <path transform="translate(10,9.5)" d="m422 551h-23v-65c0-1.1046 0.89542-2 2-2h19c1.1046 0 2 0.89542 2 2z" clip-path="url(#id_0)" stroke="#000" stroke-linecap="butt" stroke-opacity="0" stroke-width="2"/>
  <path transform="translate(10,9.5)" d="m422 551h-23v-65c0-1.1046 0.89542-2 2-2h19c1.1046 0 2 0.89542 2 2z" clip-path="url(#id_0)" fill="#fc8d59"/>
  <path transform="translate(10,9.5)" d="m458 551h-23v-240c0-1.1046 0.89542-2 2-2h19c1.1046 0 2 0.89542 2 2z" clip-path="url(#id_0)" stroke="#000" stroke-linecap="butt" stroke-opacity="0" stroke-width="2"/>
  <path transform="translate(10,9.5)" d="m458 551h-23v-240c0-1.1046 0.89542-2 2-2h19c1.1046 0 2 0.89542 2 2z" clip-path="url(#id_0)" fill="#fee090"/>
  <path transform="translate(10,9.5)" d="m493 551h-23v-145c0-1.1046 0.89542-2 2-2h19c1.1046 0 2 0.89542 2 2z" clip-path="url(#id_0)" stroke="#000" stroke-linecap="butt" stroke-opacity="0" stroke-width="2"/>
  <path transform="translate(9.9997 9.5)" d="m493 551h-23v-145c0-1.1046 0.89542-2 2-2h19c1.1046 0 2 0.89542 2 2z" clip-path="url(#id_0)" fill="#a8d696"/>
  <path transform="translate(10,9.5)" d="m528 551h-23v-169c0-1.1046 0.89542-2 2-2h19c1.1046 0 2 0.89542 2 2z" clip-path="url(#id_0)" stroke="#000" stroke-linecap="butt" stroke-opacity="0" stroke-width="2"/>
  <path transform="translate(10,9.5)" d="m528 551h-23v-169c0-1.1046 0.89542-2 2-2h19c1.1046 0 2 0.89542 2 2z" clip-path="url(#id_0)" fill="#7dbdd1"/>
  <path transform="matrix(1.9117 0 0 1 -480.83 9.5)" d="m542 551h-12v-21c0-1.1046 0.89545-2 2-2h8c1.1046 0 2 0.89545 2 2z" clip-path="url(#id_0-7)" fill="url(#pattern51964)"/>
  <path transform="translate(10,9.5)" d="m563 551h-23v-10c0-1.1046 0.89545-2 2-2h19c1.1046 0 2 0.89545 2 2z" clip-path="url(#id_0)" stroke="#000" stroke-linecap="butt" stroke-opacity="0" stroke-width="2"/>
  <path transform="translate(10,9.5)" d="m563 551h-23v-10c0-1.1046 0.89545-2 2-2h19c1.1046 0 2 0.89545 2 2z" clip-path="url(#id_0)" fill="#ab8ac1"/>
  <path transform="translate(10,9.5)" d="m598 551h-23v-78c0-1.1046 0.89545-2 2-2h19c1.1046 0 2 0.89542 2 2z" clip-path="url(#id_0)" stroke="#000" stroke-linecap="butt" stroke-opacity="0" stroke-width="2"/>
 </g>
 <g>
  <path transform="matrix(1.9068 0 0 1 -511.68 9.5078)" d="m578 551h-12v-9c0-1.1046 0.89545-2 2-2h8c1.1046 0 2 0.89545 2 2z" clip-path="url(#id_0-7)" fill="url(#pattern54445)"/>
  <path transform="translate(10,9.5)" d="m598 551h-23v-78c0-1.1046 0.89545-2 2-2h19c1.1046 0 2 0.89542 2 2z" clip-path="url(#id_0)" fill="#ee6362"/>
  <path transform="matrix(1.8877 0 0 1 -533.67 9.5)" d="m614 551h-12v-384c0-1.1046 0.89545-2 2-2h8c1.1046 0 2 0.89543 2 2z" clip-path="url(#id_0-7)" fill="url(#pattern28836)"/>
 </g>
 <path transform="translate(10,9.5)" d="m633 551h-23v-51c0-1.1046 0.89545-2 2-2h19c1.1046 0 2 0.89542 2 2z" clip-path="url(#id_0)" stroke="#000" stroke-linecap="butt" stroke-opacity="0" stroke-width="2"/>
 <g>
  <path transform="translate(10,9.5)" d="m633 551h-23v-51c0-1.1046 0.89545-2 2-2h19c1.1046 0 2 0.89542 2 2z" clip-path="url(#id_0)" fill="#fc8d59"/>
  <path transform="matrix(1.9138 0 0 1 -583.35 9.5325)" d="m650 551h-12v-13c0-1.1046 0.89545-2 2-2h8c1.1046 0 2 0.89545 2 2z" clip-path="url(#id_0-7)" fill="url(#pattern58023)"/>
  <path transform="translate(10,9.5)" d="m668 551h-23v-115c0-1.1046 0.89545-2 2-2h19c1.1046 0 2 0.89542 2 2z" clip-path="url(#id_0)" fill="#fee090"/>
 </g>
 <g>
  <path transform="translate(10,9.5)" d="m668 551h-23v-115c0-1.1046 0.89545-2 2-2h19c1.1046 0 2 0.89542 2 2z" clip-path="url(#id_0)" stroke="#000" stroke-linecap="butt" stroke-opacity="0" stroke-width="2"/>
  <path transform="translate(10,9.5)" d="m704 551h-23v-459c0-1.1046 0.89545-2 2-2h19c1.1046 0 2 0.89543 2 2z" clip-path="url(#id_0)" stroke="#000" stroke-linecap="butt" stroke-opacity="0" stroke-width="2"/>
  <path transform="translate(10,9.5)" d="m704 551h-23v-459c0-1.1046 0.89545-2 2-2h19c1.1046 0 2 0.89543 2 2z" clip-path="url(#id_0)" fill="#a8d696"/>
  <path transform="translate(10,9.5)" d="m739 551h-23v-57c0-1.1046 0.89545-2 2-2h19c1.1046 0 2 0.89542 2 2z" clip-path="url(#id_0)" stroke="#000" stroke-linecap="butt" stroke-opacity="0" stroke-width="2"/>
  <path transform="translate(10,9.5)" d="m739 551h-23v-57c0-1.1046 0.89545-2 2-2h19c1.1046 0 2 0.89542 2 2z" clip-path="url(#id_0)" fill="#7dbdd1"/>
  <path transform="translate(10,9.5)" d="m774 551h-23v-3c0-1.1046 0.89545-2 2-2h19c1.1046 0 2 0.89545 2 2z" clip-path="url(#id_0)" stroke="#000" stroke-linecap="butt" stroke-opacity="0" stroke-width="2"/>
  <path transform="translate(10,9.5)" d="m774 551h-23v-3c0-1.1046 0.89545-2 2-2h19c1.1046 0 2 0.89545 2 2z" clip-path="url(#id_0)" fill="#ab8ac1"/>
  <path transform="translate(10,9.5)" d="m809 551h-23v-3c0-1.1046 0.89545-2 2-2h19c1.1046 0 2 0.89545 2 2z" clip-path="url(#id_0)" stroke="#000" stroke-linecap="butt" stroke-opacity="0" stroke-width="2"/>
  <path transform="translate(10,9.5)" d="m809 551h-23v-3c0-1.1046 0.89545-2 2-2h19c1.1046 0 2 0.89545 2 2z" clip-path="url(#id_0)" fill="#ee6362"/>
  <path transform="translate(10,9.5)" d="m844 551h-23 23z" clip-path="url(#id_0)" stroke="#000" stroke-linecap="butt" stroke-opacity="0" stroke-width="2"/>
  <path transform="translate(10,9.5)" d="m844 551h-23 23z" clip-path="url(#id_0)" fill="#4285f4"/>
  <path transform="translate(10,9.5)" d="m879 551h-23v-0.5c0-0.2761 0.2239-0.5 0.5-0.5h22c0.2761 0 0.5 0.2239 0.5 0.5z" clip-path="url(#id_0)" stroke="#000" stroke-linecap="butt" stroke-opacity="0" stroke-width="2"/>
  <path d="m19.485 67.969q-1.213-1.5255-2.0401-3.5472t-0.82706-4.1904q0-1.9114 0.62489-3.6758 0.71678-2.0401 2.2422-4.0434h1.0292q-0.97409 1.6725-1.2865 2.3893-0.49624 1.1027-0.77192 2.3158-0.3492 1.4887-0.3492 3.0142 0 3.878 2.4077 7.7376zm8.6749-4.5213q-0.7903 0.68003-1.5438 0.97409-0.73516 0.27569-1.599 0.27569-1.3968 0-2.1687-0.68003-0.75354-0.69841-0.75354-1.7828 0-0.62489 0.27569-1.1395 0.29406-0.51461 0.75354-0.82706 0.47786-0.31244 1.0476-0.47786 0.42272-0.11028 1.2865-0.22055 1.7644-0.20217 2.5915-0.49624 0-0.29407 0-0.36758 0-0.90058-0.40434-1.2498-0.55137-0.49624-1.6541-0.49624-1.0108 0-1.5071 0.36758-0.47786 0.3492-0.71678 1.2498l-1.4152-0.18379q0.18379-0.91895 0.62489-1.4703 0.45948-0.55137 1.2865-0.84544 0.84544-0.31244 1.9482-0.31244 1.0844 0 1.7644 0.25731 0.68003 0.25731 0.99247 0.64327 0.33082 0.38596 0.45948 0.99247 0.07352 0.36758 0.07352 1.3233v1.9298q0 2.0217 0.0919 2.5547t0.36758 1.0292h-1.5071q-0.22055-0.45948-0.29406-1.0476zm-0.11027-3.2347q-0.7903 0.31244-2.3709 0.55137-0.8822 0.12865-1.2682 0.29407-0.36758 0.14703-0.56975 0.45948-0.20217 0.31244-0.20217 0.68003 0 0.58813 0.4411 0.97409 0.4411 0.38596 1.2865 0.38596t1.4887-0.36758q0.64327-0.36758 0.95571-1.0108 0.23893-0.47786 0.23893-1.4336zm3.3818 1.7276 1.4152-0.22055q0.12865 0.86382 0.68003 1.3233t1.5438 0.45948 1.4703-0.40434q0.49624-0.40434 0.49624-0.95571 0-0.49624-0.4411-0.77192-0.29407-0.20217-1.4703-0.49624-1.599-0.40434-2.2239-0.69841-0.60651-0.29406-0.91896-0.80868-0.31244-0.51461-0.31244-1.1395 0-0.56975 0.25731-1.0476 0.25731-0.49624 0.71678-0.82706 0.33082-0.23893 0.90058-0.40434 0.58813-0.18379 1.2682-0.18379 0.99247 0 1.746 0.29407 0.77192 0.27569 1.1395 0.77192 0.36758 0.49624 0.49624 1.3233l-1.4152 0.20217q-0.0919-0.66165-0.56975-1.0292-0.45948-0.36758-1.3049-0.36758-0.99247 0-1.4152 0.33082-0.42272 0.31244-0.42272 0.77192 0 0.27569 0.16541 0.49624 0.18379 0.23893 0.56975 0.38596 0.20217 0.07352 1.2682 0.36758 1.5438 0.42272 2.1504 0.68003 0.60651 0.25731 0.93733 0.75354 0.3492 0.49624 0.3492 1.2314 0 0.73516-0.42272 1.3784-0.40434 0.62489-1.213 0.99247-0.7903 0.3492-1.8012 0.3492-1.6541 0-2.5363-0.6984-0.86382-0.69841-1.1027-2.0585zm12.976-1.7093q0-2.3709 1.3233-3.5288 1.0844-0.93733 2.6833-0.93733 1.746 0 2.8671 1.1579 1.1211 1.1395 1.1211 3.1796 0 1.6541-0.49623 2.6098-0.49624 0.93733-1.452 1.4703-0.93733 0.51461-2.0401 0.51461-1.8012 0-2.9039-1.1579-1.1027-1.1579-1.1027-3.3082zm1.4887 0q0 1.6357 0.71678 2.4628 0.71678 0.80868 1.8012 0.80868 1.066 0 1.7828-0.82706 0.71679-0.82706 0.71679-2.4996 0-1.5806-0.71679-2.3893-0.71678-0.82706-1.7828-0.82706-1.0844 0-1.8012 0.80868-0.71678 0.80868-0.71678 2.4628zm8.8036 4.2639v-7.4068h-1.2865v-1.1395h1.2865v-0.90058q0-0.86382 0.14703-1.2865 0.22055-0.55137 0.73516-0.90058 0.53299-0.3492 1.4887-0.3492 0.60651 0 1.3417 0.14703l-0.22055 1.2498q-0.4411-0.07352-0.84544-0.07352-0.66165 0-0.93734 0.27569-0.27568 0.27569-0.27568 1.0476v0.7903h1.6725v1.1395h-1.6725v7.4068zm8.4544-3.345 1.3968-0.20217q0.05513 1.3601 0.49623 1.8563 0.45948 0.49624 1.2682 0.49624 0.58813 0 1.0108-0.25731 0.42272-0.27569 0.58813-0.73516 0.16541-0.45948 0.16541-1.4887v-8.1052h1.5438v8.0317q0 1.4703-0.3492 2.2974-0.3492 0.80868-1.1395 1.2314-0.77192 0.42272-1.8195 0.42272-1.5438 0-2.3709-0.8822-0.82706-0.90058-0.7903-2.665zm13.233 2.2974q-0.7903 0.68003-1.5438 0.97409-0.73516 0.27569-1.599 0.27569-1.3968 0-2.1687-0.68003-0.75354-0.69841-0.75354-1.7828 0-0.62489 0.27568-1.1395 0.29406-0.51461 0.75354-0.82706 0.47786-0.31244 1.0476-0.47786 0.42272-0.11028 1.2865-0.22055 1.7644-0.20217 2.5915-0.49624 0-0.29407 0-0.36758 0-0.90058-0.40434-1.2498-0.55137-0.49624-1.6541-0.49624-1.0109 0-1.5071 0.36758-0.47786 0.3492-0.71679 1.2498l-1.4152-0.18379q0.18379-0.91895 0.62489-1.4703 0.45948-0.55137 1.2865-0.84544 0.84544-0.31244 1.9482-0.31244 1.0844 0 1.7644 0.25731 0.68002 0.25731 0.99247 0.64327 0.33082 0.38596 0.45948 0.99247 0.07352 0.36758 0.07352 1.3233v1.9298q0 2.0217 0.0919 2.5547 0.09189 0.53299 0.36758 1.0292h-1.5071q-0.22055-0.45948-0.29406-1.0476zm-0.11027-3.2347q-0.7903 0.31244-2.3709 0.55137-0.8822 0.12865-1.2682 0.29407-0.36758 0.14703-0.56975 0.45948-0.20217 0.31244-0.20217 0.68003 0 0.58813 0.4411 0.97409 0.4411 0.38596 1.2865 0.38596t1.4887-0.36758q0.64327-0.36758 0.95571-1.0108 0.23893-0.47786 0.23893-1.4336zm3.9515 4.2823v-8.5463h1.3049v1.213q0.93733-1.3968 2.7201-1.3968 0.77192 0 1.4152 0.27569 0.64326 0.27569 0.95571 0.73516 0.33082 0.4411 0.45947 1.066 0.0919 0.40434 0.0919 1.3968v5.2564h-1.452v-5.2013q0-0.8822-0.16541-1.3049-0.16542-0.4411-0.60652-0.6984-0.42271-0.27569-1.0109-0.27569-0.91896 0-1.599 0.58813-0.66165 0.58813-0.66165 2.2239v4.6683zm15.016 0v-1.2498q-1.0108 1.4519-2.7201 1.4519-0.75354 0-1.4152-0.29406-0.64328-0.29407-0.9741-0.73516-0.31244-0.4411-0.4411-1.066-0.09189-0.42272-0.09189-1.3601v-5.2932h1.4519v4.7418q0 1.1395 0.0919 1.5255 0.12865 0.56975 0.56975 0.90058 0.4411 0.33082 1.1028 0.33082 0.64327 0 1.213-0.33082 0.56975-0.3492 0.80868-0.91895t0.23893-1.6725v-4.5764h1.4519v8.5463zm9.3733-1.0476q-0.7903 0.68003-1.5438 0.97409-0.73516 0.27569-1.599 0.27569-1.3968 0-2.1687-0.68003-0.75355-0.69841-0.75355-1.7828 0-0.62489 0.2757-1.1395 0.29406-0.51461 0.75353-0.82706 0.47786-0.31244 1.0476-0.47786 0.4227-0.11028 1.2865-0.22055 1.7644-0.20217 2.5914-0.49624 0-0.29407 0-0.36758 0-0.90058-0.40434-1.2498-0.55137-0.49624-1.6541-0.49624-1.0108 0-1.5071 0.36758-0.47786 0.3492-0.71678 1.2498l-1.4152-0.18379q0.18379-0.91895 0.62489-1.4703 0.45948-0.55137 1.2865-0.84544 0.84543-0.31244 1.9482-0.31244 1.0844 0 1.7644 0.25731 0.68004 0.25731 0.99248 0.64327 0.33082 0.38596 0.45948 0.99247 0.0735 0.36758 0.0735 1.3233v1.9298q0 2.0217 0.0919 2.5547t0.36758 1.0292h-1.5071q-0.22055-0.45948-0.29406-1.0476zm-0.11022-3.2347q-0.7903 0.31244-2.3709 0.55137-0.8822 0.12865-1.2682 0.29407-0.36758 0.14703-0.56975 0.45948-0.20217 0.31244-0.20217 0.68003 0 0.58813 0.44109 0.97409 0.4411 0.38596 1.2865 0.38596t1.4887-0.36758 0.95572-1.0108q0.23892-0.47786 0.23892-1.4336zm3.9331 4.2823v-8.5463h1.3049v1.3049q0.49623-0.91896 0.91896-1.1946 0.42271-0.29407 0.93732-0.29407 0.73517 0 1.4887 0.45948l-0.49624 1.3417q-0.53299-0.31244-1.066-0.31244-0.47786 0-0.86381 0.29406-0.36758 0.27569-0.533 0.7903-0.23893 0.77192-0.23893 1.6909v4.4661zm5.8446 3.2899-0.1654-1.3601q0.47785 0.12865 0.82705 0.12865 0.47786 0 0.77192-0.16541 0.29407-0.14703 0.47786-0.4411 0.12866-0.22055 0.4411-1.0844 0.0367-0.11027 0.12866-0.3492l-3.2531-8.5647h1.5622l1.7828 4.944q0.34919 0.95571 0.62488 1.9849 0.23894-0.99247 0.58814-1.9482l1.8195-4.9807h1.4519l-3.2531 8.6933q-0.51461 1.3968-0.80867 1.9298-0.38597 0.71678-0.8822 1.0476-0.49624 0.3492-1.1946 0.3492-0.40434 0-0.91895-0.18379zm20.199-4.6867v1.3968h-7.7927q-0.0183-0.51461 0.1654-1.0108 0.31245-0.7903 0.95571-1.5622 0.66164-0.77192 1.893-1.7828 1.9298-1.5806 2.5914-2.4996 0.68004-0.91896 0.68004-1.746 0-0.86382-0.62489-1.4519-0.60652-0.58813-1.5806-0.58813-1.0476 0-1.6909 0.62489-0.62489 0.62489-0.62489 1.746l-1.4887-0.16541q0.14703-1.6541 1.1395-2.5179 1.0109-0.8822 2.6834-0.8822 1.7093 0 2.6833 0.93733 0.99248 0.93733 0.99248 2.3341 0 0.71678-0.29407 1.3968-0.27568 0.68003-0.95571 1.4336-0.66165 0.75354-2.2239 2.0768-1.3049 1.0844-1.6725 1.4887-0.36758 0.38596-0.6065 0.77192zm1.8012-4.411q0-2.0952 0.42272-3.3634 0.44109-1.2865 1.2865-1.9666 0.84544-0.6984 2.132-0.6984 0.95571 0 1.6725 0.38596 0.71678 0.38596 1.1763 1.1027 0.47786 0.71678 0.73517 1.746 0.2573 1.0292 0.2573 2.7936 0 2.0768-0.42272 3.345-0.42272 1.2682-1.2682 1.9666-0.84544 0.6984-2.1504 0.6984-1.6909 0-2.665-1.2314-1.1763-1.4703-1.1763-4.7786zm1.4887 0q0 2.9039 0.68003 3.8596 0.68003 0.95571 1.6725 0.95571 1.0108 0 1.6909-0.95571 0.68004-0.97409 0.68004-3.8596 0-2.9223-0.68004-3.878-0.68002-0.95571-1.7092-0.95571-0.99247 0-1.5806 0.84544-0.75355 1.0844-0.75355 3.9883zm15.53 4.411v1.3968h-7.7927q-0.0183-0.51461 0.1654-1.0108 0.31245-0.7903 0.95572-1.5622 0.66164-0.77192 1.893-1.7828 1.9298-1.5806 2.5914-2.4996 0.68004-0.91896 0.68004-1.746 0-0.86382-0.62489-1.4519-0.60652-0.58813-1.5806-0.58813-1.0476 0-1.6909 0.62489-0.62489 0.62489-0.62489 1.746l-1.4887-0.16541q0.14703-1.6541 1.1395-2.5179 1.0109-0.8822 2.6834-0.8822 1.7093 0 2.6834 0.93733 0.99247 0.93733 0.99247 2.3341 0 0.71678-0.29407 1.3968-0.27568 0.68003-0.95571 1.4336-0.66165 0.75354-2.2239 2.0768-1.3049 1.0844-1.6725 1.4887-0.36758 0.38596-0.6065 0.77192zm9.4101 0v1.3968h-7.7927q-0.0183-0.51461 0.16541-1.0108 0.31245-0.7903 0.95571-1.5622 0.66165-0.77192 1.893-1.7828 1.9298-1.5806 2.5914-2.4996 0.68002-0.91896 0.68002-1.746 0-0.86382-0.62488-1.4519-0.60652-0.58813-1.5806-0.58813-1.0476 0-1.6909 0.62489-0.62489 0.62489-0.62489 1.746l-1.4887-0.16541q0.14704-1.6541 1.1395-2.5179 1.0108-0.8822 2.6833-0.8822 1.7092 0 2.6833 0.93733 0.99246 0.93733 0.99246 2.3341 0 0.71678-0.29406 1.3968-0.27569 0.68003-0.95572 1.4336-0.66165 0.75354-2.2238 2.0768-1.3049 1.0844-1.6725 1.4887-0.36759 0.38596-0.60651 0.77192zm3.1612 4.8705h-1.0476q2.4077-3.8596 2.4077-7.7376 0-1.5071-0.34921-2.9958-0.27568-1.213-0.75353-2.3158-0.31244-0.71678-1.3049-2.4077h1.0476q1.5071 2.0033 2.2239 4.0434 0.62487 1.7644 0.62487 3.6758 0 2.1687-0.84542 4.1904-0.82707 2.0217-2.0033 3.5472z" stroke="#fff" stroke-linecap="round" stroke-linejoin="round" stroke-width="3.5288"/>
  <path d="m19.485 67.969q-1.213-1.5255-2.0401-3.5472t-0.82706-4.1904q0-1.9114 0.62489-3.6758 0.71678-2.0401 2.2422-4.0434h1.0292q-0.97409 1.6725-1.2865 2.3893-0.49624 1.1027-0.77192 2.3158-0.3492 1.4887-0.3492 3.0142 0 3.878 2.4077 7.7376zm8.6749-4.5213q-0.7903 0.68003-1.5438 0.97409-0.73516 0.27569-1.599 0.27569-1.3968 0-2.1687-0.68003-0.75354-0.69841-0.75354-1.7828 0-0.62489 0.27569-1.1395 0.29406-0.51461 0.75354-0.82706 0.47786-0.31244 1.0476-0.47786 0.42272-0.11028 1.2865-0.22055 1.7644-0.20217 2.5915-0.49624 0-0.29407 0-0.36758 0-0.90058-0.40434-1.2498-0.55137-0.49624-1.6541-0.49624-1.0108 0-1.5071 0.36758-0.47786 0.3492-0.71678 1.2498l-1.4152-0.18379q0.18379-0.91895 0.62489-1.4703 0.45948-0.55137 1.2865-0.84544 0.84544-0.31244 1.9482-0.31244 1.0844 0 1.7644 0.25731 0.68003 0.25731 0.99247 0.64327 0.33082 0.38596 0.45948 0.99247 0.07352 0.36758 0.07352 1.3233v1.9298q0 2.0217 0.0919 2.5547t0.36758 1.0292h-1.5071q-0.22055-0.45948-0.29406-1.0476zm-0.11027-3.2347q-0.7903 0.31244-2.3709 0.55137-0.8822 0.12865-1.2682 0.29407-0.36758 0.14703-0.56975 0.45948-0.20217 0.31244-0.20217 0.68003 0 0.58813 0.4411 0.97409 0.4411 0.38596 1.2865 0.38596t1.4887-0.36758q0.64327-0.36758 0.95571-1.0108 0.23893-0.47786 0.23893-1.4336zm3.3818 1.7276 1.4152-0.22055q0.12865 0.86382 0.68003 1.3233t1.5438 0.45948 1.4703-0.40434q0.49624-0.40434 0.49624-0.95571 0-0.49624-0.4411-0.77192-0.29407-0.20217-1.4703-0.49624-1.599-0.40434-2.2239-0.69841-0.60651-0.29406-0.91896-0.80868-0.31244-0.51461-0.31244-1.1395 0-0.56975 0.25731-1.0476 0.25731-0.49624 0.71678-0.82706 0.33082-0.23893 0.90058-0.40434 0.58813-0.18379 1.2682-0.18379 0.99247 0 1.746 0.29407 0.77192 0.27569 1.1395 0.77192 0.36758 0.49624 0.49624 1.3233l-1.4152 0.20217q-0.0919-0.66165-0.56975-1.0292-0.45948-0.36758-1.3049-0.36758-0.99247 0-1.4152 0.33082-0.42272 0.31244-0.42272 0.77192 0 0.27569 0.16541 0.49624 0.18379 0.23893 0.56975 0.38596 0.20217 0.07352 1.2682 0.36758 1.5438 0.42272 2.1504 0.68003 0.60651 0.25731 0.93733 0.75354 0.3492 0.49624 0.3492 1.2314 0 0.73516-0.42272 1.3784-0.40434 0.62489-1.213 0.99247-0.7903 0.3492-1.8012 0.3492-1.6541 0-2.5363-0.6984-0.86382-0.69841-1.1027-2.0585zm12.976-1.7093q0-2.3709 1.3233-3.5288 1.0844-0.93733 2.6834-0.93733 1.746 0 2.8671 1.1579 1.1211 1.1395 1.1211 3.1796 0 1.6541-0.49624 2.6098-0.49624 0.93733-1.4519 1.4703-0.93733 0.51461-2.0401 0.51461-1.8012 0-2.9039-1.1579-1.1027-1.1579-1.1027-3.3082zm1.4887 0q0 1.6357 0.71678 2.4628 0.71679 0.80868 1.8012 0.80868 1.066 0 1.7828-0.82706 0.71678-0.82706 0.71678-2.4996 0-1.5806-0.71678-2.3893-0.71678-0.82706-1.7828-0.82706-1.0844 0-1.8012 0.80868-0.71678 0.80868-0.71678 2.4628zm8.8036 4.2639v-7.4068h-1.2865v-1.1395h1.2865v-0.90058q0-0.86382 0.14703-1.2865 0.22055-0.55137 0.73516-0.90058 0.53299-0.3492 1.4887-0.3492 0.60651 0 1.3417 0.14703l-0.22055 1.2498q-0.4411-0.07352-0.84544-0.07352-0.66165 0-0.93733 0.27569-0.27569 0.27569-0.27569 1.0476v0.7903h1.6725v1.1395h-1.6725v7.4068zm8.4544-3.345 1.3968-0.20217q0.05513 1.3601 0.49624 1.8563 0.45948 0.49624 1.2682 0.49624 0.58813 0 1.0108-0.25731 0.42272-0.27569 0.58813-0.73516 0.16541-0.45948 0.16541-1.4887v-8.1052h1.5438v8.0317q0 1.4703-0.3492 2.2974-0.3492 0.80868-1.1395 1.2314-0.77192 0.42272-1.8195 0.42272-1.5438 0-2.3709-0.8822-0.82706-0.90058-0.7903-2.665zm13.233 2.2974q-0.7903 0.68003-1.5438 0.97409-0.73516 0.27569-1.599 0.27569-1.3968 0-2.1687-0.68003-0.75354-0.69841-0.75354-1.7828 0-0.62489 0.27569-1.1395 0.29407-0.51461 0.75354-0.82706 0.47786-0.31244 1.0476-0.47786 0.42272-0.11028 1.2865-0.22055 1.7644-0.20217 2.5915-0.49624 0-0.29407 0-0.36758 0-0.90058-0.40434-1.2498-0.55137-0.49624-1.6541-0.49624-1.0108 0-1.5071 0.36758-0.47786 0.3492-0.71678 1.2498l-1.4152-0.18379q0.18379-0.91895 0.62489-1.4703 0.45948-0.55137 1.2865-0.84544 0.84544-0.31244 1.9482-0.31244 1.0844 0 1.7644 0.25731 0.68003 0.25731 0.99247 0.64327 0.33082 0.38596 0.45948 0.99247 0.07352 0.36758 0.07352 1.3233v1.9298q0 2.0217 0.0919 2.5547t0.36758 1.0292h-1.5071q-0.22055-0.45948-0.29406-1.0476zm-0.11028-3.2347q-0.7903 0.31244-2.3709 0.55137-0.8822 0.12865-1.2682 0.29407-0.36758 0.14703-0.56975 0.45948-0.20217 0.31244-0.20217 0.68003 0 0.58813 0.4411 0.97409t1.2865 0.38596q0.84544 0 1.4887-0.36758t0.95571-1.0108q0.23893-0.47786 0.23893-1.4336zm3.9515 4.2823v-8.5463h1.3049v1.213q0.93733-1.3968 2.7201-1.3968 0.77192 0 1.4152 0.27569 0.64326 0.27569 0.95571 0.73516 0.33082 0.4411 0.45947 1.066 0.0919 0.40434 0.0919 1.3968v5.2564h-1.452v-5.2013q0-0.8822-0.16541-1.3049-0.16542-0.4411-0.60652-0.6984-0.42271-0.27569-1.0108-0.27569-0.91896 0-1.599 0.58813-0.66165 0.58813-0.66165 2.2239v4.6683zm15.016 0v-1.2498q-1.0108 1.4519-2.7201 1.4519-0.75354 0-1.4152-0.29406-0.64328-0.29407-0.9741-0.73516-0.31244-0.4411-0.4411-1.066-0.09189-0.42272-0.09189-1.3601v-5.2932h1.4519v4.7418q0 1.1395 0.0919 1.5255 0.12865 0.56975 0.56975 0.90058 0.4411 0.33082 1.1028 0.33082 0.64327 0 1.213-0.33082 0.56975-0.3492 0.80868-0.91895t0.23893-1.6725v-4.5764h1.4519v8.5463zm9.3733-1.0476q-0.7903 0.68003-1.5438 0.97409-0.73516 0.27569-1.599 0.27569-1.3968 0-2.1687-0.68003-0.75355-0.69841-0.75355-1.7828 0-0.62489 0.2757-1.1395 0.29406-0.51461 0.75353-0.82706 0.47786-0.31244 1.0476-0.47786 0.4227-0.11028 1.2865-0.22055 1.7644-0.20217 2.5914-0.49624 0-0.29407 0-0.36758 0-0.90058-0.40434-1.2498-0.55137-0.49624-1.6541-0.49624-1.0108 0-1.5071 0.36758-0.47786 0.3492-0.71678 1.2498l-1.4152-0.18379q0.18379-0.91895 0.62489-1.4703 0.45948-0.55137 1.2865-0.84544 0.84543-0.31244 1.9482-0.31244 1.0844 0 1.7644 0.25731 0.68004 0.25731 0.99248 0.64327 0.33082 0.38596 0.45948 0.99247 0.0735 0.36758 0.0735 1.3233v1.9298q0 2.0217 0.0919 2.5547t0.36758 1.0292h-1.5071q-0.22055-0.45948-0.29406-1.0476zm-0.11022-3.2347q-0.7903 0.31244-2.3709 0.55137-0.8822 0.12865-1.2682 0.29407-0.36758 0.14703-0.56975 0.45948-0.20217 0.31244-0.20217 0.68003 0 0.58813 0.44109 0.97409 0.4411 0.38596 1.2865 0.38596t1.4887-0.36758 0.95572-1.0108q0.23892-0.47786 0.23892-1.4336zm3.9331 4.2823v-8.5463h1.3049v1.3049q0.49623-0.91896 0.91896-1.1946 0.42271-0.29407 0.93732-0.29407 0.73517 0 1.4887 0.45948l-0.49624 1.3417q-0.53299-0.31244-1.066-0.31244-0.47786 0-0.86381 0.29406-0.36758 0.27569-0.533 0.7903-0.23893 0.77192-0.23893 1.6909v4.4661zm5.8446 3.2899-0.1654-1.3601q0.47785 0.12865 0.82705 0.12865 0.47786 0 0.77192-0.16541 0.29407-0.14703 0.47786-0.4411 0.12866-0.22055 0.4411-1.0844 0.0367-0.11027 0.12866-0.3492l-3.2531-8.5647h1.5622l1.7828 4.944q0.34919 0.95571 0.62488 1.9849 0.23894-0.99247 0.58814-1.9482l1.8195-4.9807h1.4519l-3.2531 8.6933q-0.51461 1.3968-0.80867 1.9298-0.38597 0.71678-0.8822 1.0476-0.49624 0.3492-1.1946 0.3492-0.40434 0-0.91895-0.18379zm20.199-4.6867v1.3968h-7.7927q-0.0183-0.51461 0.1654-1.0108 0.31245-0.7903 0.95571-1.5622 0.66164-0.77192 1.893-1.7828 1.9298-1.5806 2.5914-2.4996 0.68004-0.91896 0.68004-1.746 0-0.86382-0.62489-1.4519-0.60652-0.58813-1.5806-0.58813-1.0476 0-1.6909 0.62489-0.62489 0.62489-0.62489 1.746l-1.4887-0.16541q0.14703-1.6541 1.1395-2.5179 1.0109-0.8822 2.6834-0.8822 1.7093 0 2.6833 0.93733 0.99248 0.93733 0.99248 2.3341 0 0.71678-0.29407 1.3968-0.27568 0.68003-0.95571 1.4336-0.66165 0.75354-2.2239 2.0768-1.3049 1.0844-1.6725 1.4887-0.36758 0.38596-0.6065 0.77192zm1.8012-4.411q0-2.0952 0.42272-3.3634 0.44109-1.2865 1.2865-1.9666 0.84544-0.6984 2.132-0.6984 0.95571 0 1.6725 0.38596 0.71678 0.38596 1.1763 1.1027 0.47786 0.71678 0.73517 1.746 0.2573 1.0292 0.2573 2.7936 0 2.0768-0.42272 3.345-0.42272 1.2682-1.2682 1.9666-0.84544 0.6984-2.1504 0.6984-1.6909 0-2.665-1.2314-1.1763-1.4703-1.1763-4.7786zm1.4887 0q0 2.9039 0.68003 3.8596 0.68003 0.95571 1.6725 0.95571 1.0108 0 1.6909-0.95571 0.68004-0.97409 0.68004-3.8596 0-2.9223-0.68004-3.878-0.68002-0.95571-1.7092-0.95571-0.99247 0-1.5806 0.84544-0.75355 1.0844-0.75355 3.9883zm15.53 4.411v1.3968h-7.7927q-0.0183-0.51461 0.1654-1.0108 0.31245-0.7903 0.95572-1.5622 0.66164-0.77192 1.893-1.7828 1.9298-1.5806 2.5914-2.4996 0.68004-0.91896 0.68004-1.746 0-0.86382-0.62489-1.4519-0.60652-0.58813-1.5806-0.58813-1.0476 0-1.6909 0.62489-0.62489 0.62489-0.62489 1.746l-1.4887-0.16541q0.14703-1.6541 1.1395-2.5179 1.0109-0.8822 2.6834-0.8822 1.7093 0 2.6834 0.93733 0.99247 0.93733 0.99247 2.3341 0 0.71678-0.29407 1.3968-0.27568 0.68003-0.95571 1.4336-0.66165 0.75354-2.2239 2.0768-1.3049 1.0844-1.6725 1.4887-0.36758 0.38596-0.6065 0.77192zm9.4101 0v1.3968h-7.7927q-0.0183-0.51461 0.16541-1.0108 0.31245-0.7903 0.95571-1.5622 0.66165-0.77192 1.893-1.7828 1.9298-1.5806 2.5915-2.4996 0.68002-0.91896 0.68002-1.746 0-0.86382-0.62488-1.4519-0.60651-0.58813-1.5806-0.58813-1.0476 0-1.6909 0.62489-0.62489 0.62489-0.62489 1.746l-1.4887-0.16541q0.14704-1.6541 1.1395-2.5179 1.0108-0.8822 2.6833-0.8822 1.7093 0 2.6834 0.93733 0.99247 0.93733 0.99247 2.3341 0 0.71678-0.29406 1.3968-0.27569 0.68003-0.95571 1.4336-0.66165 0.75354-2.2239 2.0768-1.3049 1.0844-1.6725 1.4887-0.36759 0.38596-0.60651 0.77192zm3.1612 4.8705h-1.0476q2.4077-3.8596 2.4077-7.7376 0-1.5071-0.34921-2.9958-0.27568-1.213-0.75353-2.3158-0.31244-0.71678-1.3049-2.4077h1.0476q1.5071 2.0033 2.2239 4.0434 0.62487 1.7644 0.62487 3.6758 0 2.1687-0.84542 4.1904-0.82707 2.0217-2.0033 3.5472z" fill="#999" stroke-width="1.1763"/>
  <path d="m17.445 36.841v-16.835h6.3408q1.6909 0 2.5731 0.14703 1.2314 0.22055 2.0768 0.80868 0.84544 0.56975 1.3417 1.6174 0.51462 1.0476 0.51462 2.2974 0 2.1504-1.3784 3.6391-1.3601 1.4703-4.9256 1.4703h-4.3191v6.8554zm2.2239-8.8403h4.3558q2.1504 0 3.0509-0.7903 0.91895-0.80868 0.91895-2.279 0-1.0476-0.53299-1.8012-0.53299-0.75354-1.3968-0.99247-0.56975-0.14703-2.0952-0.14703h-4.3007zm12.038 2.7385q0-3.3818 1.8747-5.0175 1.5806-1.3601 3.8412-1.3601 2.5179 0 4.0985 1.6541 1.599 1.6541 1.599 4.558 0 2.3525-0.69841 3.7126-0.69841 1.3417-2.0585 2.0952-1.3417 0.73516-2.9407 0.73516-2.5731 0-4.1537-1.6357-1.5622-1.6541-1.5622-4.7418zm2.1136 0q0 2.3525 1.0108 3.5104 1.0292 1.1579 2.5915 1.1579 1.5438 0 2.5547-1.1579 1.0292-1.1763 1.0292-3.5839 0-2.2606-1.0292-3.4185-1.0292-1.1763-2.5547-1.1763-1.5622 0-2.5915 1.1763-1.0108 1.1579-1.0108 3.492zm11.579 10.77v-16.872h1.893v1.5806q0.66165-0.91896 1.4887-1.3784 0.84544-0.47786 2.0401-0.47786 1.5622 0 2.7569 0.80868 1.1946 0.80868 1.8012 2.279 0.62489 1.4519 0.62489 3.198 0 1.8747-0.68002 3.3818-0.66165 1.4887-1.9482 2.2974-1.2865 0.7903-2.7017 0.7903-1.0292 0-1.8563-0.4411-0.80868-0.4411-1.3417-1.1027v5.9364zm1.8747-10.697q0 2.3525 0.95571 3.4736 0.95571 1.1211 2.3158 1.1211 1.3784 0 2.3525-1.1579 0.99247-1.1579 0.99247-3.6207 0-2.3158-0.97409-3.4736-0.95571-1.1763-2.279-1.1763t-2.3525 1.2498q-1.0108 1.2314-1.0108 3.5839zm19.059 6.0283v-1.8012q-1.4152 2.0768-3.8596 2.0768-1.0844 0-2.0217-0.40434-0.93733-0.42272-1.3968-1.0476-0.4411-0.62489-0.62489-1.5438-0.12865-0.60651-0.12865-1.9298v-7.5538h2.0585v6.7635q0 1.6174 0.12865 2.1871 0.20217 0.80868 0.82706 1.2865 0.64327 0.45948 1.5622 0.45948 0.93734 0 1.746-0.47786 0.82706-0.47786 1.1579-1.2865 0.34921-0.82706 0.34921-2.3893v-6.543h2.0585v12.204zm3.731 0v-16.835h2.0585v16.835zm12.718-1.5071q-1.1579 0.97409-2.2239 1.3784t-2.279 0.40434q-2.0033 0-3.0877-0.97409-1.0844-0.99247-1.0844-2.5179 0-0.90058 0.40434-1.6357 0.42272-0.73516 1.0844-1.1763 0.66165-0.45948 1.4887-0.69841 0.60651-0.14703 1.8379-0.31244 2.4996-0.29407 3.6758-0.69841 0.01837-0.42272 0.01837-0.55137 0-1.2498-0.58813-1.7828-0.7903-0.6984-2.3525-0.6984-1.4703 0-2.1687 0.51462-0.68002 0.51461-1.0108 1.8195l-2.0217-0.27569q0.27568-1.3049 0.90057-2.0952 0.62489-0.80868 1.8195-1.2314 1.1946-0.4411 2.7752-0.4411 1.5622 0 2.5363 0.36758 0.97409 0.36758 1.4336 0.93733 0.45948 0.55137 0.64327 1.3968 0.11027 0.53299 0.11027 1.9114v2.7569q0 2.8855 0.12866 3.6574 0.12865 0.75354 0.53299 1.4519h-2.1687q-0.31245-0.64327-0.40434-1.5071zm-0.18379-4.6132q-1.1211 0.45948-3.3818 0.77192-1.2682 0.18379-1.8012 0.42272-0.51461 0.22055-0.80868 0.66165-0.29406 0.4411-0.29406 0.99247 0 0.82706 0.62489 1.3784t1.8379 0.55137q1.1946 0 2.1136-0.51462 0.93734-0.53299 1.3784-1.4336 0.33082-0.71678 0.33082-2.0768zm9.6674 4.264 0.29407 1.8379q-0.86381 0.18379-1.5622 0.18379-1.1211 0-1.746-0.3492-0.6065-0.36758-0.86381-0.93733-0.25731-0.58813-0.25731-2.4444v-7.0208h-1.5071v-1.6174h1.5071v-3.0142l2.0585-1.2498v4.264h2.0768v1.6174h-2.0768v7.1311q0 0.8822 0.11027 1.1395 0.11028 0.23893 0.3492 0.40434 0.25731 0.14703 0.71679 0.14703 0.33083 0 0.90057-0.0919zm2.5547-12.608v-2.3709h2.0768v2.3709zm0 14.464v-12.204h2.0768v12.204zm3.9331-6.1019q0-3.3818 1.8747-5.0175 1.5806-1.3601 3.8412-1.3601 2.5179 0 4.0985 1.6541 1.599 1.6541 1.599 4.558 0 2.3525-0.69841 3.7126-0.69841 1.3417-2.0585 2.0952-1.3417 0.73516-2.9406 0.73516-2.5731 0-4.1537-1.6357-1.5622-1.6541-1.5622-4.7418zm2.1136 0q0 2.3525 1.0108 3.5104 1.0292 1.1579 2.5915 1.1579 1.5438 0 2.5547-1.1579 1.0292-1.1763 1.0292-3.5839 0-2.2606-1.0292-3.4185-1.0292-1.1763-2.5547-1.1763-1.5622 0-2.5915 1.1763-1.0108 1.1579-1.0108 3.492zm11.579 6.1019v-12.204h1.8747v1.746q1.3417-2.0217 3.878-2.0217 1.1028 0 2.0217 0.40434 0.93732 0.38596 1.3968 1.0292 0.45948 0.64327 0.64326 1.5255 0.11021 0.58813 0.11021 2.0217v7.4987h-2.0768v-7.4252q0-1.2682-0.23893-1.893-0.23892-0.62489-0.86381-0.99247-0.60652-0.36758-1.4336-0.36758-1.3233 0-2.279 0.84544-0.95571 0.82706-0.95571 3.1612v6.6716zm20.732 0h-1.9114v-16.835h2.0584v6.01q1.3233-1.6541 3.345-1.6541 1.1211 0 2.132 0.45948 1.0109 0.45948 1.6541 1.2865 0.64328 0.80868 1.0109 1.9666 0.36758 1.1579 0.36758 2.4812 0 3.1428-1.5438 4.8521-1.5438 1.7093-3.7126 1.7093-2.1687 0-3.4001-1.8012zm-0.0183-6.1938q0 2.1871 0.58813 3.1796 0.99247 1.5806 2.6466 1.5806 1.36 0 2.3341-1.1763 0.99247-1.1763 0.99247-3.5104 0-2.3893-0.95571-3.5104-0.93733-1.1395-2.279-1.1395-1.36 0-2.3525 1.1763-0.97409 1.1763-0.97409 3.4001zm10.954 10.899-0.22055-1.9482q0.68002 0.18379 1.1763 0.18379 0.69841 0 1.1028-0.23893 0.42271-0.22055 0.68002-0.62489 0.20217-0.31244 0.64327-1.5438 0.0552-0.18379 0.18379-0.51462l-4.6316-12.222h2.2239l2.5363 7.076q0.49624 1.3417 0.88219 2.812 0.36759-1.4152 0.84544-2.7752l2.6098-7.1127h2.0768l-4.6499 12.406q-0.73516 2.0217-1.1579 2.7752-0.55137 1.0292-1.2682 1.4887-0.69841 0.47786-1.6909 0.47786-0.6065 0-1.3417-0.23893zm30.234-21.54h2.2239v9.7225q0 2.5363-0.56976 4.0434-0.56974 1.4887-2.0768 2.426-1.4887 0.93733-3.9331 0.93733-2.3709 0-3.878-0.80868-1.4887-0.82706-2.132-2.3709-0.64328-1.5438-0.64328-4.2272v-9.7225h2.2239v9.7042q0 2.2055 0.40435 3.2531 0.40433 1.0292 1.3968 1.599 0.99246 0.55137 2.4444 0.55137 2.4444 0 3.492-1.1027 1.0476-1.1211 1.0476-4.3007zm8.5279 16.835v-14.85h-5.5505v-1.9849h13.343v1.9849h-5.5689v14.85zm21.853-5.8997 2.2239 0.55137q-0.6984 2.7569-2.5179 4.2088-1.8195 1.4336-4.4661 1.4336-2.7201 0-4.4294-1.1027-1.6909-1.1211-2.5914-3.2163-0.8822-2.1136-0.8822-4.5213 0-2.6282 0.99246-4.5764 1.0109-1.9666 2.8671-2.9774 1.8563-1.0292 4.0802-1.0292 2.5363 0 4.2456 1.2865 1.7276 1.2865 2.4077 3.6207l-2.1871 0.51461q-0.58813-1.8379-1.7093-2.665-1.1027-0.84544-2.7936-0.84544-1.9482 0-3.2531 0.93733-1.3049 0.91896-1.8379 2.4996-0.51462 1.5622-0.51462 3.2163 0 2.1504 0.62489 3.7677 0.62489 1.599 1.9482 2.3893 1.3233 0.7903 2.8488 0.7903 1.8747 0 3.1796-1.0844 1.3049-1.0844 1.7644-3.198zm10.476-0.20217q0-3.3818 1.8747-5.0175 1.5806-1.3601 3.8412-1.3601 2.5179 0 4.0985 1.6541 1.599 1.6541 1.599 4.558 0 2.3525-0.69842 3.7126-0.69839 1.3417-2.0585 2.0952-1.3417 0.73516-2.9406 0.73516-2.5731 0-4.1537-1.6357-1.5622-1.6541-1.5622-4.7418zm2.1136 0q0 2.3525 1.0109 3.5104 1.0292 1.1579 2.5914 1.1579 1.5438 0 2.5547-1.1579 1.0292-1.1763 1.0292-3.5839 0-2.2606-1.0292-3.4185-1.0292-1.1763-2.5547-1.1763-1.5622 0-2.5914 1.1763-1.0109 1.1579-1.0109 3.492zm12.075 6.1019v-10.586h-1.8195v-1.6174h1.8195v-1.2865q0-1.2314 0.22055-1.8379 0.29407-0.80868 1.0476-1.3049 0.75353-0.49624 2.1136-0.49624 0.88219 0 1.9298 0.20217l-0.31245 1.8012q-0.64327-0.11028-1.213-0.11028-0.93734 0-1.3417 0.40434-0.38597 0.40434-0.38597 1.5071v1.1211h2.3893v1.6174h-2.3893v10.586zm7.0576 0v-10.586h-1.8195v-1.6174h1.8195v-1.2865q0-1.2314 0.22054-1.8379 0.29407-0.80868 1.0476-1.3049 0.75354-0.49624 2.1136-0.49624 0.88219 0 1.9298 0.20217l-0.31245 1.8012q-0.64326-0.11028-1.213-0.11028-0.93734 0-1.3417 0.40434-0.38597 0.40434-0.38597 1.5071v1.1211h2.3893v1.6174h-2.3893v10.586zm5.7343-3.6391 2.0585-0.33082q0.16542 1.2314 0.95571 1.893 0.7903 0.64327 2.2055 0.64327t2.0952-0.56975q0.69842-0.58813 0.69842-1.3601 0-0.6984-0.60652-1.1027-0.42271-0.27569-2.1136-0.69841-2.279-0.58813-3.1612-0.99247-0.86381-0.42272-1.3233-1.1579-0.45948-0.75354-0.45948-1.6541 0-0.80868 0.36758-1.5071 0.38597-0.6984 1.0292-1.1579 0.47787-0.3492 1.3049-0.58813 0.84544-0.25731 1.8012-0.25731 1.4336 0 2.5179 0.42272 1.0844 0.40434 1.599 1.1211 0.51461 0.69841 0.71678 1.8747l-2.0217 0.27569q-0.14703-0.93733-0.80868-1.4519-0.66165-0.53299-1.8563-0.53299-1.4336 0-2.0401 0.47786-0.60651 0.45948-0.60651 1.0844 0 0.40434 0.2573 0.73516 0.23893 0.33082 0.79031 0.55137 0.31244 0.11028 1.8195 0.51462 2.2055 0.58813 3.0693 0.97409 0.86382 0.36758 1.3601 1.0844 0.49623 0.69841 0.49623 1.7644 0 1.0292-0.60651 1.9482t-1.746 1.4152q-1.1395 0.49624-2.5731 0.49624-2.3709 0-3.6207-0.99247t-1.599-2.9223zm20.952-0.29407 2.132 0.27569q-0.49623 1.8563-1.8747 2.9039-1.3601 1.0292-3.492 1.0292-2.665 0-4.2456-1.6357-1.5622-1.6541-1.5622-4.6315 0-3.0877 1.5806-4.7786 1.5806-1.7093 4.1169-1.7093 2.4444 0 3.9883 1.6725 1.5622 1.6541 1.5622 4.6867 0 0.18379-0.0183 0.55137h-9.0976q0.11022 2.0033 1.1395 3.0693 1.0292 1.066 2.5547 1.066 1.1395 0 1.9298-0.58813 0.80868-0.60651 1.2865-1.9114zm-6.8003-3.345h6.8186q-0.12866-1.5255-0.77192-2.2974-0.99246-1.1946-2.5731-1.1946-1.4152 0-2.3893 0.95571-0.97411 0.93733-1.0844 2.5363zm15.898 5.4218 0.29407 1.8379q-0.86381 0.18379-1.5622 0.18379-1.1211 0-1.746-0.3492-0.60649-0.36758-0.86381-0.93733-0.25731-0.58813-0.25731-2.4444v-7.0208h-1.5071v-1.6174h1.5071v-3.0142l2.0585-1.2498v4.264h2.0768v1.6174h-2.0768v7.1311q0 0.8822 0.11022 1.1395 0.11021 0.23893 0.34919 0.40434 0.25732 0.14703 0.71679 0.14703 0.33083 0 0.90057-0.0919z" stroke="#fff" stroke-linecap="round" stroke-linejoin="round" stroke-width="3.5288"/>
  <path d="m17.445 36.841v-16.835h6.3408q1.6909 0 2.5731 0.14703 1.2314 0.22055 2.0768 0.80868 0.84544 0.56975 1.3417 1.6174 0.51462 1.0476 0.51462 2.2974 0 2.1504-1.3784 3.6391-1.3601 1.4703-4.9256 1.4703h-4.3191v6.8554zm2.2239-8.8403h4.3558q2.1504 0 3.0509-0.7903 0.91895-0.80868 0.91895-2.279 0-1.0476-0.53299-1.8012-0.53299-0.75354-1.3968-0.99247-0.56975-0.14703-2.0952-0.14703h-4.3007zm12.038 2.7385q0-3.3818 1.8747-5.0175 1.5806-1.3601 3.8412-1.3601 2.5179 0 4.0985 1.6541 1.599 1.6541 1.599 4.558 0 2.3525-0.69841 3.7126-0.69841 1.3417-2.0585 2.0952-1.3417 0.73516-2.9407 0.73516-2.5731 0-4.1537-1.6357-1.5622-1.6541-1.5622-4.7418zm2.1136 0q0 2.3525 1.0108 3.5104 1.0292 1.1579 2.5915 1.1579 1.5438 0 2.5547-1.1579 1.0292-1.1763 1.0292-3.5839 0-2.2606-1.0292-3.4185-1.0292-1.1763-2.5547-1.1763-1.5622 0-2.5915 1.1763-1.0108 1.1579-1.0108 3.492zm11.579 10.77v-16.872h1.893v1.5806q0.66165-0.91896 1.4887-1.3784 0.84544-0.47786 2.0401-0.47786 1.5622 0 2.7569 0.80868t1.8012 2.279q0.62489 1.4519 0.62489 3.198 0 1.8747-0.68003 3.3818-0.66165 1.4887-1.9482 2.2974-1.2865 0.7903-2.7017 0.7903-1.0292 0-1.8563-0.4411-0.80868-0.4411-1.3417-1.1027v5.9364zm1.8747-10.697q0 2.3525 0.95571 3.4736 0.95571 1.1211 2.3158 1.1211 1.3784 0 2.3525-1.1579 0.99247-1.1579 0.99247-3.6207 0-2.3158-0.97409-3.4736-0.95571-1.1763-2.279-1.1763-1.3233 0-2.3525 1.2498-1.0108 1.2314-1.0108 3.5839zm19.059 6.0283v-1.8012q-1.4152 2.0768-3.8596 2.0768-1.0844 0-2.0217-0.40434-0.93733-0.42272-1.3968-1.0476-0.4411-0.62489-0.62489-1.5438-0.12865-0.60651-0.12865-1.9298v-7.5538h2.0585v6.7635q0 1.6174 0.12865 2.1871 0.20217 0.80868 0.82706 1.2865 0.64327 0.45948 1.5622 0.45948 0.93733 0 1.746-0.47786 0.82706-0.47786 1.1579-1.2865 0.3492-0.82706 0.3492-2.3893v-6.543h2.0585v12.204zm3.731 0v-16.835h2.0585v16.835zm12.718-1.5071q-1.1579 0.97409-2.2239 1.3784-1.066 0.40434-2.279 0.40434-2.0033 0-3.0877-0.97409-1.0844-0.99247-1.0844-2.5179 0-0.90058 0.40434-1.6357 0.42272-0.73516 1.0844-1.1763 0.66165-0.45948 1.4887-0.69841 0.60651-0.14703 1.8379-0.31244 2.4996-0.29407 3.6758-0.69841 0.01838-0.42272 0.01838-0.55137 0-1.2498-0.58813-1.7828-0.7903-0.6984-2.3525-0.6984-1.4703 0-2.1687 0.51462-0.68003 0.51461-1.0108 1.8195l-2.0217-0.27569q0.27569-1.3049 0.90058-2.0952 0.62489-0.80868 1.8195-1.2314 1.1946-0.4411 2.7752-0.4411 1.5622 0 2.5363 0.36758t1.4336 0.93733q0.45948 0.55137 0.64326 1.3968 0.11028 0.53299 0.11028 1.9114v2.7569q0 2.8855 0.12866 3.6574 0.12865 0.75354 0.53299 1.4519h-2.1687q-0.31244-0.64327-0.40434-1.5071zm-0.18379-4.6132q-1.1211 0.45948-3.3818 0.77192-1.2682 0.18379-1.8012 0.42272-0.51462 0.22055-0.80868 0.66165-0.29407 0.4411-0.29407 0.99247 0 0.82706 0.62489 1.3784 0.62489 0.55137 1.8379 0.55137 1.1946 0 2.1136-0.51462 0.93733-0.53299 1.3784-1.4336 0.33082-0.71678 0.33082-2.0768zm9.6674 4.264 0.29407 1.8379q-0.86381 0.18379-1.5622 0.18379-1.1211 0-1.746-0.3492-0.6065-0.36758-0.86381-0.93733-0.25731-0.58813-0.25731-2.4444v-7.0208h-1.5071v-1.6174h1.5071v-3.0142l2.0585-1.2498v4.264h2.0768v1.6174h-2.0768v7.1311q0 0.8822 0.11027 1.1395 0.11028 0.23893 0.3492 0.40434 0.25731 0.14703 0.71679 0.14703 0.33083 0 0.90057-0.0919zm2.5547-12.608v-2.3709h2.0768v2.3709zm0 14.464v-12.204h2.0768v12.204zm3.9331-6.1019q0-3.3818 1.8747-5.0175 1.5806-1.3601 3.8412-1.3601 2.5179 0 4.0985 1.6541 1.599 1.6541 1.599 4.558 0 2.3525-0.69841 3.7126-0.69841 1.3417-2.0585 2.0952-1.3417 0.73516-2.9406 0.73516-2.5731 0-4.1537-1.6357-1.5622-1.6541-1.5622-4.7418zm2.1136 0q0 2.3525 1.0108 3.5104 1.0292 1.1579 2.5915 1.1579 1.5438 0 2.5547-1.1579 1.0292-1.1763 1.0292-3.5839 0-2.2606-1.0292-3.4185-1.0292-1.1763-2.5547-1.1763-1.5622 0-2.5915 1.1763-1.0108 1.1579-1.0108 3.492zm11.579 6.1019v-12.204h1.8747v1.746q1.3417-2.0217 3.878-2.0217 1.1028 0 2.0217 0.40434 0.93732 0.38596 1.3968 1.0292 0.45948 0.64327 0.64326 1.5255 0.11021 0.58813 0.11021 2.0217v7.4987h-2.0768v-7.4252q0-1.2682-0.23893-1.893-0.23892-0.62489-0.86381-0.99247-0.60652-0.36758-1.4336-0.36758-1.3233 0-2.279 0.84544-0.95571 0.82706-0.95571 3.1612v6.6716zm20.732 0h-1.9114v-16.835h2.0584v6.01q1.3233-1.6541 3.345-1.6541 1.1211 0 2.132 0.45948 1.0109 0.45948 1.6541 1.2865 0.64328 0.80868 1.0109 1.9666 0.36758 1.1579 0.36758 2.4812 0 3.1428-1.5438 4.8521-1.5438 1.7093-3.7126 1.7093-2.1687 0-3.4001-1.8012zm-0.0183-6.1938q0 2.1871 0.58813 3.1796 0.99247 1.5806 2.6466 1.5806 1.36 0 2.3341-1.1763 0.99247-1.1763 0.99247-3.5104 0-2.3893-0.95571-3.5104-0.93733-1.1395-2.279-1.1395-1.36 0-2.3525 1.1763-0.97409 1.1763-0.97409 3.4001zm10.954 10.899-0.22055-1.9482q0.68002 0.18379 1.1763 0.18379 0.69841 0 1.1028-0.23893 0.42271-0.22055 0.68002-0.62489 0.20217-0.31244 0.64327-1.5438 0.0552-0.18379 0.18379-0.51462l-4.6316-12.222h2.2239l2.5363 7.076q0.49624 1.3417 0.88219 2.812 0.36759-1.4152 0.84544-2.7752l2.6098-7.1127h2.0768l-4.6499 12.406q-0.73516 2.0217-1.1579 2.7752-0.55137 1.0292-1.2682 1.4887-0.69841 0.47786-1.6909 0.47786-0.6065 0-1.3417-0.23893zm30.234-21.54h2.2239v9.7225q0 2.5363-0.56976 4.0434-0.56974 1.4887-2.0768 2.426-1.4887 0.93733-3.9331 0.93733-2.3709 0-3.878-0.80868-1.4887-0.82706-2.132-2.3709-0.64328-1.5438-0.64328-4.2272v-9.7225h2.2239v9.7042q0 2.2055 0.40435 3.2531 0.40433 1.0292 1.3968 1.599 0.99246 0.55137 2.4444 0.55137 2.4444 0 3.492-1.1027 1.0476-1.1211 1.0476-4.3007zm8.5279 16.835v-14.85h-5.5505v-1.9849h13.343v1.9849h-5.5689v14.85zm21.853-5.8997 2.2239 0.55137q-0.6984 2.7569-2.5179 4.2088-1.8195 1.4336-4.4661 1.4336-2.7201 0-4.4294-1.1027-1.6909-1.1211-2.5914-3.2163-0.8822-2.1136-0.8822-4.5213 0-2.6282 0.99246-4.5764 1.0109-1.9666 2.8671-2.9774 1.8563-1.0292 4.0802-1.0292 2.5363 0 4.2456 1.2865 1.7276 1.2865 2.4077 3.6207l-2.1871 0.51461q-0.58813-1.8379-1.7093-2.665-1.1027-0.84544-2.7936-0.84544-1.9482 0-3.2531 0.93733-1.3049 0.91896-1.8379 2.4996-0.51462 1.5622-0.51462 3.2163 0 2.1504 0.62489 3.7677 0.62489 1.599 1.9482 2.3893 1.3233 0.7903 2.8488 0.7903 1.8747 0 3.1796-1.0844 1.3049-1.0844 1.7644-3.198zm10.476-0.20217q0-3.3818 1.8747-5.0175 1.5806-1.3601 3.8412-1.3601 2.5179 0 4.0985 1.6541 1.599 1.6541 1.599 4.558 0 2.3525-0.69842 3.7126-0.69839 1.3417-2.0585 2.0952-1.3417 0.73516-2.9406 0.73516-2.5731 0-4.1537-1.6357-1.5622-1.6541-1.5622-4.7418zm2.1136 0q0 2.3525 1.0109 3.5104 1.0292 1.1579 2.5914 1.1579 1.5438 0 2.5547-1.1579 1.0292-1.1763 1.0292-3.5839 0-2.2606-1.0292-3.4185-1.0292-1.1763-2.5547-1.1763-1.5622 0-2.5914 1.1763-1.0109 1.1579-1.0109 3.492zm12.075 6.1019v-10.586h-1.8195v-1.6174h1.8195v-1.2865q0-1.2314 0.22055-1.8379 0.29407-0.80868 1.0476-1.3049 0.75353-0.49624 2.1136-0.49624 0.88219 0 1.9298 0.20217l-0.31245 1.8012q-0.64327-0.11028-1.213-0.11028-0.93734 0-1.3417 0.40434-0.38597 0.40434-0.38597 1.5071v1.1211h2.3893v1.6174h-2.3893v10.586zm7.0576 0v-10.586h-1.8195v-1.6174h1.8195v-1.2865q0-1.2314 0.22054-1.8379 0.29407-0.80868 1.0476-1.3049 0.75354-0.49624 2.1136-0.49624 0.88219 0 1.9298 0.20217l-0.31245 1.8012q-0.64326-0.11028-1.213-0.11028-0.93734 0-1.3417 0.40434-0.38597 0.40434-0.38597 1.5071v1.1211h2.3893v1.6174h-2.3893v10.586zm5.7343-3.6391 2.0585-0.33082q0.16542 1.2314 0.95571 1.893 0.7903 0.64327 2.2055 0.64327t2.0952-0.56975q0.69842-0.58813 0.69842-1.3601 0-0.6984-0.60652-1.1027-0.42271-0.27569-2.1136-0.69841-2.279-0.58813-3.1612-0.99247-0.86381-0.42272-1.3233-1.1579-0.45948-0.75354-0.45948-1.6541 0-0.80868 0.36758-1.5071 0.38597-0.6984 1.0292-1.1579 0.47787-0.3492 1.3049-0.58813 0.84544-0.25731 1.8012-0.25731 1.4336 0 2.5179 0.42272 1.0844 0.40434 1.599 1.1211 0.51461 0.69841 0.71678 1.8747l-2.0217 0.27569q-0.14703-0.93733-0.80868-1.4519-0.66165-0.53299-1.8563-0.53299-1.4336 0-2.0401 0.47786-0.60651 0.45948-0.60651 1.0844 0 0.40434 0.2573 0.73516 0.23893 0.33082 0.79031 0.55137 0.31244 0.11028 1.8195 0.51462 2.2055 0.58813 3.0693 0.97409 0.86382 0.36758 1.3601 1.0844 0.49623 0.69841 0.49623 1.7644 0 1.0292-0.60651 1.9482t-1.746 1.4152q-1.1395 0.49624-2.5731 0.49624-2.3709 0-3.6207-0.99247t-1.599-2.9223zm20.952-0.29407 2.132 0.27569q-0.49623 1.8563-1.8747 2.9039-1.3601 1.0292-3.492 1.0292-2.665 0-4.2456-1.6357-1.5622-1.6541-1.5622-4.6315 0-3.0877 1.5806-4.7786 1.5806-1.7093 4.1169-1.7093 2.4444 0 3.9883 1.6725 1.5622 1.6541 1.5622 4.6867 0 0.18379-0.0183 0.55137h-9.0976q0.11022 2.0033 1.1395 3.0693 1.0292 1.066 2.5547 1.066 1.1395 0 1.9298-0.58813 0.80868-0.60651 1.2865-1.9114zm-6.8003-3.345h6.8186q-0.12866-1.5255-0.77192-2.2974-0.99246-1.1946-2.5731-1.1946-1.4152 0-2.3893 0.95571-0.97411 0.93733-1.0844 2.5363zm15.898 5.4218 0.29407 1.8379q-0.86381 0.18379-1.5622 0.18379-1.1211 0-1.746-0.3492-0.60649-0.36758-0.86381-0.93733-0.25731-0.58813-0.25731-2.4444v-7.0208h-1.5071v-1.6174h1.5071v-3.0142l2.0585-1.2498v4.264h2.0768v1.6174h-2.0768v7.1311q0 0.8822 0.11022 1.1395 0.11021 0.23893 0.34919 0.40434 0.25732 0.14703 0.71679 0.14703 0.33083 0 0.90057-0.0919z" fill="#757575" stroke-width="1.1763"/>
 </g>
 <g fill="#000000" font-family="Arial">
  <text x="586.78192" y="578.89734" font-size="16px" style="line-height:1.25" xml:space="preserve"><tspan x="586.78192" y="578.89734">+5</tspan></text>
  <text x="822.40259" y="165.92007" font-size="18.667px" style="line-height:1.25" xml:space="preserve"><tspan x="822.40259" y="165.92007">1.5 billion</tspan></text>
  <text x="837.97034" y="303.80145" font-size="18.667px" style="line-height:1.25" xml:space="preserve"><tspan x="837.97034" y="303.80145">1 billion</tspan></text>
  <g font-size="16px">
   <text x="404.53036" y="579.67969" style="line-height:1.25" xml:space="preserve"><tspan x="404.53036" y="579.67969">UTC</tspan></text>
   <text x="236.70284" y="579.67969" style="line-height:1.25" xml:space="preserve"><tspan x="236.70284" y="579.67969">-5</tspan></text>
   <text x="757.96442" y="579.67969" style="line-height:1.25" xml:space="preserve"><tspan x="757.96442" y="579.67969">+10</tspan></text>
   <text x="47.394642" y="580.47498" style="line-height:1.25" xml:space="preserve"><tspan x="47.394642" y="580.47498">-10</tspan></text>
  </g>
 </g>
</svg>
